%TF.GenerationSoftware,KiCad,Pcbnew,9.0.6*%
%TF.CreationDate,2025-12-20T14:01:59+05:30*%
%TF.ProjectId,lion_circuits_temp,6c696f6e-5f63-4697-9263-756974735f74,V 1.0*%
%TF.SameCoordinates,Original*%
%TF.FileFunction,Copper,L1,Top*%
%TF.FilePolarity,Positive*%
%FSLAX46Y46*%
G04 Gerber Fmt 4.6, Leading zero omitted, Abs format (unit mm)*
G04 Created by KiCad (PCBNEW 9.0.6) date 2025-12-20 14:01:59*
%MOMM*%
%LPD*%
G01*
G04 APERTURE LIST*
G04 Aperture macros list*
%AMRoundRect*
0 Rectangle with rounded corners*
0 $1 Rounding radius*
0 $2 $3 $4 $5 $6 $7 $8 $9 X,Y pos of 4 corners*
0 Add a 4 corners polygon primitive as box body*
4,1,4,$2,$3,$4,$5,$6,$7,$8,$9,$2,$3,0*
0 Add four circle primitives for the rounded corners*
1,1,$1+$1,$2,$3*
1,1,$1+$1,$4,$5*
1,1,$1+$1,$6,$7*
1,1,$1+$1,$8,$9*
0 Add four rect primitives between the rounded corners*
20,1,$1+$1,$2,$3,$4,$5,0*
20,1,$1+$1,$4,$5,$6,$7,0*
20,1,$1+$1,$6,$7,$8,$9,0*
20,1,$1+$1,$8,$9,$2,$3,0*%
G04 Aperture macros list end*
%TA.AperFunction,ComponentPad*%
%ADD10C,4.000000*%
%TD*%
%TA.AperFunction,ComponentPad*%
%ADD11O,1.700000X1.700000*%
%TD*%
%TA.AperFunction,ComponentPad*%
%ADD12R,1.700000X1.700000*%
%TD*%
%TA.AperFunction,ComponentPad*%
%ADD13R,3.000000X3.000000*%
%TD*%
%TA.AperFunction,ComponentPad*%
%ADD14C,3.000000*%
%TD*%
%TA.AperFunction,ComponentPad*%
%ADD15R,2.000000X2.000000*%
%TD*%
%TA.AperFunction,ComponentPad*%
%ADD16C,2.000000*%
%TD*%
%TA.AperFunction,ComponentPad*%
%ADD17C,1.800000*%
%TD*%
%TA.AperFunction,ComponentPad*%
%ADD18C,1.600000*%
%TD*%
%TA.AperFunction,ComponentPad*%
%ADD19RoundRect,0.250000X0.550000X-0.550000X0.550000X0.550000X-0.550000X0.550000X-0.550000X-0.550000X0*%
%TD*%
%TA.AperFunction,ComponentPad*%
%ADD20R,1.730000X2.030000*%
%TD*%
%TA.AperFunction,ComponentPad*%
%ADD21O,1.730000X2.030000*%
%TD*%
%TA.AperFunction,ViaPad*%
%ADD22C,0.711000*%
%TD*%
%TA.AperFunction,Conductor*%
%ADD23C,0.200000*%
%TD*%
G04 APERTURE END LIST*
D10*
%TO.P,U2,*%
%TO.N,*%
X127625000Y-81943118D03*
X127675000Y-64293118D03*
X173275000Y-82093118D03*
X173375000Y-64293118D03*
D11*
%TO.P,U2,1,SCL*%
%TO.N,unconnected-(U2-SCL-Pad1)*%
X131600000Y-83300000D03*
%TO.P,U2,2,SDA*%
%TO.N,unconnected-(U2-SDA-Pad2)*%
X134000000Y-83300000D03*
%TO.P,U2,3,D8*%
%TO.N,/ECHO*%
X136600000Y-83300000D03*
%TO.P,U2,4,D9*%
%TO.N,/TRIG*%
X139100000Y-83300000D03*
%TO.P,U2,5,NC*%
%TO.N,unconnected-(U2-NC-Pad5)*%
X141500000Y-83300000D03*
%TO.P,U2,6,D3*%
%TO.N,/IN3*%
X144200000Y-83400000D03*
%TO.P,U2,7,D2*%
%TO.N,/IN4*%
X146700000Y-83400000D03*
%TO.P,U2,8,D1*%
%TO.N,/IN1*%
X149300000Y-83400000D03*
%TO.P,U2,9,D0*%
%TO.N,/IN2*%
X151800000Y-83400000D03*
%TO.P,U2,10,USB*%
%TO.N,/5v*%
X154300000Y-83400000D03*
%TO.P,U2,11,RST*%
%TO.N,unconnected-(U2-RST-Pad11)*%
X156900000Y-83400000D03*
D12*
%TO.P,U2,12,BAT*%
%TO.N,unconnected-(U2-BAT-Pad12)*%
X159400000Y-83400000D03*
%TO.P,U2,13,RST*%
%TO.N,unconnected-(U2-RST-Pad13)*%
X169500000Y-63100000D03*
D11*
%TO.P,U2,14,3V3*%
%TO.N,+3V3*%
X167000000Y-63100000D03*
%TO.P,U2,15,3V3*%
X164400000Y-63000000D03*
%TO.P,U2,16,GND*%
%TO.N,GND*%
X161900000Y-63000000D03*
%TO.P,U2,17,A0*%
%TO.N,/DHT*%
X159400000Y-63000000D03*
%TO.P,U2,18,A1*%
%TO.N,/LDR*%
X156800000Y-63000000D03*
%TO.P,U2,19,A2*%
%TO.N,/Buz*%
X154300000Y-63000000D03*
%TO.P,U2,20,A3*%
%TO.N,/vibration*%
X151700000Y-63000000D03*
%TO.P,U2,21,D-*%
%TO.N,/mot2_pwm*%
X149200000Y-63000000D03*
%TO.P,U2,22,D+*%
%TO.N,/mot1_pwm*%
X146700000Y-63000000D03*
%TO.P,U2,23,SCK*%
%TO.N,unconnected-(U2-SCK-Pad23)*%
X144100000Y-63000000D03*
%TO.P,U2,24,MO*%
%TO.N,unconnected-(U2-MO-Pad24)*%
X141600000Y-63000000D03*
%TO.P,U2,25,MI*%
%TO.N,unconnected-(U2-MI-Pad25)*%
X139000000Y-63000000D03*
%TO.P,U2,26,RX*%
%TO.N,unconnected-(U2-RX-Pad26)*%
X136500000Y-63000000D03*
%TO.P,U2,27,TX*%
%TO.N,unconnected-(U2-TX-Pad27)*%
X134000000Y-63000000D03*
%TO.P,U2,28,GND*%
%TO.N,GND*%
X131400000Y-63100000D03*
%TD*%
D13*
%TO.P,J6,1,Pin_1*%
%TO.N,Net-(J6-Pin_1)*%
X153320000Y-101300000D03*
D14*
%TO.P,J6,2,Pin_2*%
%TO.N,Net-(J6-Pin_2)*%
X157200000Y-101300000D03*
%TD*%
D15*
%TO.P,BZ1,1,+*%
%TO.N,/Buz*%
X153400000Y-49500000D03*
D16*
%TO.P,BZ1,2,-*%
%TO.N,GND*%
X161000000Y-49500000D03*
%TD*%
D17*
%TO.P,RV1,1,1*%
%TO.N,Net-(R1-Pad2)*%
X102540000Y-76650000D03*
%TO.P,RV1,2,2*%
%TO.N,/LDR*%
X100000000Y-76650000D03*
%TO.P,RV1,3,3*%
%TO.N,unconnected-(RV1-Pad3)*%
X97460000Y-76650000D03*
%TD*%
D13*
%TO.P,BT1,1,+*%
%TO.N,/Bat*%
X181050000Y-91207500D03*
D14*
%TO.P,BT1,2,-*%
%TO.N,GND*%
X181050000Y-87327500D03*
%TD*%
D13*
%TO.P,J2,1,Pin_1*%
%TO.N,Net-(J2-Pin_1)*%
X141307500Y-102850000D03*
D14*
%TO.P,J2,2,Pin_2*%
%TO.N,Net-(J2-Pin_2)*%
X137427500Y-102850000D03*
%TD*%
D18*
%TO.P,R1,1*%
%TO.N,+3V3*%
X120000000Y-72900000D03*
%TO.P,R1,2*%
%TO.N,Net-(R1-Pad2)*%
X112400000Y-72900000D03*
%TD*%
D19*
%TO.P,U1,1,EN1\u002C2*%
%TO.N,/mot1_pwm*%
X140360000Y-94720000D03*
D18*
%TO.P,U1,2,1A*%
%TO.N,/IN1*%
X142900000Y-94720000D03*
%TO.P,U1,3,1Y*%
%TO.N,Net-(J6-Pin_1)*%
X145440000Y-94720000D03*
%TO.P,U1,4,GND*%
%TO.N,GND*%
X147980000Y-94720000D03*
%TO.P,U1,5,GND*%
X150520000Y-94720000D03*
%TO.P,U1,6,2Y*%
%TO.N,Net-(J6-Pin_2)*%
X153060000Y-94720000D03*
%TO.P,U1,7,2A*%
%TO.N,/IN2*%
X155600000Y-94720000D03*
%TO.P,U1,8,VCC2*%
%TO.N,/Bat*%
X158140000Y-94720000D03*
%TO.P,U1,9,EN3\u002C4*%
%TO.N,/mot2_pwm*%
X158140000Y-87100000D03*
%TO.P,U1,10,3A*%
%TO.N,/IN3*%
X155600000Y-87100000D03*
%TO.P,U1,11,3Y*%
%TO.N,Net-(J2-Pin_1)*%
X153060000Y-87100000D03*
%TO.P,U1,12,GND*%
%TO.N,GND*%
X150520000Y-87100000D03*
%TO.P,U1,13,GND*%
X147980000Y-87100000D03*
%TO.P,U1,14,4Y*%
%TO.N,Net-(J2-Pin_2)*%
X145440000Y-87100000D03*
%TO.P,U1,15,4A*%
%TO.N,/IN4*%
X142900000Y-87100000D03*
%TO.P,U1,16,VCC1*%
%TO.N,/5v*%
X140360000Y-87100000D03*
%TD*%
D20*
%TO.P,J1,1,Pin_1*%
%TO.N,+3V3*%
X145200000Y-46000000D03*
D21*
%TO.P,J1,2,Pin_2*%
%TO.N,GND*%
X142660000Y-46000000D03*
%TO.P,J1,3,Pin_3*%
%TO.N,unconnected-(J1-Pin_3-Pad3)*%
X140120000Y-46000000D03*
%TO.P,J1,4,Pin_4*%
%TO.N,/vibration*%
X137580000Y-46000000D03*
%TD*%
D20*
%TO.P,J5,1,Pin_1*%
%TO.N,unconnected-(J5-Pin_1-Pad1)*%
X132200000Y-91100000D03*
D21*
%TO.P,J5,2,Pin_2*%
%TO.N,/TRIG*%
X129660000Y-91100000D03*
%TO.P,J5,3,Pin_3*%
%TO.N,/ECHO*%
X127120000Y-91100000D03*
%TO.P,J5,4,Pin_4*%
%TO.N,GND*%
X124580000Y-91100000D03*
%TD*%
D20*
%TO.P,J4,1,Pin_1*%
%TO.N,+3V3*%
X180200000Y-53800000D03*
D21*
%TO.P,J4,2,Pin_2*%
%TO.N,/DHT*%
X177660000Y-53800000D03*
%TO.P,J4,3,Pin_3*%
%TO.N,unconnected-(J4-Pin_3-Pad3)*%
X175120000Y-53800000D03*
%TO.P,J4,4,Pin_4*%
%TO.N,GND*%
X172580000Y-53800000D03*
%TD*%
D22*
%TO.N,GND*%
X137400000Y-74380000D03*
%TO.N,/5v*%
X144600000Y-81100000D03*
%TO.N,GND*%
X162400000Y-53800000D03*
%TO.N,+3V3*%
X154600000Y-66700000D03*
%TD*%
D23*
%TO.N,/DHT*%
X175375000Y-57300000D02*
X165100000Y-57300000D01*
X165100000Y-57300000D02*
X159400000Y-63000000D01*
%TO.N,Net-(J2-Pin_1)*%
X146541000Y-97616500D02*
X154260550Y-97616500D01*
%TO.N,Net-(J2-Pin_2)*%
X137427500Y-95112500D02*
X137427500Y-102850000D01*
%TO.N,/Buz*%
X153400000Y-62100000D02*
X154300000Y-63000000D01*
%TO.N,+3V3*%
X120000000Y-72900000D02*
X148400000Y-72900000D01*
%TO.N,Net-(J2-Pin_1)*%
X156701000Y-95176050D02*
X156701000Y-90741000D01*
X154260550Y-97616500D02*
X156701000Y-95176050D01*
X141307500Y-102850000D02*
X146541000Y-97616500D01*
X156701000Y-90741000D02*
X153060000Y-87100000D01*
%TO.N,/DHT*%
X177660000Y-55015000D02*
X175375000Y-57300000D01*
X177660000Y-53800000D02*
X177660000Y-55015000D01*
%TO.N,Net-(J2-Pin_2)*%
X145440000Y-87100000D02*
X137427500Y-95112500D01*
%TO.N,+3V3*%
X148400000Y-72900000D02*
X154600000Y-66700000D01*
%TO.N,GND*%
X161900000Y-63000000D02*
X150520000Y-74380000D01*
%TO.N,/LDR*%
X148001000Y-71799000D02*
X156800000Y-63000000D01*
X100000000Y-76650000D02*
X104851000Y-71799000D01*
%TO.N,Net-(R1-Pad2)*%
X112400000Y-72900000D02*
X106290000Y-72900000D01*
%TO.N,GND*%
X137400000Y-74380000D02*
X137280000Y-74380000D01*
%TO.N,Net-(R1-Pad2)*%
X106290000Y-72900000D02*
X102540000Y-76650000D01*
%TO.N,/Buz*%
X153400000Y-49500000D02*
X153400000Y-62100000D01*
%TO.N,GND*%
X150520000Y-74380000D02*
X137400000Y-74380000D01*
X172580000Y-53800000D02*
X162400000Y-53800000D01*
X150520000Y-74380000D02*
X150520000Y-87100000D01*
X162400000Y-53800000D02*
X162300000Y-53800000D01*
X162300000Y-53800000D02*
X161000000Y-52500000D01*
X161000000Y-52500000D02*
X161000000Y-49500000D01*
%TO.N,/5v*%
X140360000Y-87100000D02*
X143049000Y-84411000D01*
%TO.N,/IN2*%
X151800000Y-83400000D02*
X151800000Y-90900000D01*
%TO.N,/5v*%
X143049000Y-82651000D02*
X144600000Y-81100000D01*
%TO.N,/IN1*%
X149300000Y-88320000D02*
X142900000Y-94720000D01*
%TO.N,/IN2*%
X151800000Y-90900000D02*
X154800000Y-93900000D01*
%TO.N,/IN4*%
X143000000Y-87100000D02*
X142900000Y-87100000D01*
%TO.N,/LDR*%
X104851000Y-71799000D02*
X148001000Y-71799000D01*
%TO.N,/5v*%
X143049000Y-84411000D02*
X143049000Y-82651000D01*
%TO.N,/IN2*%
X154800000Y-93900000D02*
X154800001Y-93920001D01*
%TO.N,/IN1*%
X149300000Y-83400000D02*
X149300000Y-88320000D01*
%TO.N,/IN2*%
X154800001Y-93920001D02*
X155600000Y-94720000D01*
%TO.N,/IN4*%
X146700000Y-83400000D02*
X143000000Y-87100000D01*
%TD*%
%TA.AperFunction,Conductor*%
%TO.N,GND*%
G36*
X138978833Y-94512913D02*
G01*
X139034767Y-94554785D01*
X139059184Y-94620249D01*
X139059500Y-94629095D01*
X139059500Y-95320001D01*
X139059501Y-95320019D01*
X139070000Y-95422796D01*
X139070001Y-95422799D01*
X139125185Y-95589331D01*
X139125187Y-95589336D01*
X139151446Y-95631908D01*
X139217288Y-95738656D01*
X139341344Y-95862712D01*
X139490666Y-95954814D01*
X139657203Y-96009999D01*
X139759991Y-96020500D01*
X140960008Y-96020499D01*
X141062797Y-96009999D01*
X141229334Y-95954814D01*
X141378656Y-95862712D01*
X141502712Y-95738656D01*
X141594814Y-95589334D01*
X141621955Y-95507427D01*
X141661726Y-95449984D01*
X141726242Y-95423161D01*
X141795018Y-95435476D01*
X141839977Y-95473547D01*
X141908030Y-95567213D01*
X141908034Y-95567219D01*
X142052786Y-95711971D01*
X142173226Y-95799474D01*
X142218390Y-95832287D01*
X142334607Y-95891503D01*
X142400776Y-95925218D01*
X142400778Y-95925218D01*
X142400781Y-95925220D01*
X142491856Y-95954812D01*
X142595465Y-95988477D01*
X142696557Y-96004488D01*
X142797648Y-96020500D01*
X142797649Y-96020500D01*
X143002351Y-96020500D01*
X143002352Y-96020500D01*
X143204534Y-95988477D01*
X143399219Y-95925220D01*
X143581610Y-95832287D01*
X143710482Y-95738657D01*
X143747213Y-95711971D01*
X143747215Y-95711968D01*
X143747219Y-95711966D01*
X143891966Y-95567219D01*
X143891968Y-95567215D01*
X143891971Y-95567213D01*
X144012284Y-95401614D01*
X144012286Y-95401611D01*
X144012287Y-95401610D01*
X144059516Y-95308917D01*
X144107489Y-95258123D01*
X144175310Y-95241328D01*
X144241445Y-95263865D01*
X144280483Y-95308917D01*
X144288635Y-95324915D01*
X144327715Y-95401614D01*
X144448028Y-95567213D01*
X144592786Y-95711971D01*
X144713226Y-95799474D01*
X144758390Y-95832287D01*
X144874607Y-95891503D01*
X144940776Y-95925218D01*
X144940778Y-95925218D01*
X144940781Y-95925220D01*
X145031856Y-95954812D01*
X145135465Y-95988477D01*
X145236557Y-96004488D01*
X145337648Y-96020500D01*
X145337649Y-96020500D01*
X145542351Y-96020500D01*
X145542352Y-96020500D01*
X145744534Y-95988477D01*
X145939219Y-95925220D01*
X146121610Y-95832287D01*
X146250482Y-95738657D01*
X146287213Y-95711971D01*
X146287215Y-95711968D01*
X146287219Y-95711966D01*
X146431966Y-95567219D01*
X146431968Y-95567215D01*
X146431971Y-95567213D01*
X146536894Y-95422797D01*
X146552287Y-95401610D01*
X146599795Y-95308369D01*
X146647769Y-95257573D01*
X146715590Y-95240778D01*
X146781725Y-95263315D01*
X146820765Y-95308369D01*
X146868141Y-95401350D01*
X146868147Y-95401359D01*
X146900523Y-95445921D01*
X146900524Y-95445922D01*
X147580000Y-94766446D01*
X147580000Y-94772661D01*
X147607259Y-94874394D01*
X147659920Y-94965606D01*
X147734394Y-95040080D01*
X147825606Y-95092741D01*
X147927339Y-95120000D01*
X147933553Y-95120000D01*
X147254076Y-95799474D01*
X147298650Y-95831859D01*
X147480968Y-95924755D01*
X147675582Y-95987990D01*
X147877683Y-96020000D01*
X148082317Y-96020000D01*
X148284417Y-95987990D01*
X148479031Y-95924755D01*
X148661349Y-95831859D01*
X148705921Y-95799474D01*
X148026447Y-95120000D01*
X148032661Y-95120000D01*
X148134394Y-95092741D01*
X148225606Y-95040080D01*
X148300080Y-94965606D01*
X148352741Y-94874394D01*
X148380000Y-94772661D01*
X148380000Y-94766447D01*
X149059474Y-95445921D01*
X149091861Y-95401347D01*
X149091861Y-95401346D01*
X149139515Y-95307820D01*
X149187489Y-95257024D01*
X149255310Y-95240228D01*
X149321445Y-95262765D01*
X149360485Y-95307819D01*
X149408141Y-95401350D01*
X149408147Y-95401359D01*
X149440523Y-95445921D01*
X149440524Y-95445922D01*
X150120000Y-94766446D01*
X150120000Y-94772661D01*
X150147259Y-94874394D01*
X150199920Y-94965606D01*
X150274394Y-95040080D01*
X150365606Y-95092741D01*
X150467339Y-95120000D01*
X150473553Y-95120000D01*
X149794076Y-95799474D01*
X149838650Y-95831859D01*
X150020968Y-95924755D01*
X150215582Y-95987990D01*
X150417683Y-96020000D01*
X150622317Y-96020000D01*
X150824417Y-95987990D01*
X151019031Y-95924755D01*
X151201349Y-95831859D01*
X151245921Y-95799474D01*
X150566447Y-95120000D01*
X150572661Y-95120000D01*
X150674394Y-95092741D01*
X150765606Y-95040080D01*
X150840080Y-94965606D01*
X150892741Y-94874394D01*
X150920000Y-94772661D01*
X150920000Y-94766447D01*
X151599474Y-95445921D01*
X151631861Y-95401347D01*
X151631861Y-95401346D01*
X151679234Y-95308371D01*
X151727208Y-95257575D01*
X151795028Y-95240779D01*
X151861164Y-95263316D01*
X151900203Y-95308369D01*
X151947713Y-95401611D01*
X152068028Y-95567213D01*
X152212786Y-95711971D01*
X152333226Y-95799474D01*
X152378390Y-95832287D01*
X152494607Y-95891503D01*
X152560776Y-95925218D01*
X152560778Y-95925218D01*
X152560781Y-95925220D01*
X152651856Y-95954812D01*
X152755465Y-95988477D01*
X152856557Y-96004488D01*
X152957648Y-96020500D01*
X152957649Y-96020500D01*
X153162351Y-96020500D01*
X153162352Y-96020500D01*
X153364534Y-95988477D01*
X153559219Y-95925220D01*
X153741610Y-95832287D01*
X153870482Y-95738657D01*
X153907213Y-95711971D01*
X153907215Y-95711968D01*
X153907219Y-95711966D01*
X154051966Y-95567219D01*
X154051968Y-95567215D01*
X154051971Y-95567213D01*
X154172284Y-95401614D01*
X154172286Y-95401611D01*
X154172287Y-95401610D01*
X154219516Y-95308917D01*
X154267489Y-95258123D01*
X154335310Y-95241328D01*
X154401445Y-95263865D01*
X154440483Y-95308917D01*
X154448635Y-95324915D01*
X154487715Y-95401614D01*
X154608028Y-95567213D01*
X154752786Y-95711971D01*
X154918385Y-95832284D01*
X154918387Y-95832285D01*
X154918390Y-95832287D01*
X154949912Y-95848348D01*
X155000708Y-95896321D01*
X155017504Y-95964142D01*
X154994968Y-96030277D01*
X154981299Y-96046514D01*
X154048134Y-96979681D01*
X153986811Y-97013166D01*
X153960453Y-97016000D01*
X146627670Y-97016000D01*
X146627654Y-97015999D01*
X146620058Y-97015999D01*
X146461943Y-97015999D01*
X146385579Y-97036461D01*
X146309214Y-97056923D01*
X146309209Y-97056926D01*
X146172290Y-97135975D01*
X146172282Y-97135981D01*
X142495082Y-100813181D01*
X142433759Y-100846666D01*
X142407401Y-100849500D01*
X139759629Y-100849500D01*
X139759623Y-100849501D01*
X139700016Y-100855908D01*
X139565171Y-100906202D01*
X139565164Y-100906206D01*
X139449955Y-100992452D01*
X139449952Y-100992455D01*
X139363706Y-101107664D01*
X139363702Y-101107671D01*
X139313408Y-101242517D01*
X139307001Y-101302116D01*
X139307000Y-101302135D01*
X139307000Y-101647939D01*
X139287315Y-101714978D01*
X139234511Y-101760733D01*
X139165353Y-101770677D01*
X139101797Y-101741652D01*
X139084625Y-101723426D01*
X138934781Y-101528148D01*
X138934774Y-101528140D01*
X138749360Y-101342726D01*
X138749351Y-101342718D01*
X138541303Y-101183075D01*
X138314200Y-101051958D01*
X138314190Y-101051954D01*
X138104547Y-100965117D01*
X138050144Y-100921276D01*
X138028079Y-100854982D01*
X138028000Y-100850556D01*
X138028000Y-95412596D01*
X138047685Y-95345557D01*
X138064314Y-95324919D01*
X138847821Y-94541412D01*
X138909142Y-94507929D01*
X138978833Y-94512913D01*
G37*
%TD.AperFunction*%
%TA.AperFunction,Conductor*%
G36*
X151152607Y-88318040D02*
G01*
X151192869Y-88375143D01*
X151199500Y-88415151D01*
X151199500Y-90813330D01*
X151199499Y-90813348D01*
X151199499Y-90979054D01*
X151199498Y-90979054D01*
X151240423Y-91131785D01*
X151269358Y-91181900D01*
X151269359Y-91181904D01*
X151269360Y-91181904D01*
X151319479Y-91268714D01*
X151319481Y-91268717D01*
X151438349Y-91387585D01*
X151438355Y-91387590D01*
X153258898Y-93208133D01*
X153292383Y-93269456D01*
X153287399Y-93339148D01*
X153245527Y-93395081D01*
X153180063Y-93419498D01*
X153167224Y-93419452D01*
X153167224Y-93419500D01*
X153162352Y-93419500D01*
X152957648Y-93419500D01*
X152933329Y-93423351D01*
X152755465Y-93451522D01*
X152560776Y-93514781D01*
X152378386Y-93607715D01*
X152212786Y-93728028D01*
X152068028Y-93872786D01*
X151947713Y-94038388D01*
X151900203Y-94131630D01*
X151852228Y-94182426D01*
X151784407Y-94199220D01*
X151718272Y-94176682D01*
X151679234Y-94131628D01*
X151631861Y-94038652D01*
X151599474Y-93994077D01*
X151599474Y-93994076D01*
X150920000Y-94673551D01*
X150920000Y-94667339D01*
X150892741Y-94565606D01*
X150840080Y-94474394D01*
X150765606Y-94399920D01*
X150674394Y-94347259D01*
X150572661Y-94320000D01*
X150566446Y-94320000D01*
X151245922Y-93640524D01*
X151245921Y-93640523D01*
X151201359Y-93608147D01*
X151201350Y-93608141D01*
X151019031Y-93515244D01*
X150824417Y-93452009D01*
X150622317Y-93420000D01*
X150417683Y-93420000D01*
X150215582Y-93452009D01*
X150020968Y-93515244D01*
X149838644Y-93608143D01*
X149794077Y-93640523D01*
X149794077Y-93640524D01*
X150473554Y-94320000D01*
X150467339Y-94320000D01*
X150365606Y-94347259D01*
X150274394Y-94399920D01*
X150199920Y-94474394D01*
X150147259Y-94565606D01*
X150120000Y-94667339D01*
X150120000Y-94673553D01*
X149440524Y-93994077D01*
X149440523Y-93994077D01*
X149408143Y-94038644D01*
X149360485Y-94132180D01*
X149312510Y-94182976D01*
X149244689Y-94199771D01*
X149178554Y-94177233D01*
X149139515Y-94132180D01*
X149091859Y-94038650D01*
X149059474Y-93994077D01*
X149059474Y-93994076D01*
X148380000Y-94673551D01*
X148380000Y-94667339D01*
X148352741Y-94565606D01*
X148300080Y-94474394D01*
X148225606Y-94399920D01*
X148134394Y-94347259D01*
X148032661Y-94320000D01*
X148026446Y-94320000D01*
X148705922Y-93640524D01*
X148705921Y-93640523D01*
X148661359Y-93608147D01*
X148661350Y-93608141D01*
X148479031Y-93515244D01*
X148284417Y-93452009D01*
X148082317Y-93420000D01*
X147877683Y-93420000D01*
X147675582Y-93452009D01*
X147480968Y-93515244D01*
X147298644Y-93608143D01*
X147254077Y-93640523D01*
X147254077Y-93640524D01*
X147933554Y-94320000D01*
X147927339Y-94320000D01*
X147825606Y-94347259D01*
X147734394Y-94399920D01*
X147659920Y-94474394D01*
X147607259Y-94565606D01*
X147580000Y-94667339D01*
X147580000Y-94673553D01*
X146900524Y-93994077D01*
X146900523Y-93994077D01*
X146868143Y-94038644D01*
X146820765Y-94131630D01*
X146772790Y-94182426D01*
X146704969Y-94199221D01*
X146638834Y-94176683D01*
X146599795Y-94131630D01*
X146593865Y-94119992D01*
X146552287Y-94038390D01*
X146552285Y-94038387D01*
X146552284Y-94038385D01*
X146431971Y-93872786D01*
X146287213Y-93728028D01*
X146121613Y-93607715D01*
X146121612Y-93607714D01*
X146121610Y-93607713D01*
X146061898Y-93577288D01*
X145939223Y-93514781D01*
X145744534Y-93451522D01*
X145569995Y-93423878D01*
X145542352Y-93419500D01*
X145349096Y-93419500D01*
X145282057Y-93399815D01*
X145236302Y-93347011D01*
X145226358Y-93277853D01*
X145255383Y-93214297D01*
X145261415Y-93207819D01*
X146111906Y-92357328D01*
X149780520Y-88688716D01*
X149859577Y-88551785D01*
X149899575Y-88402512D01*
X149935938Y-88342856D01*
X149998785Y-88312327D01*
X150057667Y-88316679D01*
X150215582Y-88367990D01*
X150417683Y-88400000D01*
X150622317Y-88400000D01*
X150824417Y-88367990D01*
X151019031Y-88304755D01*
X151019196Y-88304671D01*
X151019268Y-88304657D01*
X151023536Y-88302890D01*
X151023907Y-88303785D01*
X151087865Y-88291769D01*
X151152607Y-88318040D01*
G37*
%TD.AperFunction*%
%TA.AperFunction,Conductor*%
G36*
X147580000Y-87152661D02*
G01*
X147607259Y-87254394D01*
X147659920Y-87345606D01*
X147734394Y-87420080D01*
X147825606Y-87472741D01*
X147927339Y-87500000D01*
X147933552Y-87500000D01*
X147254076Y-88179474D01*
X147298650Y-88211859D01*
X147480968Y-88304755D01*
X147675582Y-88367990D01*
X147877683Y-88400000D01*
X148071401Y-88400000D01*
X148138440Y-88419685D01*
X148184195Y-88472489D01*
X148194139Y-88541647D01*
X148165114Y-88605203D01*
X148159082Y-88611681D01*
X143344842Y-93425921D01*
X143283519Y-93459406D01*
X143218848Y-93456173D01*
X143204534Y-93451522D01*
X143029995Y-93423878D01*
X143002352Y-93419500D01*
X142797648Y-93419500D01*
X142773329Y-93423351D01*
X142595465Y-93451522D01*
X142400776Y-93514781D01*
X142218386Y-93607715D01*
X142052786Y-93728028D01*
X141908032Y-93872782D01*
X141908028Y-93872787D01*
X141839978Y-93966451D01*
X141784648Y-94009117D01*
X141715035Y-94015096D01*
X141653240Y-93982490D01*
X141621954Y-93932570D01*
X141602144Y-93872787D01*
X141594814Y-93850666D01*
X141502712Y-93701344D01*
X141378656Y-93577288D01*
X141229334Y-93485186D01*
X141062797Y-93430001D01*
X141062795Y-93430000D01*
X140960016Y-93419500D01*
X140960009Y-93419500D01*
X140269096Y-93419500D01*
X140202057Y-93399815D01*
X140156302Y-93347011D01*
X140146358Y-93277853D01*
X140175383Y-93214297D01*
X140181415Y-93207819D01*
X142575904Y-90813330D01*
X144995158Y-88394075D01*
X145056479Y-88360592D01*
X145121151Y-88363825D01*
X145135466Y-88368477D01*
X145337648Y-88400500D01*
X145337649Y-88400500D01*
X145542351Y-88400500D01*
X145542352Y-88400500D01*
X145744534Y-88368477D01*
X145939219Y-88305220D01*
X145940297Y-88304671D01*
X145965618Y-88291769D01*
X146121610Y-88212287D01*
X146214590Y-88144732D01*
X146287213Y-88091971D01*
X146287215Y-88091968D01*
X146287219Y-88091966D01*
X146431966Y-87947219D01*
X146431968Y-87947215D01*
X146431971Y-87947213D01*
X146552286Y-87781611D01*
X146552415Y-87781359D01*
X146599795Y-87688369D01*
X146647769Y-87637573D01*
X146715590Y-87620778D01*
X146781725Y-87643315D01*
X146820765Y-87688369D01*
X146868141Y-87781350D01*
X146868147Y-87781359D01*
X146900523Y-87825921D01*
X146900524Y-87825922D01*
X147580000Y-87146446D01*
X147580000Y-87152661D01*
G37*
%TD.AperFunction*%
%TA.AperFunction,Conductor*%
G36*
X148071445Y-83995122D02*
G01*
X148110485Y-84040176D01*
X148144951Y-84107820D01*
X148269890Y-84279786D01*
X148420213Y-84430109D01*
X148592184Y-84555051D01*
X148592184Y-84555052D01*
X148631793Y-84575233D01*
X148682590Y-84623206D01*
X148699500Y-84685718D01*
X148699500Y-85805229D01*
X148679815Y-85872268D01*
X148627011Y-85918023D01*
X148557853Y-85927967D01*
X148519206Y-85915714D01*
X148479034Y-85895245D01*
X148284417Y-85832009D01*
X148082317Y-85800000D01*
X147877683Y-85800000D01*
X147675582Y-85832009D01*
X147480968Y-85895244D01*
X147298644Y-85988143D01*
X147254077Y-86020523D01*
X147254077Y-86020524D01*
X147933553Y-86700000D01*
X147927339Y-86700000D01*
X147825606Y-86727259D01*
X147734394Y-86779920D01*
X147659920Y-86854394D01*
X147607259Y-86945606D01*
X147580000Y-87047339D01*
X147580000Y-87053553D01*
X146900524Y-86374077D01*
X146900523Y-86374077D01*
X146868143Y-86418644D01*
X146820765Y-86511630D01*
X146772790Y-86562426D01*
X146704969Y-86579221D01*
X146638834Y-86556683D01*
X146599795Y-86511630D01*
X146569667Y-86452500D01*
X146552287Y-86418390D01*
X146552285Y-86418387D01*
X146552284Y-86418385D01*
X146431971Y-86252786D01*
X146287213Y-86108028D01*
X146121613Y-85987715D01*
X146121612Y-85987714D01*
X146121610Y-85987713D01*
X146064653Y-85958691D01*
X145939223Y-85894781D01*
X145744534Y-85831522D01*
X145569995Y-85803878D01*
X145542352Y-85799500D01*
X145449096Y-85799500D01*
X145382057Y-85779815D01*
X145336302Y-85727011D01*
X145326358Y-85657853D01*
X145355383Y-85594297D01*
X145361415Y-85587819D01*
X145621734Y-85327500D01*
X146215478Y-84733755D01*
X146276799Y-84700272D01*
X146341473Y-84703506D01*
X146383757Y-84717246D01*
X146593713Y-84750500D01*
X146593714Y-84750500D01*
X146806286Y-84750500D01*
X146806287Y-84750500D01*
X147016243Y-84717246D01*
X147218412Y-84651557D01*
X147407816Y-84555051D01*
X147484031Y-84499678D01*
X147579786Y-84430109D01*
X147579788Y-84430106D01*
X147579792Y-84430104D01*
X147730104Y-84279792D01*
X147730106Y-84279788D01*
X147730109Y-84279786D01*
X147855048Y-84107820D01*
X147855047Y-84107820D01*
X147855051Y-84107816D01*
X147889515Y-84040175D01*
X147937489Y-83989380D01*
X148005310Y-83972585D01*
X148071445Y-83995122D01*
G37*
%TD.AperFunction*%
%TA.AperFunction,Conductor*%
G36*
X150567384Y-84067182D02*
G01*
X150574624Y-84066561D01*
X150599505Y-84079689D01*
X150625721Y-84089896D01*
X150632951Y-84097336D01*
X150636420Y-84099166D01*
X150650313Y-84115199D01*
X150753278Y-84256919D01*
X150769896Y-84279792D01*
X150920213Y-84430109D01*
X151092184Y-84555051D01*
X151092184Y-84555052D01*
X151131793Y-84575233D01*
X151182590Y-84623206D01*
X151199500Y-84685718D01*
X151199500Y-85784849D01*
X151179815Y-85851888D01*
X151127011Y-85897643D01*
X151057853Y-85907587D01*
X151023678Y-85896752D01*
X151023531Y-85897109D01*
X151019373Y-85895387D01*
X151019206Y-85895334D01*
X151019034Y-85895246D01*
X151019027Y-85895243D01*
X150824417Y-85832009D01*
X150622317Y-85800000D01*
X150417683Y-85800000D01*
X150215581Y-85832010D01*
X150215578Y-85832010D01*
X150062818Y-85881646D01*
X149992977Y-85883641D01*
X149933144Y-85847561D01*
X149902316Y-85784860D01*
X149900500Y-85763715D01*
X149900500Y-84685718D01*
X149920185Y-84618679D01*
X149968207Y-84575233D01*
X150007815Y-84555052D01*
X150007815Y-84555051D01*
X150007816Y-84555051D01*
X150099193Y-84488661D01*
X150179786Y-84430109D01*
X150179788Y-84430106D01*
X150179792Y-84430104D01*
X150330104Y-84279792D01*
X150449683Y-84115204D01*
X150471961Y-84098025D01*
X150492134Y-84078421D01*
X150499255Y-84076977D01*
X150505011Y-84072540D01*
X150533040Y-84070132D01*
X150560612Y-84064546D01*
X150567384Y-84067182D01*
G37*
%TD.AperFunction*%
%TA.AperFunction,Conductor*%
G36*
X187061539Y-41901185D02*
G01*
X187107294Y-41953989D01*
X187118500Y-42005500D01*
X187118500Y-109994500D01*
X187098815Y-110061539D01*
X187046011Y-110107294D01*
X186994500Y-110118500D01*
X92005500Y-110118500D01*
X91938461Y-110098815D01*
X91892706Y-110046011D01*
X91881500Y-109994500D01*
X91881500Y-90842572D01*
X123215000Y-90842572D01*
X123215000Y-90850000D01*
X124135440Y-90850000D01*
X124104755Y-90903147D01*
X124070000Y-91032857D01*
X124070000Y-91167143D01*
X124104755Y-91296853D01*
X124135440Y-91350000D01*
X123215000Y-91350000D01*
X123215000Y-91357427D01*
X123248611Y-91569639D01*
X123248611Y-91569642D01*
X123315003Y-91773975D01*
X123412547Y-91965416D01*
X123538838Y-92139240D01*
X123690759Y-92291161D01*
X123864583Y-92417452D01*
X124056024Y-92514996D01*
X124260359Y-92581388D01*
X124329999Y-92592418D01*
X124330000Y-92592418D01*
X124330000Y-91544560D01*
X124383147Y-91575245D01*
X124512857Y-91610000D01*
X124647143Y-91610000D01*
X124776853Y-91575245D01*
X124830000Y-91544560D01*
X124830000Y-92592418D01*
X124899638Y-92581388D01*
X124899641Y-92581388D01*
X125103975Y-92514996D01*
X125295416Y-92417452D01*
X125469240Y-92291161D01*
X125621161Y-92139240D01*
X125621166Y-92139234D01*
X125749373Y-91962773D01*
X125804703Y-91920107D01*
X125874316Y-91914128D01*
X125936111Y-91946734D01*
X125950009Y-91962772D01*
X125952119Y-91965676D01*
X125952120Y-91965678D01*
X126078455Y-92139563D01*
X126230437Y-92291545D01*
X126404322Y-92417880D01*
X126455198Y-92443803D01*
X126482934Y-92457935D01*
X126533730Y-92505910D01*
X126550525Y-92573731D01*
X126527987Y-92639866D01*
X126514321Y-92656101D01*
X126455643Y-92714779D01*
X126455641Y-92714782D01*
X126362043Y-92854861D01*
X126297569Y-93010517D01*
X126297567Y-93010523D01*
X126264700Y-93175757D01*
X126264700Y-93175760D01*
X126264700Y-93344240D01*
X126264700Y-93344242D01*
X126264699Y-93344242D01*
X126297567Y-93509476D01*
X126297569Y-93509482D01*
X126362043Y-93665138D01*
X126455641Y-93805217D01*
X126455647Y-93805225D01*
X126574774Y-93924352D01*
X126574782Y-93924358D01*
X126714861Y-94017956D01*
X126760451Y-94036840D01*
X126870518Y-94082431D01*
X126870522Y-94082431D01*
X126870523Y-94082432D01*
X127035757Y-94115300D01*
X127035760Y-94115300D01*
X127204242Y-94115300D01*
X127315409Y-94093186D01*
X127369482Y-94082431D01*
X127525136Y-94017957D01*
X127525136Y-94017956D01*
X127525138Y-94017956D01*
X127652927Y-93932570D01*
X127665222Y-93924355D01*
X127784355Y-93805222D01*
X127877957Y-93665136D01*
X127942431Y-93509482D01*
X127958241Y-93430000D01*
X127975300Y-93344242D01*
X127975300Y-93175757D01*
X127942432Y-93010523D01*
X127942431Y-93010522D01*
X127942431Y-93010518D01*
X127877957Y-92854864D01*
X127877956Y-92854861D01*
X127784358Y-92714782D01*
X127784352Y-92714774D01*
X127725679Y-92656101D01*
X127692194Y-92594778D01*
X127697178Y-92525086D01*
X127739050Y-92469153D01*
X127757065Y-92457935D01*
X127835678Y-92417880D01*
X128009563Y-92291545D01*
X128161545Y-92139563D01*
X128287880Y-91965678D01*
X128287879Y-91965678D01*
X128289682Y-91963198D01*
X128345012Y-91920532D01*
X128414625Y-91914553D01*
X128476420Y-91947159D01*
X128490318Y-91963198D01*
X128492120Y-91965678D01*
X128618455Y-92139563D01*
X128770437Y-92291545D01*
X128944322Y-92417880D01*
X129022935Y-92457935D01*
X129135829Y-92515458D01*
X129135832Y-92515459D01*
X129315177Y-92573731D01*
X129340245Y-92581876D01*
X129552533Y-92615500D01*
X129552534Y-92615500D01*
X129767466Y-92615500D01*
X129767467Y-92615500D01*
X129979755Y-92581876D01*
X129979758Y-92581875D01*
X129979759Y-92581875D01*
X130184167Y-92515459D01*
X130184170Y-92515458D01*
X130202909Y-92505910D01*
X130375678Y-92417880D01*
X130549563Y-92291545D01*
X130644092Y-92197015D01*
X130705411Y-92163533D01*
X130775103Y-92168517D01*
X130831037Y-92210388D01*
X130847952Y-92241366D01*
X130891202Y-92357328D01*
X130891206Y-92357335D01*
X130977452Y-92472544D01*
X130977455Y-92472547D01*
X131092664Y-92558793D01*
X131092671Y-92558797D01*
X131227517Y-92609091D01*
X131227516Y-92609091D01*
X131234444Y-92609835D01*
X131287127Y-92615500D01*
X133112872Y-92615499D01*
X133172483Y-92609091D01*
X133307331Y-92558796D01*
X133422546Y-92472546D01*
X133508796Y-92357331D01*
X133559091Y-92222483D01*
X133565500Y-92162873D01*
X133565499Y-90037128D01*
X133559091Y-89977517D01*
X133533475Y-89908838D01*
X133508797Y-89842671D01*
X133508793Y-89842664D01*
X133422547Y-89727455D01*
X133422544Y-89727452D01*
X133307335Y-89641206D01*
X133307328Y-89641202D01*
X133172482Y-89590908D01*
X133172483Y-89590908D01*
X133112883Y-89584501D01*
X133112881Y-89584500D01*
X133112873Y-89584500D01*
X133112864Y-89584500D01*
X131287129Y-89584500D01*
X131287123Y-89584501D01*
X131227516Y-89590908D01*
X131092671Y-89641202D01*
X131092664Y-89641206D01*
X130977455Y-89727452D01*
X130977452Y-89727455D01*
X130891206Y-89842664D01*
X130891202Y-89842671D01*
X130847952Y-89958633D01*
X130806081Y-90014567D01*
X130740617Y-90038984D01*
X130672344Y-90024133D01*
X130644089Y-90002981D01*
X130549565Y-89908457D01*
X130549563Y-89908455D01*
X130375678Y-89782120D01*
X130184170Y-89684541D01*
X130184167Y-89684540D01*
X129979757Y-89618124D01*
X129838229Y-89595708D01*
X129767467Y-89584500D01*
X129552533Y-89584500D01*
X129481770Y-89595708D01*
X129340243Y-89618124D01*
X129340240Y-89618124D01*
X129135832Y-89684540D01*
X129135829Y-89684541D01*
X128944321Y-89782120D01*
X128860981Y-89842671D01*
X128770437Y-89908455D01*
X128770435Y-89908457D01*
X128770434Y-89908457D01*
X128618457Y-90060434D01*
X128618457Y-90060435D01*
X128618455Y-90060437D01*
X128521023Y-90194539D01*
X128490318Y-90236802D01*
X128434988Y-90279467D01*
X128365374Y-90285446D01*
X128303579Y-90252840D01*
X128289682Y-90236802D01*
X128276836Y-90219121D01*
X128161545Y-90060437D01*
X128009563Y-89908455D01*
X127835678Y-89782120D01*
X127644170Y-89684541D01*
X127644167Y-89684540D01*
X127439757Y-89618124D01*
X127298229Y-89595708D01*
X127227467Y-89584500D01*
X127012533Y-89584500D01*
X126941770Y-89595708D01*
X126800243Y-89618124D01*
X126800240Y-89618124D01*
X126595832Y-89684540D01*
X126595829Y-89684541D01*
X126404321Y-89782120D01*
X126320981Y-89842671D01*
X126230437Y-89908455D01*
X126230435Y-89908457D01*
X126230434Y-89908457D01*
X126078457Y-90060434D01*
X126078457Y-90060435D01*
X126078455Y-90060437D01*
X126003589Y-90163480D01*
X125950009Y-90237227D01*
X125894679Y-90279892D01*
X125825065Y-90285871D01*
X125763270Y-90253265D01*
X125749373Y-90237227D01*
X125621161Y-90060759D01*
X125469240Y-89908838D01*
X125295416Y-89782547D01*
X125103975Y-89685003D01*
X124899635Y-89618610D01*
X124899636Y-89618610D01*
X124830000Y-89607581D01*
X124830000Y-90655439D01*
X124776853Y-90624755D01*
X124647143Y-90590000D01*
X124512857Y-90590000D01*
X124383147Y-90624755D01*
X124330000Y-90655439D01*
X124330000Y-89607581D01*
X124260364Y-89618610D01*
X124056024Y-89685003D01*
X123864583Y-89782547D01*
X123690759Y-89908838D01*
X123538838Y-90060759D01*
X123412547Y-90234583D01*
X123315003Y-90426024D01*
X123248611Y-90630357D01*
X123248611Y-90630360D01*
X123215000Y-90842572D01*
X91881500Y-90842572D01*
X91881500Y-81802686D01*
X125124500Y-81802686D01*
X125124500Y-82083549D01*
X125155942Y-82362612D01*
X125155945Y-82362630D01*
X125218439Y-82636435D01*
X125218443Y-82636447D01*
X125311200Y-82901529D01*
X125433053Y-83154560D01*
X125433055Y-83154563D01*
X125582477Y-83392366D01*
X125757584Y-83611943D01*
X125956175Y-83810534D01*
X126175752Y-83985641D01*
X126413555Y-84135063D01*
X126666592Y-84256919D01*
X126838871Y-84317202D01*
X126931670Y-84349674D01*
X126931682Y-84349678D01*
X127205491Y-84412173D01*
X127205497Y-84412173D01*
X127205505Y-84412175D01*
X127364634Y-84430104D01*
X127484569Y-84443617D01*
X127484572Y-84443618D01*
X127484575Y-84443618D01*
X127765428Y-84443618D01*
X127765429Y-84443617D01*
X127908055Y-84427547D01*
X128044494Y-84412175D01*
X128044499Y-84412174D01*
X128044509Y-84412173D01*
X128318318Y-84349678D01*
X128583408Y-84256919D01*
X128836445Y-84135063D01*
X129074248Y-83985641D01*
X129293825Y-83810534D01*
X129492416Y-83611943D01*
X129667523Y-83392366D01*
X129792345Y-83193713D01*
X130249500Y-83193713D01*
X130249500Y-83406286D01*
X130282072Y-83611942D01*
X130282754Y-83616243D01*
X130345883Y-83810534D01*
X130348444Y-83818414D01*
X130444951Y-84007820D01*
X130569890Y-84179786D01*
X130720213Y-84330109D01*
X130892179Y-84455048D01*
X130892181Y-84455049D01*
X130892184Y-84455051D01*
X131081588Y-84551557D01*
X131283757Y-84617246D01*
X131493713Y-84650500D01*
X131493714Y-84650500D01*
X131706286Y-84650500D01*
X131706287Y-84650500D01*
X131916243Y-84617246D01*
X132118412Y-84551557D01*
X132307816Y-84455051D01*
X132366833Y-84412173D01*
X132479786Y-84330109D01*
X132479788Y-84330106D01*
X132479792Y-84330104D01*
X132630104Y-84179792D01*
X132699682Y-84084024D01*
X132755011Y-84041360D01*
X132824624Y-84035381D01*
X132886420Y-84067986D01*
X132900315Y-84084021D01*
X132937819Y-84135641D01*
X132969896Y-84179792D01*
X133120213Y-84330109D01*
X133292179Y-84455048D01*
X133292181Y-84455049D01*
X133292184Y-84455051D01*
X133481588Y-84551557D01*
X133683757Y-84617246D01*
X133893713Y-84650500D01*
X133893714Y-84650500D01*
X134106286Y-84650500D01*
X134106287Y-84650500D01*
X134316243Y-84617246D01*
X134518412Y-84551557D01*
X134707816Y-84455051D01*
X134766833Y-84412173D01*
X134879786Y-84330109D01*
X134879788Y-84330106D01*
X134879792Y-84330104D01*
X135030104Y-84179792D01*
X135030106Y-84179788D01*
X135030109Y-84179786D01*
X135155048Y-84007820D01*
X135155047Y-84007820D01*
X135155051Y-84007816D01*
X135189515Y-83940175D01*
X135237489Y-83889380D01*
X135305310Y-83872585D01*
X135371445Y-83895122D01*
X135410485Y-83940176D01*
X135444951Y-84007820D01*
X135569890Y-84179786D01*
X135720213Y-84330109D01*
X135892179Y-84455048D01*
X135892181Y-84455049D01*
X135892184Y-84455051D01*
X136081588Y-84551557D01*
X136283757Y-84617246D01*
X136493713Y-84650500D01*
X136493714Y-84650500D01*
X136706286Y-84650500D01*
X136706287Y-84650500D01*
X136916243Y-84617246D01*
X137118412Y-84551557D01*
X137307816Y-84455051D01*
X137366833Y-84412173D01*
X137479786Y-84330109D01*
X137479788Y-84330106D01*
X137479792Y-84330104D01*
X137630104Y-84179792D01*
X137749683Y-84015204D01*
X137805011Y-83972540D01*
X137874624Y-83966561D01*
X137936420Y-83999166D01*
X137950313Y-84015199D01*
X138037819Y-84135641D01*
X138069896Y-84179792D01*
X138220213Y-84330109D01*
X138392179Y-84455048D01*
X138392181Y-84455049D01*
X138392184Y-84455051D01*
X138581588Y-84551557D01*
X138783757Y-84617246D01*
X138993713Y-84650500D01*
X138993714Y-84650500D01*
X139206286Y-84650500D01*
X139206287Y-84650500D01*
X139416243Y-84617246D01*
X139618412Y-84551557D01*
X139807816Y-84455051D01*
X139866833Y-84412173D01*
X139979786Y-84330109D01*
X139979788Y-84330106D01*
X139979792Y-84330104D01*
X140130104Y-84179792D01*
X140199682Y-84084024D01*
X140255011Y-84041360D01*
X140324624Y-84035381D01*
X140386420Y-84067986D01*
X140400315Y-84084021D01*
X140437819Y-84135641D01*
X140469896Y-84179792D01*
X140620213Y-84330109D01*
X140792179Y-84455048D01*
X140792181Y-84455049D01*
X140792184Y-84455051D01*
X140981588Y-84551557D01*
X141183757Y-84617246D01*
X141393713Y-84650500D01*
X141393714Y-84650500D01*
X141606283Y-84650500D01*
X141606287Y-84650500D01*
X141649948Y-84643584D01*
X141719237Y-84652538D01*
X141772690Y-84697533D01*
X141793331Y-84764284D01*
X141774607Y-84831598D01*
X141757025Y-84853738D01*
X140804842Y-85805921D01*
X140743519Y-85839406D01*
X140678848Y-85836173D01*
X140664534Y-85831522D01*
X140489995Y-85803878D01*
X140462352Y-85799500D01*
X140257648Y-85799500D01*
X140233329Y-85803351D01*
X140055465Y-85831522D01*
X139860776Y-85894781D01*
X139678386Y-85987715D01*
X139512786Y-86108028D01*
X139368028Y-86252786D01*
X139247715Y-86418386D01*
X139154781Y-86600776D01*
X139091522Y-86795465D01*
X139059500Y-86997648D01*
X139059500Y-87202351D01*
X139091522Y-87404534D01*
X139154781Y-87599223D01*
X139215561Y-87718509D01*
X139247585Y-87781359D01*
X139247715Y-87781613D01*
X139368028Y-87947213D01*
X139512786Y-88091971D01*
X139633226Y-88179474D01*
X139678390Y-88212287D01*
X139734629Y-88240942D01*
X139860776Y-88305218D01*
X139860778Y-88305218D01*
X139860781Y-88305220D01*
X139965137Y-88339127D01*
X140055465Y-88368477D01*
X140156557Y-88384488D01*
X140257648Y-88400500D01*
X140257649Y-88400500D01*
X140462351Y-88400500D01*
X140462352Y-88400500D01*
X140664534Y-88368477D01*
X140859219Y-88305220D01*
X140860297Y-88304671D01*
X140885618Y-88291769D01*
X141041610Y-88212287D01*
X141134590Y-88144732D01*
X141207213Y-88091971D01*
X141207215Y-88091968D01*
X141207219Y-88091966D01*
X141351966Y-87947219D01*
X141351968Y-87947215D01*
X141351971Y-87947213D01*
X141472284Y-87781614D01*
X141472286Y-87781611D01*
X141472287Y-87781610D01*
X141519516Y-87688917D01*
X141567489Y-87638123D01*
X141635310Y-87621328D01*
X141701445Y-87643865D01*
X141740483Y-87688917D01*
X141784348Y-87775006D01*
X141787715Y-87781614D01*
X141908028Y-87947213D01*
X142052786Y-88091971D01*
X142173226Y-88179474D01*
X142218390Y-88212287D01*
X142274629Y-88240942D01*
X142400776Y-88305218D01*
X142400778Y-88305218D01*
X142400781Y-88305220D01*
X142505137Y-88339127D01*
X142595465Y-88368477D01*
X142696557Y-88384488D01*
X142797648Y-88400500D01*
X142797649Y-88400500D01*
X142990902Y-88400500D01*
X143057941Y-88420185D01*
X143103696Y-88472989D01*
X143113640Y-88542147D01*
X143084615Y-88605703D01*
X143078583Y-88612181D01*
X136946981Y-94743782D01*
X136946980Y-94743784D01*
X136901619Y-94822352D01*
X136867923Y-94880715D01*
X136826999Y-95033443D01*
X136826999Y-95033445D01*
X136826999Y-95201546D01*
X136827000Y-95201559D01*
X136827000Y-100850556D01*
X136807315Y-100917595D01*
X136754511Y-100963350D01*
X136750453Y-100965117D01*
X136540809Y-101051954D01*
X136540799Y-101051958D01*
X136313696Y-101183075D01*
X136105648Y-101342718D01*
X135920218Y-101528148D01*
X135760575Y-101736196D01*
X135629458Y-101963299D01*
X135629453Y-101963309D01*
X135529105Y-102205571D01*
X135529102Y-102205581D01*
X135473310Y-102413803D01*
X135461230Y-102458885D01*
X135427000Y-102718872D01*
X135427000Y-102981127D01*
X135450228Y-103157547D01*
X135461230Y-103241116D01*
X135477142Y-103300499D01*
X135529102Y-103494418D01*
X135529105Y-103494428D01*
X135629453Y-103736690D01*
X135629458Y-103736700D01*
X135760575Y-103963803D01*
X135920218Y-104171851D01*
X135920226Y-104171860D01*
X136105640Y-104357274D01*
X136105648Y-104357281D01*
X136313696Y-104516924D01*
X136540799Y-104648041D01*
X136540809Y-104648046D01*
X136783071Y-104748394D01*
X136783081Y-104748398D01*
X137036384Y-104816270D01*
X137284688Y-104848960D01*
X137296364Y-104850498D01*
X137296380Y-104850500D01*
X137296387Y-104850500D01*
X137558613Y-104850500D01*
X137558620Y-104850500D01*
X137818616Y-104816270D01*
X138071919Y-104748398D01*
X138314197Y-104648043D01*
X138541303Y-104516924D01*
X138749351Y-104357282D01*
X138749355Y-104357277D01*
X138749360Y-104357274D01*
X138934773Y-104171860D01*
X138934782Y-104171851D01*
X139084628Y-103976568D01*
X139141052Y-103935370D01*
X139210798Y-103931215D01*
X139271719Y-103965427D01*
X139304471Y-104027145D01*
X139307000Y-104052059D01*
X139307000Y-104397869D01*
X139307001Y-104397876D01*
X139313408Y-104457483D01*
X139363702Y-104592328D01*
X139363706Y-104592335D01*
X139449952Y-104707544D01*
X139449955Y-104707547D01*
X139565164Y-104793793D01*
X139565171Y-104793797D01*
X139700017Y-104844091D01*
X139700016Y-104844091D01*
X139706944Y-104844835D01*
X139759627Y-104850500D01*
X142855372Y-104850499D01*
X142914983Y-104844091D01*
X143049831Y-104793796D01*
X143165046Y-104707546D01*
X143251296Y-104592331D01*
X143301591Y-104457483D01*
X143308000Y-104397873D01*
X143307999Y-101750096D01*
X143327684Y-101683058D01*
X143344313Y-101662421D01*
X145254600Y-99752135D01*
X151319500Y-99752135D01*
X151319500Y-102847870D01*
X151319501Y-102847876D01*
X151325908Y-102907483D01*
X151376202Y-103042328D01*
X151376206Y-103042335D01*
X151462452Y-103157544D01*
X151462455Y-103157547D01*
X151577664Y-103243793D01*
X151577671Y-103243797D01*
X151712517Y-103294091D01*
X151712516Y-103294091D01*
X151719444Y-103294835D01*
X151772127Y-103300500D01*
X154867872Y-103300499D01*
X154927483Y-103294091D01*
X155062331Y-103243796D01*
X155177546Y-103157546D01*
X155263796Y-103042331D01*
X155314091Y-102907483D01*
X155320500Y-102847873D01*
X155320499Y-102502057D01*
X155340183Y-102435021D01*
X155392987Y-102389266D01*
X155462146Y-102379322D01*
X155525701Y-102408347D01*
X155542874Y-102426573D01*
X155692718Y-102621851D01*
X155692726Y-102621860D01*
X155878140Y-102807274D01*
X155878148Y-102807281D01*
X156086196Y-102966924D01*
X156313299Y-103098041D01*
X156313309Y-103098046D01*
X156555571Y-103198394D01*
X156555581Y-103198398D01*
X156808884Y-103266270D01*
X157057188Y-103298960D01*
X157068864Y-103300498D01*
X157068880Y-103300500D01*
X157068887Y-103300500D01*
X157331113Y-103300500D01*
X157331120Y-103300500D01*
X157591116Y-103266270D01*
X157844419Y-103198398D01*
X158086697Y-103098043D01*
X158313803Y-102966924D01*
X158521851Y-102807282D01*
X158521855Y-102807277D01*
X158521860Y-102807274D01*
X158707274Y-102621860D01*
X158707277Y-102621855D01*
X158707282Y-102621851D01*
X158866924Y-102413803D01*
X158998043Y-102186697D01*
X159098398Y-101944419D01*
X159166270Y-101691116D01*
X159200500Y-101431120D01*
X159200500Y-101168880D01*
X159166270Y-100908884D01*
X159098398Y-100655581D01*
X159079501Y-100609959D01*
X158998046Y-100413309D01*
X158998041Y-100413299D01*
X158866924Y-100186196D01*
X158707281Y-99978148D01*
X158707274Y-99978140D01*
X158521860Y-99792726D01*
X158521851Y-99792718D01*
X158313803Y-99633075D01*
X158086700Y-99501958D01*
X158086690Y-99501953D01*
X157844428Y-99401605D01*
X157844421Y-99401603D01*
X157844419Y-99401602D01*
X157591116Y-99333730D01*
X157533339Y-99326123D01*
X157331127Y-99299500D01*
X157331120Y-99299500D01*
X157068880Y-99299500D01*
X157068872Y-99299500D01*
X156837772Y-99329926D01*
X156808884Y-99333730D01*
X156555581Y-99401602D01*
X156555571Y-99401605D01*
X156313309Y-99501953D01*
X156313299Y-99501958D01*
X156086196Y-99633075D01*
X155878148Y-99792718D01*
X155692718Y-99978148D01*
X155542874Y-100173427D01*
X155486446Y-100214629D01*
X155416700Y-100218784D01*
X155355780Y-100184571D01*
X155323028Y-100122854D01*
X155320499Y-100097940D01*
X155320499Y-99752129D01*
X155320498Y-99752123D01*
X155320497Y-99752116D01*
X155314091Y-99692517D01*
X155263796Y-99557669D01*
X155263795Y-99557668D01*
X155263793Y-99557664D01*
X155177547Y-99442455D01*
X155177544Y-99442452D01*
X155062335Y-99356206D01*
X155062328Y-99356202D01*
X154927482Y-99305908D01*
X154927483Y-99305908D01*
X154867883Y-99299501D01*
X154867881Y-99299500D01*
X154867873Y-99299500D01*
X154867864Y-99299500D01*
X151772129Y-99299500D01*
X151772123Y-99299501D01*
X151712516Y-99305908D01*
X151577671Y-99356202D01*
X151577664Y-99356206D01*
X151462455Y-99442452D01*
X151462452Y-99442455D01*
X151376206Y-99557664D01*
X151376202Y-99557671D01*
X151325908Y-99692517D01*
X151319501Y-99752116D01*
X151319501Y-99752123D01*
X151319500Y-99752135D01*
X145254600Y-99752135D01*
X146753417Y-98253319D01*
X146814740Y-98219834D01*
X146841098Y-98217000D01*
X154173881Y-98217000D01*
X154173897Y-98217001D01*
X154181493Y-98217001D01*
X154339604Y-98217001D01*
X154339607Y-98217001D01*
X154492335Y-98176077D01*
X154542454Y-98147139D01*
X154629266Y-98097020D01*
X154741070Y-97985216D01*
X154741070Y-97985214D01*
X154751278Y-97975007D01*
X154751280Y-97975004D01*
X157062698Y-95663585D01*
X157065883Y-95660402D01*
X157092803Y-95645707D01*
X157091727Y-95643555D01*
X157091735Y-95643551D01*
X157092811Y-95645703D01*
X157096483Y-95643699D01*
X157127173Y-95626935D01*
X157127193Y-95626936D01*
X157127211Y-95626927D01*
X157161033Y-95629351D01*
X157196865Y-95631908D01*
X157196884Y-95631920D01*
X157196902Y-95631922D01*
X157196993Y-95631990D01*
X157241231Y-95660416D01*
X157292786Y-95711971D01*
X157413226Y-95799474D01*
X157458390Y-95832287D01*
X157574607Y-95891503D01*
X157640776Y-95925218D01*
X157640778Y-95925218D01*
X157640781Y-95925220D01*
X157731856Y-95954812D01*
X157835465Y-95988477D01*
X157936557Y-96004488D01*
X158037648Y-96020500D01*
X158037649Y-96020500D01*
X158242351Y-96020500D01*
X158242352Y-96020500D01*
X158444534Y-95988477D01*
X158639219Y-95925220D01*
X158821610Y-95832287D01*
X158950482Y-95738657D01*
X158987213Y-95711971D01*
X158987215Y-95711968D01*
X158987219Y-95711966D01*
X159131966Y-95567219D01*
X159131968Y-95567215D01*
X159131971Y-95567213D01*
X159200021Y-95473548D01*
X159252287Y-95401610D01*
X159345220Y-95219219D01*
X159408477Y-95024534D01*
X159440500Y-94822352D01*
X159440500Y-94617648D01*
X159423122Y-94507929D01*
X159408477Y-94415465D01*
X159377458Y-94320000D01*
X159345220Y-94220781D01*
X159345218Y-94220778D01*
X159345218Y-94220776D01*
X159293865Y-94119992D01*
X159252287Y-94038390D01*
X159220092Y-93994077D01*
X159131971Y-93872786D01*
X158987213Y-93728028D01*
X158821613Y-93607715D01*
X158821612Y-93607714D01*
X158821610Y-93607713D01*
X158761898Y-93577288D01*
X158639223Y-93514781D01*
X158444534Y-93451522D01*
X158269995Y-93423878D01*
X158242352Y-93419500D01*
X158037648Y-93419500D01*
X158013329Y-93423351D01*
X157835465Y-93451522D01*
X157683759Y-93500815D01*
X157640781Y-93514780D01*
X157640778Y-93514781D01*
X157640776Y-93514782D01*
X157481795Y-93595787D01*
X157413125Y-93608683D01*
X157348385Y-93582407D01*
X157308128Y-93525300D01*
X157301500Y-93485302D01*
X157301500Y-90830060D01*
X157301501Y-90830047D01*
X157301501Y-90661944D01*
X157301501Y-90661943D01*
X157260577Y-90509216D01*
X157212435Y-90425830D01*
X157181524Y-90372290D01*
X157181518Y-90372282D01*
X156468871Y-89659635D01*
X179049500Y-89659635D01*
X179049500Y-92755370D01*
X179049501Y-92755376D01*
X179055908Y-92814983D01*
X179106202Y-92949828D01*
X179106206Y-92949835D01*
X179192452Y-93065044D01*
X179192455Y-93065047D01*
X179307664Y-93151293D01*
X179307671Y-93151297D01*
X179442517Y-93201591D01*
X179442516Y-93201591D01*
X179449444Y-93202335D01*
X179502127Y-93208000D01*
X182597872Y-93207999D01*
X182657483Y-93201591D01*
X182792331Y-93151296D01*
X182907546Y-93065046D01*
X182993796Y-92949831D01*
X183044091Y-92814983D01*
X183050500Y-92755373D01*
X183050499Y-89659628D01*
X183044091Y-89600017D01*
X182993796Y-89465169D01*
X182993795Y-89465168D01*
X182993793Y-89465164D01*
X182907547Y-89349955D01*
X182907544Y-89349952D01*
X182792335Y-89263706D01*
X182792328Y-89263702D01*
X182657482Y-89213408D01*
X182657483Y-89213408D01*
X182597883Y-89207001D01*
X182597881Y-89207000D01*
X182597873Y-89207000D01*
X182597865Y-89207000D01*
X182251238Y-89207000D01*
X182184199Y-89187315D01*
X182138444Y-89134511D01*
X182128500Y-89065353D01*
X182157525Y-89001797D01*
X182175751Y-88984625D01*
X182276365Y-88907419D01*
X182276365Y-88907417D01*
X181468900Y-88099953D01*
X181607780Y-88007157D01*
X181729657Y-87885280D01*
X181822452Y-87746400D01*
X182629917Y-88553865D01*
X182629919Y-88553865D01*
X182716499Y-88441034D01*
X182716511Y-88441016D01*
X182847590Y-88213982D01*
X182847595Y-88213971D01*
X182947924Y-87971755D01*
X183015777Y-87718520D01*
X183015779Y-87718509D01*
X183049999Y-87458594D01*
X183050000Y-87458580D01*
X183050000Y-87196419D01*
X183049999Y-87196405D01*
X183015779Y-86936490D01*
X183015777Y-86936479D01*
X182947924Y-86683244D01*
X182847595Y-86441028D01*
X182847590Y-86441017D01*
X182716511Y-86213983D01*
X182716505Y-86213975D01*
X182629918Y-86101133D01*
X182629917Y-86101133D01*
X181822452Y-86908598D01*
X181729657Y-86769720D01*
X181607780Y-86647843D01*
X181468899Y-86555045D01*
X182276365Y-85747580D01*
X182163524Y-85660994D01*
X182163516Y-85660988D01*
X181936482Y-85529909D01*
X181936471Y-85529904D01*
X181694255Y-85429575D01*
X181441020Y-85361722D01*
X181441009Y-85361720D01*
X181181094Y-85327500D01*
X180918905Y-85327500D01*
X180658990Y-85361720D01*
X180658979Y-85361722D01*
X180405744Y-85429575D01*
X180163528Y-85529904D01*
X180163517Y-85529909D01*
X179936471Y-85660996D01*
X179823633Y-85747579D01*
X179823633Y-85747580D01*
X180631099Y-86555046D01*
X180492220Y-86647843D01*
X180370343Y-86769720D01*
X180277546Y-86908599D01*
X179470080Y-86101133D01*
X179470079Y-86101133D01*
X179383496Y-86213971D01*
X179252409Y-86441017D01*
X179252404Y-86441028D01*
X179152075Y-86683244D01*
X179084222Y-86936479D01*
X179084220Y-86936490D01*
X179050000Y-87196405D01*
X179050000Y-87458594D01*
X179084220Y-87718509D01*
X179084222Y-87718520D01*
X179152075Y-87971755D01*
X179252404Y-88213971D01*
X179252409Y-88213982D01*
X179383488Y-88441016D01*
X179383494Y-88441024D01*
X179470080Y-88553865D01*
X180277546Y-87746399D01*
X180370343Y-87885280D01*
X180492220Y-88007157D01*
X180631099Y-88099952D01*
X179823633Y-88907417D01*
X179823633Y-88907418D01*
X179924249Y-88984624D01*
X179965451Y-89041052D01*
X179969606Y-89110798D01*
X179935393Y-89171719D01*
X179873676Y-89204471D01*
X179848762Y-89207000D01*
X179502130Y-89207000D01*
X179502123Y-89207001D01*
X179442516Y-89213408D01*
X179307671Y-89263702D01*
X179307664Y-89263706D01*
X179192455Y-89349952D01*
X179192452Y-89349955D01*
X179106206Y-89465164D01*
X179106202Y-89465171D01*
X179055908Y-89600017D01*
X179049501Y-89659616D01*
X179049501Y-89659623D01*
X179049500Y-89659635D01*
X156468871Y-89659635D01*
X155421417Y-88612181D01*
X155387932Y-88550858D01*
X155392916Y-88481166D01*
X155434788Y-88425233D01*
X155500252Y-88400816D01*
X155509098Y-88400500D01*
X155702351Y-88400500D01*
X155702352Y-88400500D01*
X155904534Y-88368477D01*
X156099219Y-88305220D01*
X156100297Y-88304671D01*
X156125618Y-88291769D01*
X156281610Y-88212287D01*
X156374590Y-88144732D01*
X156447213Y-88091971D01*
X156447215Y-88091968D01*
X156447219Y-88091966D01*
X156591966Y-87947219D01*
X156591968Y-87947215D01*
X156591971Y-87947213D01*
X156712284Y-87781614D01*
X156712286Y-87781611D01*
X156712287Y-87781610D01*
X156759516Y-87688917D01*
X156807489Y-87638123D01*
X156875310Y-87621328D01*
X156941445Y-87643865D01*
X156980483Y-87688917D01*
X157024348Y-87775006D01*
X157027715Y-87781614D01*
X157148028Y-87947213D01*
X157292786Y-88091971D01*
X157413226Y-88179474D01*
X157458390Y-88212287D01*
X157514629Y-88240942D01*
X157640776Y-88305218D01*
X157640778Y-88305218D01*
X157640781Y-88305220D01*
X157745137Y-88339127D01*
X157835465Y-88368477D01*
X157936557Y-88384488D01*
X158037648Y-88400500D01*
X158037649Y-88400500D01*
X158242351Y-88400500D01*
X158242352Y-88400500D01*
X158444534Y-88368477D01*
X158639219Y-88305220D01*
X158640297Y-88304671D01*
X158665618Y-88291769D01*
X158821610Y-88212287D01*
X158914590Y-88144732D01*
X158987213Y-88091971D01*
X158987215Y-88091968D01*
X158987219Y-88091966D01*
X159131966Y-87947219D01*
X159131968Y-87947215D01*
X159131971Y-87947213D01*
X159184732Y-87874590D01*
X159252287Y-87781610D01*
X159345220Y-87599219D01*
X159408477Y-87404534D01*
X159440500Y-87202352D01*
X159440500Y-86997648D01*
X159424537Y-86896865D01*
X159408477Y-86795465D01*
X159345218Y-86600776D01*
X159286800Y-86486126D01*
X159252287Y-86418390D01*
X159220092Y-86374077D01*
X159131971Y-86252786D01*
X158987213Y-86108028D01*
X158821613Y-85987715D01*
X158821612Y-85987714D01*
X158821610Y-85987713D01*
X158661275Y-85906018D01*
X158639223Y-85894781D01*
X158444534Y-85831522D01*
X158269995Y-85803878D01*
X158242352Y-85799500D01*
X158037648Y-85799500D01*
X158013329Y-85803351D01*
X157835465Y-85831522D01*
X157640776Y-85894781D01*
X157458386Y-85987715D01*
X157292786Y-86108028D01*
X157148028Y-86252786D01*
X157027715Y-86418386D01*
X156980485Y-86511080D01*
X156932510Y-86561876D01*
X156864689Y-86578671D01*
X156798554Y-86556134D01*
X156759515Y-86511080D01*
X156746800Y-86486126D01*
X156712287Y-86418390D01*
X156680092Y-86374077D01*
X156591971Y-86252786D01*
X156447213Y-86108028D01*
X156281613Y-85987715D01*
X156281612Y-85987714D01*
X156281610Y-85987713D01*
X156224653Y-85958691D01*
X156099223Y-85894781D01*
X155904534Y-85831522D01*
X155729995Y-85803878D01*
X155702352Y-85799500D01*
X155497648Y-85799500D01*
X155473329Y-85803351D01*
X155295465Y-85831522D01*
X155100776Y-85894781D01*
X154918386Y-85987715D01*
X154752786Y-86108028D01*
X154608028Y-86252786D01*
X154487715Y-86418386D01*
X154440485Y-86511080D01*
X154392510Y-86561876D01*
X154324689Y-86578671D01*
X154258554Y-86556134D01*
X154219515Y-86511080D01*
X154206800Y-86486126D01*
X154172287Y-86418390D01*
X154140092Y-86374077D01*
X154051971Y-86252786D01*
X153907213Y-86108028D01*
X153741613Y-85987715D01*
X153741612Y-85987714D01*
X153741610Y-85987713D01*
X153684653Y-85958691D01*
X153559223Y-85894781D01*
X153364534Y-85831522D01*
X153189995Y-85803878D01*
X153162352Y-85799500D01*
X152957648Y-85799500D01*
X152917108Y-85805921D01*
X152755464Y-85831523D01*
X152755461Y-85831523D01*
X152562818Y-85894118D01*
X152492977Y-85896113D01*
X152433144Y-85860033D01*
X152402316Y-85797332D01*
X152400500Y-85776187D01*
X152400500Y-84685718D01*
X152420185Y-84618679D01*
X152468207Y-84575233D01*
X152507815Y-84555052D01*
X152507815Y-84555051D01*
X152507816Y-84555051D01*
X152599193Y-84488661D01*
X152679786Y-84430109D01*
X152679788Y-84430106D01*
X152679792Y-84430104D01*
X152830104Y-84279792D01*
X152949683Y-84115204D01*
X153005011Y-84072540D01*
X153074624Y-84066561D01*
X153136420Y-84099166D01*
X153150313Y-84115199D01*
X153253278Y-84256919D01*
X153269896Y-84279792D01*
X153420213Y-84430109D01*
X153592179Y-84555048D01*
X153592181Y-84555049D01*
X153592184Y-84555051D01*
X153781588Y-84651557D01*
X153983757Y-84717246D01*
X154193713Y-84750500D01*
X154193714Y-84750500D01*
X154406286Y-84750500D01*
X154406287Y-84750500D01*
X154616243Y-84717246D01*
X154818412Y-84651557D01*
X155007816Y-84555051D01*
X155084031Y-84499678D01*
X155179786Y-84430109D01*
X155179788Y-84430106D01*
X155179792Y-84430104D01*
X155330104Y-84279792D01*
X155330106Y-84279788D01*
X155330109Y-84279786D01*
X155455048Y-84107820D01*
X155455047Y-84107820D01*
X155455051Y-84107816D01*
X155489515Y-84040175D01*
X155537489Y-83989380D01*
X155605310Y-83972585D01*
X155671445Y-83995122D01*
X155710485Y-84040176D01*
X155744951Y-84107820D01*
X155869890Y-84279786D01*
X156020213Y-84430109D01*
X156192179Y-84555048D01*
X156192181Y-84555049D01*
X156192184Y-84555051D01*
X156381588Y-84651557D01*
X156583757Y-84717246D01*
X156793713Y-84750500D01*
X156793714Y-84750500D01*
X157006286Y-84750500D01*
X157006287Y-84750500D01*
X157216243Y-84717246D01*
X157418412Y-84651557D01*
X157607816Y-84555051D01*
X157745459Y-84455048D01*
X157779784Y-84430110D01*
X157779784Y-84430109D01*
X157779792Y-84430104D01*
X157864195Y-84345700D01*
X157925514Y-84312218D01*
X157995206Y-84317202D01*
X158051140Y-84359073D01*
X158068055Y-84390050D01*
X158106203Y-84492330D01*
X158106206Y-84492335D01*
X158192452Y-84607544D01*
X158192455Y-84607547D01*
X158307664Y-84693793D01*
X158307671Y-84693797D01*
X158442517Y-84744091D01*
X158442516Y-84744091D01*
X158449444Y-84744835D01*
X158502127Y-84750500D01*
X160297872Y-84750499D01*
X160357483Y-84744091D01*
X160492331Y-84693796D01*
X160607546Y-84607546D01*
X160693796Y-84492331D01*
X160744091Y-84357483D01*
X160750500Y-84297873D01*
X160750499Y-82502128D01*
X160744091Y-82442517D01*
X160735772Y-82420213D01*
X160693797Y-82307671D01*
X160693793Y-82307664D01*
X160607547Y-82192455D01*
X160607544Y-82192452D01*
X160492335Y-82106206D01*
X160492328Y-82106202D01*
X160382920Y-82065396D01*
X160357482Y-82055908D01*
X160357483Y-82055908D01*
X160297883Y-82049501D01*
X160297881Y-82049500D01*
X160297873Y-82049500D01*
X160297864Y-82049500D01*
X158502129Y-82049500D01*
X158502123Y-82049501D01*
X158442516Y-82055908D01*
X158307671Y-82106202D01*
X158307664Y-82106206D01*
X158192455Y-82192452D01*
X158192452Y-82192455D01*
X158106206Y-82307664D01*
X158106203Y-82307670D01*
X158068055Y-82409949D01*
X158026183Y-82465882D01*
X157960719Y-82490299D01*
X157892446Y-82475447D01*
X157864192Y-82454296D01*
X157779786Y-82369890D01*
X157607820Y-82244951D01*
X157418414Y-82148444D01*
X157418413Y-82148443D01*
X157418412Y-82148443D01*
X157216243Y-82082754D01*
X157216241Y-82082753D01*
X157216240Y-82082753D01*
X157054957Y-82057208D01*
X157006287Y-82049500D01*
X156793713Y-82049500D01*
X156745042Y-82057208D01*
X156583760Y-82082753D01*
X156381585Y-82148444D01*
X156192179Y-82244951D01*
X156020213Y-82369890D01*
X155869890Y-82520213D01*
X155744951Y-82692180D01*
X155710485Y-82759823D01*
X155662510Y-82810619D01*
X155594689Y-82827414D01*
X155528554Y-82804876D01*
X155489515Y-82759823D01*
X155473024Y-82727459D01*
X155455051Y-82692184D01*
X155414548Y-82636436D01*
X155330109Y-82520213D01*
X155179786Y-82369890D01*
X155007820Y-82244951D01*
X154818414Y-82148444D01*
X154818413Y-82148443D01*
X154818412Y-82148443D01*
X154616243Y-82082754D01*
X154616241Y-82082753D01*
X154616240Y-82082753D01*
X154454957Y-82057208D01*
X154406287Y-82049500D01*
X154193713Y-82049500D01*
X154145042Y-82057208D01*
X153983760Y-82082753D01*
X153781585Y-82148444D01*
X153592179Y-82244951D01*
X153420213Y-82369890D01*
X153269894Y-82520209D01*
X153269890Y-82520214D01*
X153150318Y-82684793D01*
X153094989Y-82727459D01*
X153025375Y-82733438D01*
X152963580Y-82700833D01*
X152949682Y-82684793D01*
X152830109Y-82520214D01*
X152830105Y-82520209D01*
X152679786Y-82369890D01*
X152507820Y-82244951D01*
X152318414Y-82148444D01*
X152318413Y-82148443D01*
X152318412Y-82148443D01*
X152116243Y-82082754D01*
X152116241Y-82082753D01*
X152116240Y-82082753D01*
X151954957Y-82057208D01*
X151906287Y-82049500D01*
X151693713Y-82049500D01*
X151645042Y-82057208D01*
X151483760Y-82082753D01*
X151281585Y-82148444D01*
X151092179Y-82244951D01*
X150920213Y-82369890D01*
X150769894Y-82520209D01*
X150769890Y-82520214D01*
X150650318Y-82684793D01*
X150594989Y-82727459D01*
X150525375Y-82733438D01*
X150463580Y-82700833D01*
X150449682Y-82684793D01*
X150330109Y-82520214D01*
X150330105Y-82520209D01*
X150179786Y-82369890D01*
X150007820Y-82244951D01*
X149818414Y-82148444D01*
X149818413Y-82148443D01*
X149818412Y-82148443D01*
X149616243Y-82082754D01*
X149616241Y-82082753D01*
X149616240Y-82082753D01*
X149454957Y-82057208D01*
X149406287Y-82049500D01*
X149193713Y-82049500D01*
X149145042Y-82057208D01*
X148983760Y-82082753D01*
X148781585Y-82148444D01*
X148592179Y-82244951D01*
X148420213Y-82369890D01*
X148269890Y-82520213D01*
X148144951Y-82692180D01*
X148110485Y-82759823D01*
X148062510Y-82810619D01*
X147994689Y-82827414D01*
X147928554Y-82804876D01*
X147889515Y-82759823D01*
X147873024Y-82727459D01*
X147855051Y-82692184D01*
X147814548Y-82636436D01*
X147730109Y-82520213D01*
X147579786Y-82369890D01*
X147407820Y-82244951D01*
X147218414Y-82148444D01*
X147218413Y-82148443D01*
X147218412Y-82148443D01*
X147016243Y-82082754D01*
X147016241Y-82082753D01*
X147016240Y-82082753D01*
X146854957Y-82057208D01*
X146806287Y-82049500D01*
X146593713Y-82049500D01*
X146545042Y-82057208D01*
X146383760Y-82082753D01*
X146181585Y-82148444D01*
X145992179Y-82244951D01*
X145820213Y-82369890D01*
X145669894Y-82520209D01*
X145669890Y-82520214D01*
X145550318Y-82684793D01*
X145494989Y-82727459D01*
X145425375Y-82733438D01*
X145363580Y-82700833D01*
X145349682Y-82684793D01*
X145230109Y-82520214D01*
X145230105Y-82520209D01*
X145079786Y-82369890D01*
X144907819Y-82244951D01*
X144907818Y-82244950D01*
X144907816Y-82244949D01*
X144755804Y-82167495D01*
X144705008Y-82119520D01*
X144688213Y-82051699D01*
X144710750Y-81985564D01*
X144752152Y-81952686D01*
X170774500Y-81952686D01*
X170774500Y-82233549D01*
X170805942Y-82512612D01*
X170805945Y-82512630D01*
X170868439Y-82786435D01*
X170868443Y-82786447D01*
X170961200Y-83051529D01*
X171083053Y-83304560D01*
X171083055Y-83304563D01*
X171232477Y-83542366D01*
X171407584Y-83761943D01*
X171606175Y-83960534D01*
X171825752Y-84135641D01*
X172063555Y-84285063D01*
X172316592Y-84406919D01*
X172515680Y-84476583D01*
X172581670Y-84499674D01*
X172581682Y-84499678D01*
X172855491Y-84562173D01*
X172855497Y-84562173D01*
X172855505Y-84562175D01*
X173041547Y-84583136D01*
X173134569Y-84593617D01*
X173134572Y-84593618D01*
X173134575Y-84593618D01*
X173415428Y-84593618D01*
X173415429Y-84593617D01*
X173578598Y-84575233D01*
X173694494Y-84562175D01*
X173694499Y-84562174D01*
X173694509Y-84562173D01*
X173968318Y-84499678D01*
X174233408Y-84406919D01*
X174486445Y-84285063D01*
X174724248Y-84135641D01*
X174943825Y-83960534D01*
X175142416Y-83761943D01*
X175317523Y-83542366D01*
X175466945Y-83304563D01*
X175588801Y-83051526D01*
X175681560Y-82786436D01*
X175744055Y-82512627D01*
X175751955Y-82442517D01*
X175760956Y-82362627D01*
X175775500Y-82233543D01*
X175775500Y-81952693D01*
X175758599Y-81802690D01*
X175744057Y-81673623D01*
X175744054Y-81673605D01*
X175681560Y-81399800D01*
X175681556Y-81399788D01*
X175658465Y-81333798D01*
X175588801Y-81134710D01*
X175466945Y-80881673D01*
X175317523Y-80643870D01*
X175142416Y-80424293D01*
X174943825Y-80225702D01*
X174724248Y-80050595D01*
X174486445Y-79901173D01*
X174486442Y-79901171D01*
X174233411Y-79779318D01*
X173968329Y-79686561D01*
X173968317Y-79686557D01*
X173694512Y-79624063D01*
X173694494Y-79624060D01*
X173415431Y-79592618D01*
X173415425Y-79592618D01*
X173134575Y-79592618D01*
X173134568Y-79592618D01*
X172855505Y-79624060D01*
X172855487Y-79624063D01*
X172581682Y-79686557D01*
X172581670Y-79686561D01*
X172316588Y-79779318D01*
X172063557Y-79901171D01*
X171825753Y-80050594D01*
X171606175Y-80225701D01*
X171407583Y-80424293D01*
X171232476Y-80643871D01*
X171083053Y-80881675D01*
X170961200Y-81134706D01*
X170868443Y-81399788D01*
X170868439Y-81399800D01*
X170805945Y-81673605D01*
X170805942Y-81673623D01*
X170774500Y-81952686D01*
X144752152Y-81952686D01*
X144765466Y-81942113D01*
X144787898Y-81935395D01*
X144849686Y-81923105D01*
X145005468Y-81858578D01*
X145145668Y-81764899D01*
X145264899Y-81645668D01*
X145358578Y-81505468D01*
X145423105Y-81349686D01*
X145456000Y-81184309D01*
X145456000Y-81015691D01*
X145423105Y-80850314D01*
X145358578Y-80694532D01*
X145358577Y-80694531D01*
X145358574Y-80694525D01*
X145264899Y-80554332D01*
X145264896Y-80554328D01*
X145145671Y-80435103D01*
X145145667Y-80435100D01*
X145005474Y-80341425D01*
X145005465Y-80341420D01*
X144849686Y-80276895D01*
X144849678Y-80276893D01*
X144684313Y-80244000D01*
X144684309Y-80244000D01*
X144515691Y-80244000D01*
X144515686Y-80244000D01*
X144350321Y-80276893D01*
X144350313Y-80276895D01*
X144194534Y-80341420D01*
X144194525Y-80341425D01*
X144054332Y-80435100D01*
X144054328Y-80435103D01*
X143935103Y-80554328D01*
X143935100Y-80554332D01*
X143841425Y-80694525D01*
X143841420Y-80694534D01*
X143776895Y-80850313D01*
X143776893Y-80850321D01*
X143744000Y-81015686D01*
X143744000Y-81055402D01*
X143724315Y-81122441D01*
X143707681Y-81143083D01*
X142568011Y-82282753D01*
X142506688Y-82316238D01*
X142436996Y-82311254D01*
X142392649Y-82282753D01*
X142379786Y-82269890D01*
X142207820Y-82144951D01*
X142018414Y-82048444D01*
X142018413Y-82048443D01*
X142018412Y-82048443D01*
X141816243Y-81982754D01*
X141816241Y-81982753D01*
X141816240Y-81982753D01*
X141647326Y-81956000D01*
X141606287Y-81949500D01*
X141393713Y-81949500D01*
X141352674Y-81956000D01*
X141183760Y-81982753D01*
X140981585Y-82048444D01*
X140792179Y-82144951D01*
X140620213Y-82269890D01*
X140469894Y-82420209D01*
X140469890Y-82420214D01*
X140400318Y-82515973D01*
X140344988Y-82558639D01*
X140275375Y-82564618D01*
X140213580Y-82532013D01*
X140199682Y-82515973D01*
X140130109Y-82420214D01*
X140130105Y-82420209D01*
X139979786Y-82269890D01*
X139807820Y-82144951D01*
X139618414Y-82048444D01*
X139618413Y-82048443D01*
X139618412Y-82048443D01*
X139416243Y-81982754D01*
X139416241Y-81982753D01*
X139416240Y-81982753D01*
X139247326Y-81956000D01*
X139206287Y-81949500D01*
X138993713Y-81949500D01*
X138952674Y-81956000D01*
X138783760Y-81982753D01*
X138581585Y-82048444D01*
X138392179Y-82144951D01*
X138220213Y-82269890D01*
X138069894Y-82420209D01*
X138069890Y-82420214D01*
X137950318Y-82584793D01*
X137894989Y-82627459D01*
X137825375Y-82633438D01*
X137763580Y-82600833D01*
X137749682Y-82584793D01*
X137630109Y-82420214D01*
X137630105Y-82420209D01*
X137479786Y-82269890D01*
X137307820Y-82144951D01*
X137118414Y-82048444D01*
X137118413Y-82048443D01*
X137118412Y-82048443D01*
X136916243Y-81982754D01*
X136916241Y-81982753D01*
X136916240Y-81982753D01*
X136747326Y-81956000D01*
X136706287Y-81949500D01*
X136493713Y-81949500D01*
X136452674Y-81956000D01*
X136283760Y-81982753D01*
X136081585Y-82048444D01*
X135892179Y-82144951D01*
X135720213Y-82269890D01*
X135569890Y-82420213D01*
X135444951Y-82592180D01*
X135410485Y-82659823D01*
X135362510Y-82710619D01*
X135294689Y-82727414D01*
X135228554Y-82704876D01*
X135189515Y-82659823D01*
X135173024Y-82627459D01*
X135155051Y-82592184D01*
X135111335Y-82532013D01*
X135030109Y-82420213D01*
X134879786Y-82269890D01*
X134707820Y-82144951D01*
X134518414Y-82048444D01*
X134518413Y-82048443D01*
X134518412Y-82048443D01*
X134316243Y-81982754D01*
X134316241Y-81982753D01*
X134316240Y-81982753D01*
X134147326Y-81956000D01*
X134106287Y-81949500D01*
X133893713Y-81949500D01*
X133852674Y-81956000D01*
X133683760Y-81982753D01*
X133481585Y-82048444D01*
X133292179Y-82144951D01*
X133120213Y-82269890D01*
X132969894Y-82420209D01*
X132969890Y-82420214D01*
X132900318Y-82515973D01*
X132844988Y-82558639D01*
X132775375Y-82564618D01*
X132713580Y-82532013D01*
X132699682Y-82515973D01*
X132630109Y-82420214D01*
X132630105Y-82420209D01*
X132479786Y-82269890D01*
X132307820Y-82144951D01*
X132118414Y-82048444D01*
X132118413Y-82048443D01*
X132118412Y-82048443D01*
X131916243Y-81982754D01*
X131916241Y-81982753D01*
X131916240Y-81982753D01*
X131747326Y-81956000D01*
X131706287Y-81949500D01*
X131493713Y-81949500D01*
X131452674Y-81956000D01*
X131283760Y-81982753D01*
X131081585Y-82048444D01*
X130892179Y-82144951D01*
X130720213Y-82269890D01*
X130569890Y-82420213D01*
X130444951Y-82592179D01*
X130348444Y-82781585D01*
X130282753Y-82983760D01*
X130249500Y-83193713D01*
X129792345Y-83193713D01*
X129816945Y-83154563D01*
X129822023Y-83144017D01*
X129826349Y-83135037D01*
X129826349Y-83135035D01*
X129938796Y-82901537D01*
X129938797Y-82901534D01*
X129938801Y-82901526D01*
X130031560Y-82636436D01*
X130094055Y-82362627D01*
X130099844Y-82311254D01*
X130113229Y-82192452D01*
X130125500Y-82083543D01*
X130125500Y-81802693D01*
X130094055Y-81523609D01*
X130031560Y-81249800D01*
X129938801Y-80984710D01*
X129816945Y-80731673D01*
X129667523Y-80493870D01*
X129492416Y-80274293D01*
X129293825Y-80075702D01*
X129074248Y-79900595D01*
X128836445Y-79751173D01*
X128836442Y-79751171D01*
X128583411Y-79629318D01*
X128318329Y-79536561D01*
X128318317Y-79536557D01*
X128044512Y-79474063D01*
X128044494Y-79474060D01*
X127765431Y-79442618D01*
X127765425Y-79442618D01*
X127484575Y-79442618D01*
X127484568Y-79442618D01*
X127205505Y-79474060D01*
X127205487Y-79474063D01*
X126931682Y-79536557D01*
X126931670Y-79536561D01*
X126666588Y-79629318D01*
X126413557Y-79751171D01*
X126175753Y-79900594D01*
X125956175Y-80075701D01*
X125757583Y-80274293D01*
X125582476Y-80493871D01*
X125433053Y-80731675D01*
X125311200Y-80984706D01*
X125218443Y-81249788D01*
X125218439Y-81249800D01*
X125155945Y-81523605D01*
X125155942Y-81523623D01*
X125124500Y-81802686D01*
X91881500Y-81802686D01*
X91881500Y-76539778D01*
X96059500Y-76539778D01*
X96059500Y-76760221D01*
X96093985Y-76977952D01*
X96162103Y-77187603D01*
X96162104Y-77187606D01*
X96230122Y-77321096D01*
X96257129Y-77374100D01*
X96262187Y-77384025D01*
X96391752Y-77562358D01*
X96391756Y-77562363D01*
X96547636Y-77718243D01*
X96547641Y-77718247D01*
X96703192Y-77831260D01*
X96725978Y-77847815D01*
X96854375Y-77913237D01*
X96922393Y-77947895D01*
X96922396Y-77947896D01*
X97027221Y-77981955D01*
X97132049Y-78016015D01*
X97349778Y-78050500D01*
X97349779Y-78050500D01*
X97570221Y-78050500D01*
X97570222Y-78050500D01*
X97787951Y-78016015D01*
X97997606Y-77947895D01*
X98194022Y-77847815D01*
X98372365Y-77718242D01*
X98528242Y-77562365D01*
X98538804Y-77547826D01*
X98629682Y-77422745D01*
X98685011Y-77380079D01*
X98754625Y-77374100D01*
X98816420Y-77406705D01*
X98830318Y-77422745D01*
X98931752Y-77562358D01*
X98931756Y-77562363D01*
X99087636Y-77718243D01*
X99087641Y-77718247D01*
X99243192Y-77831260D01*
X99265978Y-77847815D01*
X99394375Y-77913237D01*
X99462393Y-77947895D01*
X99462396Y-77947896D01*
X99567221Y-77981955D01*
X99672049Y-78016015D01*
X99889778Y-78050500D01*
X99889779Y-78050500D01*
X100110221Y-78050500D01*
X100110222Y-78050500D01*
X100327951Y-78016015D01*
X100537606Y-77947895D01*
X100734022Y-77847815D01*
X100912365Y-77718242D01*
X101068242Y-77562365D01*
X101078804Y-77547826D01*
X101169682Y-77422745D01*
X101225011Y-77380079D01*
X101294625Y-77374100D01*
X101356420Y-77406705D01*
X101370318Y-77422745D01*
X101471752Y-77562358D01*
X101471756Y-77562363D01*
X101627636Y-77718243D01*
X101627641Y-77718247D01*
X101783192Y-77831260D01*
X101805978Y-77847815D01*
X101934375Y-77913237D01*
X102002393Y-77947895D01*
X102002396Y-77947896D01*
X102107221Y-77981955D01*
X102212049Y-78016015D01*
X102429778Y-78050500D01*
X102429779Y-78050500D01*
X102650221Y-78050500D01*
X102650222Y-78050500D01*
X102867951Y-78016015D01*
X103077606Y-77947895D01*
X103274022Y-77847815D01*
X103452365Y-77718242D01*
X103608242Y-77562365D01*
X103737815Y-77384022D01*
X103837895Y-77187606D01*
X103906015Y-76977951D01*
X103940500Y-76760222D01*
X103940500Y-76539778D01*
X103906015Y-76322049D01*
X103883188Y-76251794D01*
X103881193Y-76181953D01*
X103913436Y-76125797D01*
X106502416Y-73536819D01*
X106563739Y-73503334D01*
X106590097Y-73500500D01*
X111170398Y-73500500D01*
X111237437Y-73520185D01*
X111280883Y-73568205D01*
X111287715Y-73581614D01*
X111408028Y-73747213D01*
X111552786Y-73891971D01*
X111707749Y-74004556D01*
X111718390Y-74012287D01*
X111834607Y-74071503D01*
X111900776Y-74105218D01*
X111900778Y-74105218D01*
X111900781Y-74105220D01*
X112005137Y-74139127D01*
X112095465Y-74168477D01*
X112196557Y-74184488D01*
X112297648Y-74200500D01*
X112297649Y-74200500D01*
X112502351Y-74200500D01*
X112502352Y-74200500D01*
X112704534Y-74168477D01*
X112899219Y-74105220D01*
X113081610Y-74012287D01*
X113174590Y-73944732D01*
X113247213Y-73891971D01*
X113247215Y-73891968D01*
X113247219Y-73891966D01*
X113391966Y-73747219D01*
X113391968Y-73747215D01*
X113391971Y-73747213D01*
X113444732Y-73674590D01*
X113512287Y-73581610D01*
X113605220Y-73399219D01*
X113668477Y-73204534D01*
X113700500Y-73002352D01*
X113700500Y-72797648D01*
X113668477Y-72595466D01*
X113668475Y-72595462D01*
X113668475Y-72595457D01*
X113657545Y-72561817D01*
X113655550Y-72491976D01*
X113691631Y-72432144D01*
X113754332Y-72401316D01*
X113775476Y-72399500D01*
X118624524Y-72399500D01*
X118691563Y-72419185D01*
X118737318Y-72471989D01*
X118747262Y-72541147D01*
X118742455Y-72561817D01*
X118731524Y-72595457D01*
X118731523Y-72595464D01*
X118699500Y-72797648D01*
X118699500Y-73002351D01*
X118731522Y-73204534D01*
X118794781Y-73399223D01*
X118887715Y-73581613D01*
X119008028Y-73747213D01*
X119152786Y-73891971D01*
X119307749Y-74004556D01*
X119318390Y-74012287D01*
X119434607Y-74071503D01*
X119500776Y-74105218D01*
X119500778Y-74105218D01*
X119500781Y-74105220D01*
X119605137Y-74139127D01*
X119695465Y-74168477D01*
X119796557Y-74184488D01*
X119897648Y-74200500D01*
X119897649Y-74200500D01*
X120102351Y-74200500D01*
X120102352Y-74200500D01*
X120304534Y-74168477D01*
X120499219Y-74105220D01*
X120681610Y-74012287D01*
X120774590Y-73944732D01*
X120847213Y-73891971D01*
X120847215Y-73891968D01*
X120847219Y-73891966D01*
X120991966Y-73747219D01*
X120991968Y-73747215D01*
X120991971Y-73747213D01*
X121112284Y-73581614D01*
X121112285Y-73581613D01*
X121112287Y-73581610D01*
X121119117Y-73568204D01*
X121167091Y-73517409D01*
X121229602Y-73500500D01*
X148313331Y-73500500D01*
X148313347Y-73500501D01*
X148320943Y-73500501D01*
X148479054Y-73500501D01*
X148479057Y-73500501D01*
X148631785Y-73459577D01*
X148681904Y-73430639D01*
X148768716Y-73380520D01*
X148880520Y-73268716D01*
X148880520Y-73268714D01*
X148890728Y-73258507D01*
X148890729Y-73258504D01*
X154556916Y-67592319D01*
X154618239Y-67558834D01*
X154644597Y-67556000D01*
X154684310Y-67556000D01*
X154684311Y-67555999D01*
X154849686Y-67523105D01*
X155005468Y-67458578D01*
X155145668Y-67364899D01*
X155264899Y-67245668D01*
X155358578Y-67105468D01*
X155423105Y-66949686D01*
X155456000Y-66784309D01*
X155456000Y-66615691D01*
X155423105Y-66450314D01*
X155358578Y-66294532D01*
X155358577Y-66294531D01*
X155358574Y-66294525D01*
X155264899Y-66154332D01*
X155264896Y-66154328D01*
X155145671Y-66035103D01*
X155145667Y-66035100D01*
X155005474Y-65941425D01*
X155005465Y-65941420D01*
X154966445Y-65925258D01*
X154912042Y-65881417D01*
X154889977Y-65815123D01*
X154907256Y-65747424D01*
X154926213Y-65723020D01*
X156315478Y-64333755D01*
X156376799Y-64300272D01*
X156441473Y-64303506D01*
X156483757Y-64317246D01*
X156693713Y-64350500D01*
X156693714Y-64350500D01*
X156906286Y-64350500D01*
X156906287Y-64350500D01*
X157116243Y-64317246D01*
X157318412Y-64251557D01*
X157507816Y-64155051D01*
X157542677Y-64129723D01*
X157679786Y-64030109D01*
X157679788Y-64030106D01*
X157679792Y-64030104D01*
X157830104Y-63879792D01*
X157830106Y-63879788D01*
X157830109Y-63879786D01*
X157955048Y-63707820D01*
X157955050Y-63707817D01*
X157955051Y-63707816D01*
X157989515Y-63640175D01*
X158037489Y-63589380D01*
X158105310Y-63572585D01*
X158171445Y-63595122D01*
X158210484Y-63640175D01*
X158226975Y-63672540D01*
X158244951Y-63707820D01*
X158369890Y-63879786D01*
X158520213Y-64030109D01*
X158692179Y-64155048D01*
X158692181Y-64155049D01*
X158692184Y-64155051D01*
X158881588Y-64251557D01*
X159083757Y-64317246D01*
X159293713Y-64350500D01*
X159293714Y-64350500D01*
X159506286Y-64350500D01*
X159506287Y-64350500D01*
X159716243Y-64317246D01*
X159918412Y-64251557D01*
X160107816Y-64155051D01*
X160142677Y-64129723D01*
X160279786Y-64030109D01*
X160279788Y-64030106D01*
X160279792Y-64030104D01*
X160430104Y-63879792D01*
X160549991Y-63714779D01*
X160605320Y-63672115D01*
X160674933Y-63666136D01*
X160736729Y-63698741D01*
X160750627Y-63714781D01*
X160870272Y-63879459D01*
X160870276Y-63879464D01*
X161020535Y-64029723D01*
X161020540Y-64029727D01*
X161192442Y-64154620D01*
X161381782Y-64251095D01*
X161583871Y-64316757D01*
X161650000Y-64327231D01*
X161650000Y-63433012D01*
X161707007Y-63465925D01*
X161834174Y-63500000D01*
X161965826Y-63500000D01*
X162092993Y-63465925D01*
X162150000Y-63433012D01*
X162150000Y-64327230D01*
X162216126Y-64316757D01*
X162216129Y-64316757D01*
X162418217Y-64251095D01*
X162607557Y-64154620D01*
X162779459Y-64029727D01*
X162779464Y-64029723D01*
X162929721Y-63879466D01*
X163049371Y-63714781D01*
X163104701Y-63672115D01*
X163174314Y-63666136D01*
X163236110Y-63698741D01*
X163250008Y-63714781D01*
X163369890Y-63879785D01*
X163369894Y-63879790D01*
X163520213Y-64030109D01*
X163692179Y-64155048D01*
X163692181Y-64155049D01*
X163692184Y-64155051D01*
X163881588Y-64251557D01*
X164083757Y-64317246D01*
X164293713Y-64350500D01*
X164293714Y-64350500D01*
X164506286Y-64350500D01*
X164506287Y-64350500D01*
X164716243Y-64317246D01*
X164918412Y-64251557D01*
X165107816Y-64155051D01*
X165142677Y-64129723D01*
X165279786Y-64030109D01*
X165279788Y-64030106D01*
X165279792Y-64030104D01*
X165430104Y-63879792D01*
X165430106Y-63879788D01*
X165430109Y-63879786D01*
X165555048Y-63707820D01*
X165555050Y-63707817D01*
X165555051Y-63707816D01*
X165564038Y-63690177D01*
X165612009Y-63639382D01*
X165679830Y-63622585D01*
X165745965Y-63645120D01*
X165785008Y-63690176D01*
X165844951Y-63807819D01*
X165969890Y-63979786D01*
X166120213Y-64130109D01*
X166292179Y-64255048D01*
X166292181Y-64255049D01*
X166292184Y-64255051D01*
X166481588Y-64351557D01*
X166683757Y-64417246D01*
X166893713Y-64450500D01*
X166893714Y-64450500D01*
X167106286Y-64450500D01*
X167106287Y-64450500D01*
X167316243Y-64417246D01*
X167518412Y-64351557D01*
X167707816Y-64255051D01*
X167845459Y-64155048D01*
X167879784Y-64130110D01*
X167879784Y-64130109D01*
X167879792Y-64130104D01*
X167964195Y-64045700D01*
X168025514Y-64012218D01*
X168095206Y-64017202D01*
X168151140Y-64059073D01*
X168168055Y-64090050D01*
X168206203Y-64192330D01*
X168206206Y-64192335D01*
X168292452Y-64307544D01*
X168292455Y-64307547D01*
X168407664Y-64393793D01*
X168407671Y-64393797D01*
X168542517Y-64444091D01*
X168542516Y-64444091D01*
X168549444Y-64444835D01*
X168602127Y-64450500D01*
X170397872Y-64450499D01*
X170457483Y-64444091D01*
X170592331Y-64393796D01*
X170676189Y-64331019D01*
X170741652Y-64306602D01*
X170809926Y-64321453D01*
X170859331Y-64370858D01*
X170874500Y-64430286D01*
X170874500Y-64433549D01*
X170905942Y-64712612D01*
X170905945Y-64712630D01*
X170968439Y-64986435D01*
X170968443Y-64986447D01*
X171061200Y-65251529D01*
X171183053Y-65504560D01*
X171183055Y-65504563D01*
X171332477Y-65742366D01*
X171507584Y-65961943D01*
X171706175Y-66160534D01*
X171925752Y-66335641D01*
X172163555Y-66485063D01*
X172416592Y-66606919D01*
X172615680Y-66676583D01*
X172681670Y-66699674D01*
X172681682Y-66699678D01*
X172955491Y-66762173D01*
X172955497Y-66762173D01*
X172955505Y-66762175D01*
X173141547Y-66783136D01*
X173234569Y-66793617D01*
X173234572Y-66793618D01*
X173234575Y-66793618D01*
X173515428Y-66793618D01*
X173515429Y-66793617D01*
X173658055Y-66777547D01*
X173794494Y-66762175D01*
X173794499Y-66762174D01*
X173794509Y-66762173D01*
X174068318Y-66699678D01*
X174333408Y-66606919D01*
X174586445Y-66485063D01*
X174824248Y-66335641D01*
X175043825Y-66160534D01*
X175242416Y-65961943D01*
X175417523Y-65742366D01*
X175566945Y-65504563D01*
X175688801Y-65251526D01*
X175781560Y-64986436D01*
X175844055Y-64712627D01*
X175875500Y-64433543D01*
X175875500Y-64152693D01*
X175875499Y-64152688D01*
X175875499Y-64152686D01*
X175872955Y-64130110D01*
X175855982Y-63979464D01*
X175844057Y-63873623D01*
X175844054Y-63873605D01*
X175781560Y-63599800D01*
X175781556Y-63599788D01*
X175718407Y-63419320D01*
X175688801Y-63334710D01*
X175566945Y-63081673D01*
X175417523Y-62843870D01*
X175242416Y-62624293D01*
X175043825Y-62425702D01*
X175023913Y-62409823D01*
X174961215Y-62359823D01*
X174824248Y-62250595D01*
X174617259Y-62120535D01*
X174586442Y-62101171D01*
X174333411Y-61979318D01*
X174068329Y-61886561D01*
X174068317Y-61886557D01*
X173794512Y-61824063D01*
X173794494Y-61824060D01*
X173515431Y-61792618D01*
X173515425Y-61792618D01*
X173234575Y-61792618D01*
X173234568Y-61792618D01*
X172955505Y-61824060D01*
X172955487Y-61824063D01*
X172681682Y-61886557D01*
X172681670Y-61886561D01*
X172416588Y-61979318D01*
X172163557Y-62101171D01*
X171925753Y-62250594D01*
X171706175Y-62425701D01*
X171507583Y-62624293D01*
X171332476Y-62843871D01*
X171183053Y-63081675D01*
X171086219Y-63282753D01*
X171039396Y-63334612D01*
X170971969Y-63352925D01*
X170905345Y-63331877D01*
X170860677Y-63278151D01*
X170850499Y-63228953D01*
X170850499Y-62202128D01*
X170844091Y-62142517D01*
X170835892Y-62120535D01*
X170793797Y-62007671D01*
X170793793Y-62007664D01*
X170707547Y-61892455D01*
X170707544Y-61892452D01*
X170592335Y-61806206D01*
X170592328Y-61806202D01*
X170457482Y-61755908D01*
X170457483Y-61755908D01*
X170397883Y-61749501D01*
X170397881Y-61749500D01*
X170397873Y-61749500D01*
X170397864Y-61749500D01*
X168602129Y-61749500D01*
X168602123Y-61749501D01*
X168542516Y-61755908D01*
X168407671Y-61806202D01*
X168407664Y-61806206D01*
X168292455Y-61892452D01*
X168292452Y-61892455D01*
X168206206Y-62007664D01*
X168206203Y-62007670D01*
X168168055Y-62109949D01*
X168126183Y-62165882D01*
X168060719Y-62190299D01*
X167992446Y-62175447D01*
X167964192Y-62154296D01*
X167879786Y-62069890D01*
X167707820Y-61944951D01*
X167518414Y-61848444D01*
X167518413Y-61848443D01*
X167518412Y-61848443D01*
X167316243Y-61782754D01*
X167316241Y-61782753D01*
X167316240Y-61782753D01*
X167154957Y-61757208D01*
X167106287Y-61749500D01*
X166893713Y-61749500D01*
X166845042Y-61757208D01*
X166683760Y-61782753D01*
X166481585Y-61848444D01*
X166292179Y-61944951D01*
X166120213Y-62069890D01*
X165969890Y-62220213D01*
X165844950Y-62392180D01*
X165835960Y-62409825D01*
X165787984Y-62460620D01*
X165720163Y-62477414D01*
X165654028Y-62454875D01*
X165614991Y-62409823D01*
X165559674Y-62301257D01*
X165555051Y-62292184D01*
X165555049Y-62292181D01*
X165555048Y-62292179D01*
X165430109Y-62120213D01*
X165279786Y-61969890D01*
X165107820Y-61844951D01*
X164918414Y-61748444D01*
X164918413Y-61748443D01*
X164918412Y-61748443D01*
X164716243Y-61682754D01*
X164716241Y-61682753D01*
X164716240Y-61682753D01*
X164554957Y-61657208D01*
X164506287Y-61649500D01*
X164293713Y-61649500D01*
X164245042Y-61657208D01*
X164083760Y-61682753D01*
X163881585Y-61748444D01*
X163692179Y-61844951D01*
X163520213Y-61969890D01*
X163369894Y-62120209D01*
X163369890Y-62120214D01*
X163250008Y-62285218D01*
X163194678Y-62327884D01*
X163125065Y-62333863D01*
X163063270Y-62301257D01*
X163049372Y-62285218D01*
X162929727Y-62120540D01*
X162929723Y-62120535D01*
X162779464Y-61970276D01*
X162779459Y-61970272D01*
X162607557Y-61845379D01*
X162418215Y-61748903D01*
X162216124Y-61683241D01*
X162150000Y-61672768D01*
X162150000Y-62566988D01*
X162092993Y-62534075D01*
X161965826Y-62500000D01*
X161834174Y-62500000D01*
X161707007Y-62534075D01*
X161650000Y-62566988D01*
X161650000Y-61650595D01*
X161658644Y-61621154D01*
X161665168Y-61591168D01*
X161668922Y-61586152D01*
X161669685Y-61583556D01*
X161686313Y-61562920D01*
X165312416Y-57936819D01*
X165373739Y-57903334D01*
X165400097Y-57900500D01*
X175288331Y-57900500D01*
X175288347Y-57900501D01*
X175295943Y-57900501D01*
X175454054Y-57900501D01*
X175454057Y-57900501D01*
X175606785Y-57859577D01*
X175656904Y-57830639D01*
X175743716Y-57780520D01*
X175855520Y-57668716D01*
X175855520Y-57668714D01*
X175865728Y-57658507D01*
X175865730Y-57658504D01*
X178018506Y-55505728D01*
X178018511Y-55505724D01*
X178028714Y-55495520D01*
X178028716Y-55495520D01*
X178140520Y-55383716D01*
X178212642Y-55258796D01*
X178219577Y-55246785D01*
X178223127Y-55233532D01*
X178227083Y-55224640D01*
X178243649Y-55205133D01*
X178256969Y-55183280D01*
X178269648Y-55174520D01*
X178272312Y-55171385D01*
X178275666Y-55170363D01*
X178284083Y-55164548D01*
X178375678Y-55117880D01*
X178549563Y-54991545D01*
X178644092Y-54897015D01*
X178705411Y-54863533D01*
X178775103Y-54868517D01*
X178831037Y-54910388D01*
X178847952Y-54941366D01*
X178891202Y-55057328D01*
X178891206Y-55057335D01*
X178977452Y-55172544D01*
X178977455Y-55172547D01*
X179092664Y-55258793D01*
X179092671Y-55258797D01*
X179227517Y-55309091D01*
X179227516Y-55309091D01*
X179234444Y-55309835D01*
X179287127Y-55315500D01*
X181112872Y-55315499D01*
X181172483Y-55309091D01*
X181307331Y-55258796D01*
X181422546Y-55172546D01*
X181508796Y-55057331D01*
X181559091Y-54922483D01*
X181565500Y-54862873D01*
X181565499Y-52737128D01*
X181559091Y-52677517D01*
X181533475Y-52608838D01*
X181508797Y-52542671D01*
X181508793Y-52542664D01*
X181422547Y-52427455D01*
X181422544Y-52427452D01*
X181307335Y-52341206D01*
X181307328Y-52341202D01*
X181172482Y-52290908D01*
X181172483Y-52290908D01*
X181112883Y-52284501D01*
X181112881Y-52284500D01*
X181112873Y-52284500D01*
X181112864Y-52284500D01*
X179287129Y-52284500D01*
X179287123Y-52284501D01*
X179227516Y-52290908D01*
X179092671Y-52341202D01*
X179092664Y-52341206D01*
X178977455Y-52427452D01*
X178977452Y-52427455D01*
X178891206Y-52542664D01*
X178891202Y-52542671D01*
X178847952Y-52658633D01*
X178806081Y-52714567D01*
X178740617Y-52738984D01*
X178672344Y-52724133D01*
X178644089Y-52702981D01*
X178549565Y-52608457D01*
X178549563Y-52608455D01*
X178375678Y-52482120D01*
X178184170Y-52384541D01*
X178184167Y-52384540D01*
X177979757Y-52318124D01*
X177838229Y-52295708D01*
X177767467Y-52284500D01*
X177552533Y-52284500D01*
X177481770Y-52295708D01*
X177340243Y-52318124D01*
X177340240Y-52318124D01*
X177135832Y-52384540D01*
X177135829Y-52384541D01*
X176944321Y-52482120D01*
X176860981Y-52542671D01*
X176770437Y-52608455D01*
X176770435Y-52608457D01*
X176770434Y-52608457D01*
X176618457Y-52760434D01*
X176618457Y-52760435D01*
X176618455Y-52760437D01*
X176521023Y-52894539D01*
X176490318Y-52936802D01*
X176434988Y-52979467D01*
X176365374Y-52985446D01*
X176303579Y-52952840D01*
X176289682Y-52936802D01*
X176276836Y-52919121D01*
X176161545Y-52760437D01*
X176009563Y-52608455D01*
X175835678Y-52482120D01*
X175644170Y-52384541D01*
X175644167Y-52384540D01*
X175439757Y-52318124D01*
X175298229Y-52295708D01*
X175227467Y-52284500D01*
X175012533Y-52284500D01*
X174941770Y-52295708D01*
X174800243Y-52318124D01*
X174800240Y-52318124D01*
X174595832Y-52384540D01*
X174595829Y-52384541D01*
X174404321Y-52482120D01*
X174320981Y-52542671D01*
X174230437Y-52608455D01*
X174230435Y-52608457D01*
X174230434Y-52608457D01*
X174078457Y-52760434D01*
X174078457Y-52760435D01*
X174078455Y-52760437D01*
X174003589Y-52863480D01*
X173950009Y-52937227D01*
X173894679Y-52979892D01*
X173825065Y-52985871D01*
X173763270Y-52953265D01*
X173749373Y-52937227D01*
X173621161Y-52760759D01*
X173469240Y-52608838D01*
X173295416Y-52482547D01*
X173103975Y-52385003D01*
X172899635Y-52318610D01*
X172899636Y-52318610D01*
X172830000Y-52307581D01*
X172830000Y-53355439D01*
X172776853Y-53324755D01*
X172647143Y-53290000D01*
X172512857Y-53290000D01*
X172383147Y-53324755D01*
X172330000Y-53355439D01*
X172330000Y-52307581D01*
X172260364Y-52318610D01*
X172056024Y-52385003D01*
X171864583Y-52482547D01*
X171690759Y-52608838D01*
X171538838Y-52760759D01*
X171412547Y-52934583D01*
X171315003Y-53126024D01*
X171248611Y-53330357D01*
X171248611Y-53330360D01*
X171215000Y-53542572D01*
X171215000Y-53550000D01*
X172135440Y-53550000D01*
X172104755Y-53603147D01*
X172070000Y-53732857D01*
X172070000Y-53867143D01*
X172104755Y-53996853D01*
X172135440Y-54050000D01*
X171215000Y-54050000D01*
X171215000Y-54057427D01*
X171248611Y-54269639D01*
X171248611Y-54269642D01*
X171315003Y-54473975D01*
X171412547Y-54665416D01*
X171538838Y-54839240D01*
X171690759Y-54991161D01*
X171864583Y-55117452D01*
X172056024Y-55214996D01*
X172260359Y-55281388D01*
X172329999Y-55292418D01*
X172330000Y-55292418D01*
X172330000Y-54244560D01*
X172383147Y-54275245D01*
X172512857Y-54310000D01*
X172647143Y-54310000D01*
X172776853Y-54275245D01*
X172830000Y-54244560D01*
X172830000Y-55292418D01*
X172899638Y-55281388D01*
X172899641Y-55281388D01*
X173103975Y-55214996D01*
X173295416Y-55117452D01*
X173469240Y-54991161D01*
X173621161Y-54839240D01*
X173621166Y-54839234D01*
X173749373Y-54662773D01*
X173804703Y-54620107D01*
X173874316Y-54614128D01*
X173936111Y-54646734D01*
X173950009Y-54662772D01*
X173952119Y-54665676D01*
X173952120Y-54665678D01*
X174078455Y-54839563D01*
X174230437Y-54991545D01*
X174404322Y-55117880D01*
X174455198Y-55143803D01*
X174482934Y-55157935D01*
X174533730Y-55205910D01*
X174550525Y-55273731D01*
X174527987Y-55339866D01*
X174514321Y-55356101D01*
X174455643Y-55414779D01*
X174455641Y-55414782D01*
X174362043Y-55554861D01*
X174297569Y-55710517D01*
X174297567Y-55710523D01*
X174264700Y-55875757D01*
X174264700Y-55875760D01*
X174264700Y-56044240D01*
X174264700Y-56044242D01*
X174264699Y-56044242D01*
X174297567Y-56209476D01*
X174297569Y-56209482D01*
X174362042Y-56365134D01*
X174456572Y-56506610D01*
X174477449Y-56573287D01*
X174458964Y-56640667D01*
X174406985Y-56687357D01*
X174353469Y-56699500D01*
X165179057Y-56699500D01*
X165020942Y-56699500D01*
X164868215Y-56740423D01*
X164868214Y-56740423D01*
X164868212Y-56740424D01*
X164868209Y-56740425D01*
X164818096Y-56769359D01*
X164818095Y-56769360D01*
X164774689Y-56794420D01*
X164731285Y-56819479D01*
X164731282Y-56819481D01*
X164619478Y-56931286D01*
X159884522Y-61666241D01*
X159823199Y-61699726D01*
X159758523Y-61696491D01*
X159716245Y-61682754D01*
X159556102Y-61657390D01*
X159506287Y-61649500D01*
X159293713Y-61649500D01*
X159245042Y-61657208D01*
X159083760Y-61682753D01*
X158881585Y-61748444D01*
X158692179Y-61844951D01*
X158520213Y-61969890D01*
X158369890Y-62120213D01*
X158244951Y-62292180D01*
X158210485Y-62359823D01*
X158162510Y-62410619D01*
X158094689Y-62427414D01*
X158028554Y-62404876D01*
X157989515Y-62359823D01*
X157973024Y-62327459D01*
X157955051Y-62292184D01*
X157924835Y-62250595D01*
X157830109Y-62120213D01*
X157679786Y-61969890D01*
X157507820Y-61844951D01*
X157318414Y-61748444D01*
X157318413Y-61748443D01*
X157318412Y-61748443D01*
X157116243Y-61682754D01*
X157116241Y-61682753D01*
X157116240Y-61682753D01*
X156954957Y-61657208D01*
X156906287Y-61649500D01*
X156693713Y-61649500D01*
X156645042Y-61657208D01*
X156483760Y-61682753D01*
X156281585Y-61748444D01*
X156092179Y-61844951D01*
X155920213Y-61969890D01*
X155769894Y-62120209D01*
X155769890Y-62120214D01*
X155650318Y-62284793D01*
X155594989Y-62327459D01*
X155525375Y-62333438D01*
X155463580Y-62300833D01*
X155449682Y-62284793D01*
X155330109Y-62120214D01*
X155330105Y-62120209D01*
X155179786Y-61969890D01*
X155007820Y-61844951D01*
X154818414Y-61748444D01*
X154818413Y-61748443D01*
X154818412Y-61748443D01*
X154616243Y-61682754D01*
X154616241Y-61682753D01*
X154616240Y-61682753D01*
X154454957Y-61657208D01*
X154406287Y-61649500D01*
X154193713Y-61649500D01*
X154143898Y-61657390D01*
X154074604Y-61648435D01*
X154021152Y-61603439D01*
X154000513Y-61536688D01*
X154000500Y-61534917D01*
X154000500Y-51124499D01*
X154020185Y-51057460D01*
X154072989Y-51011705D01*
X154124500Y-51000499D01*
X154447871Y-51000499D01*
X154447872Y-51000499D01*
X154507483Y-50994091D01*
X154642331Y-50943796D01*
X154757546Y-50857546D01*
X154843796Y-50742331D01*
X154894091Y-50607483D01*
X154900500Y-50547873D01*
X154900499Y-49381947D01*
X159500000Y-49381947D01*
X159500000Y-49618052D01*
X159536934Y-49851247D01*
X159609897Y-50075802D01*
X159717087Y-50286174D01*
X159777338Y-50369104D01*
X159777340Y-50369105D01*
X160517037Y-49629408D01*
X160534075Y-49692993D01*
X160599901Y-49807007D01*
X160692993Y-49900099D01*
X160807007Y-49965925D01*
X160870590Y-49982962D01*
X160130893Y-50722658D01*
X160213828Y-50782914D01*
X160424197Y-50890102D01*
X160648752Y-50963065D01*
X160648751Y-50963065D01*
X160881948Y-51000000D01*
X161118052Y-51000000D01*
X161351247Y-50963065D01*
X161575802Y-50890102D01*
X161786163Y-50782918D01*
X161786169Y-50782914D01*
X161869104Y-50722658D01*
X161869105Y-50722658D01*
X161129408Y-49982962D01*
X161192993Y-49965925D01*
X161307007Y-49900099D01*
X161400099Y-49807007D01*
X161465925Y-49692993D01*
X161482962Y-49629409D01*
X162222658Y-50369105D01*
X162222658Y-50369104D01*
X162282914Y-50286169D01*
X162282918Y-50286163D01*
X162390102Y-50075802D01*
X162463065Y-49851247D01*
X162500000Y-49618052D01*
X162500000Y-49381947D01*
X162463065Y-49148752D01*
X162390102Y-48924197D01*
X162282914Y-48713828D01*
X162222658Y-48630894D01*
X162222658Y-48630893D01*
X161482962Y-49370590D01*
X161465925Y-49307007D01*
X161400099Y-49192993D01*
X161307007Y-49099901D01*
X161192993Y-49034075D01*
X161129409Y-49017037D01*
X161869105Y-48277340D01*
X161869104Y-48277338D01*
X161786174Y-48217087D01*
X161575802Y-48109897D01*
X161351247Y-48036934D01*
X161351248Y-48036934D01*
X161118052Y-48000000D01*
X160881948Y-48000000D01*
X160648752Y-48036934D01*
X160424197Y-48109897D01*
X160213830Y-48217084D01*
X160130894Y-48277340D01*
X160870591Y-49017037D01*
X160807007Y-49034075D01*
X160692993Y-49099901D01*
X160599901Y-49192993D01*
X160534075Y-49307007D01*
X160517037Y-49370591D01*
X159777340Y-48630894D01*
X159717084Y-48713830D01*
X159609897Y-48924197D01*
X159536934Y-49148752D01*
X159500000Y-49381947D01*
X154900499Y-49381947D01*
X154900499Y-48452128D01*
X154894091Y-48392517D01*
X154894090Y-48392514D01*
X154884922Y-48367931D01*
X154843797Y-48257671D01*
X154843793Y-48257664D01*
X154757547Y-48142455D01*
X154757544Y-48142452D01*
X154642335Y-48056206D01*
X154642328Y-48056202D01*
X154507482Y-48005908D01*
X154507483Y-48005908D01*
X154447883Y-47999501D01*
X154447881Y-47999500D01*
X154447873Y-47999500D01*
X154447864Y-47999500D01*
X152352129Y-47999500D01*
X152352123Y-47999501D01*
X152292516Y-48005908D01*
X152157671Y-48056202D01*
X152157664Y-48056206D01*
X152042455Y-48142452D01*
X152042452Y-48142455D01*
X151956206Y-48257664D01*
X151956202Y-48257671D01*
X151905908Y-48392517D01*
X151899501Y-48452116D01*
X151899501Y-48452123D01*
X151899500Y-48452135D01*
X151899500Y-50547870D01*
X151899501Y-50547876D01*
X151905908Y-50607483D01*
X151956202Y-50742328D01*
X151956206Y-50742335D01*
X152042452Y-50857544D01*
X152042455Y-50857547D01*
X152157664Y-50943793D01*
X152157671Y-50943797D01*
X152202618Y-50960561D01*
X152292517Y-50994091D01*
X152352127Y-51000500D01*
X152675500Y-51000499D01*
X152742539Y-51020183D01*
X152788294Y-51072987D01*
X152799500Y-51124499D01*
X152799500Y-61890242D01*
X152779815Y-61957281D01*
X152727011Y-62003036D01*
X152657853Y-62012980D01*
X152594297Y-61983955D01*
X152587819Y-61977923D01*
X152579786Y-61969890D01*
X152407820Y-61844951D01*
X152218414Y-61748444D01*
X152218413Y-61748443D01*
X152218412Y-61748443D01*
X152016243Y-61682754D01*
X152016241Y-61682753D01*
X152016240Y-61682753D01*
X151854957Y-61657208D01*
X151806287Y-61649500D01*
X151593713Y-61649500D01*
X151545042Y-61657208D01*
X151383760Y-61682753D01*
X151181585Y-61748444D01*
X150992179Y-61844951D01*
X150820213Y-61969890D01*
X150669894Y-62120209D01*
X150669890Y-62120214D01*
X150550318Y-62284793D01*
X150494989Y-62327459D01*
X150425375Y-62333438D01*
X150363580Y-62300833D01*
X150349682Y-62284793D01*
X150230109Y-62120214D01*
X150230105Y-62120209D01*
X150079786Y-61969890D01*
X149907820Y-61844951D01*
X149718414Y-61748444D01*
X149718413Y-61748443D01*
X149718412Y-61748443D01*
X149516243Y-61682754D01*
X149516241Y-61682753D01*
X149516240Y-61682753D01*
X149354957Y-61657208D01*
X149306287Y-61649500D01*
X149093713Y-61649500D01*
X149045042Y-61657208D01*
X148883760Y-61682753D01*
X148681585Y-61748444D01*
X148492179Y-61844951D01*
X148320213Y-61969890D01*
X148169894Y-62120209D01*
X148169890Y-62120214D01*
X148050318Y-62284793D01*
X147994989Y-62327459D01*
X147925375Y-62333438D01*
X147863580Y-62300833D01*
X147849682Y-62284793D01*
X147730109Y-62120214D01*
X147730105Y-62120209D01*
X147579786Y-61969890D01*
X147407820Y-61844951D01*
X147218414Y-61748444D01*
X147218413Y-61748443D01*
X147218412Y-61748443D01*
X147016243Y-61682754D01*
X147016241Y-61682753D01*
X147016240Y-61682753D01*
X146854957Y-61657208D01*
X146806287Y-61649500D01*
X146593713Y-61649500D01*
X146545042Y-61657208D01*
X146383760Y-61682753D01*
X146181585Y-61748444D01*
X145992179Y-61844951D01*
X145820213Y-61969890D01*
X145669890Y-62120213D01*
X145544951Y-62292180D01*
X145510485Y-62359823D01*
X145462510Y-62410619D01*
X145394689Y-62427414D01*
X145328554Y-62404876D01*
X145289515Y-62359823D01*
X145273024Y-62327459D01*
X145255051Y-62292184D01*
X145224835Y-62250595D01*
X145130109Y-62120213D01*
X144979786Y-61969890D01*
X144807820Y-61844951D01*
X144618414Y-61748444D01*
X144618413Y-61748443D01*
X144618412Y-61748443D01*
X144416243Y-61682754D01*
X144416241Y-61682753D01*
X144416240Y-61682753D01*
X144254957Y-61657208D01*
X144206287Y-61649500D01*
X143993713Y-61649500D01*
X143945042Y-61657208D01*
X143783760Y-61682753D01*
X143581585Y-61748444D01*
X143392179Y-61844951D01*
X143220213Y-61969890D01*
X143069894Y-62120209D01*
X143069890Y-62120214D01*
X142950318Y-62284793D01*
X142894989Y-62327459D01*
X142825375Y-62333438D01*
X142763580Y-62300833D01*
X142749682Y-62284793D01*
X142630109Y-62120214D01*
X142630105Y-62120209D01*
X142479786Y-61969890D01*
X142307820Y-61844951D01*
X142118414Y-61748444D01*
X142118413Y-61748443D01*
X142118412Y-61748443D01*
X141916243Y-61682754D01*
X141916241Y-61682753D01*
X141916240Y-61682753D01*
X141754957Y-61657208D01*
X141706287Y-61649500D01*
X141493713Y-61649500D01*
X141445042Y-61657208D01*
X141283760Y-61682753D01*
X141081585Y-61748444D01*
X140892179Y-61844951D01*
X140720213Y-61969890D01*
X140569890Y-62120213D01*
X140444951Y-62292180D01*
X140410485Y-62359823D01*
X140362510Y-62410619D01*
X140294689Y-62427414D01*
X140228554Y-62404876D01*
X140189515Y-62359823D01*
X140173024Y-62327459D01*
X140155051Y-62292184D01*
X140124835Y-62250595D01*
X140030109Y-62120213D01*
X139879786Y-61969890D01*
X139707820Y-61844951D01*
X139518414Y-61748444D01*
X139518413Y-61748443D01*
X139518412Y-61748443D01*
X139316243Y-61682754D01*
X139316241Y-61682753D01*
X139316240Y-61682753D01*
X139154957Y-61657208D01*
X139106287Y-61649500D01*
X138893713Y-61649500D01*
X138845042Y-61657208D01*
X138683760Y-61682753D01*
X138481585Y-61748444D01*
X138292179Y-61844951D01*
X138120213Y-61969890D01*
X137969894Y-62120209D01*
X137969890Y-62120214D01*
X137850318Y-62284793D01*
X137794989Y-62327459D01*
X137725375Y-62333438D01*
X137663580Y-62300833D01*
X137649682Y-62284793D01*
X137530109Y-62120214D01*
X137530105Y-62120209D01*
X137379786Y-61969890D01*
X137207820Y-61844951D01*
X137018414Y-61748444D01*
X137018413Y-61748443D01*
X137018412Y-61748443D01*
X136816243Y-61682754D01*
X136816241Y-61682753D01*
X136816240Y-61682753D01*
X136654957Y-61657208D01*
X136606287Y-61649500D01*
X136393713Y-61649500D01*
X136345042Y-61657208D01*
X136183760Y-61682753D01*
X135981585Y-61748444D01*
X135792179Y-61844951D01*
X135620213Y-61969890D01*
X135469894Y-62120209D01*
X135469890Y-62120214D01*
X135350318Y-62284793D01*
X135294989Y-62327459D01*
X135225375Y-62333438D01*
X135163580Y-62300833D01*
X135149682Y-62284793D01*
X135030109Y-62120214D01*
X135030105Y-62120209D01*
X134879786Y-61969890D01*
X134707820Y-61844951D01*
X134518414Y-61748444D01*
X134518413Y-61748443D01*
X134518412Y-61748443D01*
X134316243Y-61682754D01*
X134316241Y-61682753D01*
X134316240Y-61682753D01*
X134154957Y-61657208D01*
X134106287Y-61649500D01*
X133893713Y-61649500D01*
X133845042Y-61657208D01*
X133683760Y-61682753D01*
X133481585Y-61748444D01*
X133292179Y-61844951D01*
X133120213Y-61969890D01*
X132969890Y-62120213D01*
X132844949Y-62292182D01*
X132784726Y-62410375D01*
X132736752Y-62461170D01*
X132668930Y-62477965D01*
X132602796Y-62455427D01*
X132563756Y-62410371D01*
X132554622Y-62392443D01*
X132429727Y-62220540D01*
X132429723Y-62220535D01*
X132279464Y-62070276D01*
X132279459Y-62070272D01*
X132107557Y-61945379D01*
X131918215Y-61848903D01*
X131716124Y-61783241D01*
X131650000Y-61772768D01*
X131650000Y-62666988D01*
X131592993Y-62634075D01*
X131465826Y-62600000D01*
X131334174Y-62600000D01*
X131207007Y-62634075D01*
X131150000Y-62666988D01*
X131150000Y-61772768D01*
X131149999Y-61772768D01*
X131083875Y-61783241D01*
X130881784Y-61848903D01*
X130692442Y-61945379D01*
X130520540Y-62070272D01*
X130520535Y-62070276D01*
X130370276Y-62220535D01*
X130370272Y-62220540D01*
X130245379Y-62392442D01*
X130148904Y-62581782D01*
X130083242Y-62783869D01*
X130083242Y-62783870D01*
X130053710Y-62970324D01*
X130023780Y-63033458D01*
X129964469Y-63070389D01*
X129894606Y-63069391D01*
X129836374Y-63030781D01*
X129826243Y-63016897D01*
X129717523Y-62843870D01*
X129542416Y-62624293D01*
X129343825Y-62425702D01*
X129323913Y-62409823D01*
X129261215Y-62359823D01*
X129124248Y-62250595D01*
X128917259Y-62120535D01*
X128886442Y-62101171D01*
X128633411Y-61979318D01*
X128368329Y-61886561D01*
X128368317Y-61886557D01*
X128094512Y-61824063D01*
X128094494Y-61824060D01*
X127815431Y-61792618D01*
X127815425Y-61792618D01*
X127534575Y-61792618D01*
X127534568Y-61792618D01*
X127255505Y-61824060D01*
X127255487Y-61824063D01*
X126981682Y-61886557D01*
X126981670Y-61886561D01*
X126716588Y-61979318D01*
X126463557Y-62101171D01*
X126225753Y-62250594D01*
X126006175Y-62425701D01*
X125807583Y-62624293D01*
X125632476Y-62843871D01*
X125483053Y-63081675D01*
X125361200Y-63334706D01*
X125268443Y-63599788D01*
X125268439Y-63599800D01*
X125205945Y-63873605D01*
X125205942Y-63873623D01*
X125174500Y-64152686D01*
X125174500Y-64433549D01*
X125205942Y-64712612D01*
X125205945Y-64712630D01*
X125268439Y-64986435D01*
X125268443Y-64986447D01*
X125361200Y-65251529D01*
X125483053Y-65504560D01*
X125483055Y-65504563D01*
X125632477Y-65742366D01*
X125807584Y-65961943D01*
X126006175Y-66160534D01*
X126225752Y-66335641D01*
X126463555Y-66485063D01*
X126716592Y-66606919D01*
X126915680Y-66676583D01*
X126981670Y-66699674D01*
X126981682Y-66699678D01*
X127255491Y-66762173D01*
X127255497Y-66762173D01*
X127255505Y-66762175D01*
X127441547Y-66783136D01*
X127534569Y-66793617D01*
X127534572Y-66793618D01*
X127534575Y-66793618D01*
X127815428Y-66793618D01*
X127815429Y-66793617D01*
X127958055Y-66777547D01*
X128094494Y-66762175D01*
X128094499Y-66762174D01*
X128094509Y-66762173D01*
X128368318Y-66699678D01*
X128633408Y-66606919D01*
X128886445Y-66485063D01*
X129124248Y-66335641D01*
X129343825Y-66160534D01*
X129542416Y-65961943D01*
X129717523Y-65742366D01*
X129866945Y-65504563D01*
X129988801Y-65251526D01*
X130081560Y-64986436D01*
X130144055Y-64712627D01*
X130175500Y-64433543D01*
X130175500Y-64152693D01*
X130168448Y-64090102D01*
X130180502Y-64021280D01*
X130227851Y-63969900D01*
X130295462Y-63952276D01*
X130361868Y-63974002D01*
X130379349Y-63988537D01*
X130520535Y-64129723D01*
X130520540Y-64129727D01*
X130692442Y-64254620D01*
X130881782Y-64351095D01*
X131083871Y-64416757D01*
X131150000Y-64427231D01*
X131150000Y-63533012D01*
X131207007Y-63565925D01*
X131334174Y-63600000D01*
X131465826Y-63600000D01*
X131592993Y-63565925D01*
X131650000Y-63533012D01*
X131650000Y-64427230D01*
X131716126Y-64416757D01*
X131716129Y-64416757D01*
X131918217Y-64351095D01*
X132107557Y-64254620D01*
X132279459Y-64129727D01*
X132279464Y-64129723D01*
X132429723Y-63979464D01*
X132429727Y-63979459D01*
X132554622Y-63807555D01*
X132614710Y-63689626D01*
X132662684Y-63638829D01*
X132730505Y-63622034D01*
X132796640Y-63644571D01*
X132835679Y-63689624D01*
X132844949Y-63707817D01*
X132969890Y-63879786D01*
X133120213Y-64030109D01*
X133292179Y-64155048D01*
X133292181Y-64155049D01*
X133292184Y-64155051D01*
X133481588Y-64251557D01*
X133683757Y-64317246D01*
X133893713Y-64350500D01*
X133893714Y-64350500D01*
X134106286Y-64350500D01*
X134106287Y-64350500D01*
X134316243Y-64317246D01*
X134518412Y-64251557D01*
X134707816Y-64155051D01*
X134742677Y-64129723D01*
X134879786Y-64030109D01*
X134879788Y-64030106D01*
X134879792Y-64030104D01*
X135030104Y-63879792D01*
X135149683Y-63715204D01*
X135205011Y-63672540D01*
X135274624Y-63666561D01*
X135336420Y-63699166D01*
X135350313Y-63715199D01*
X135417603Y-63807816D01*
X135469896Y-63879792D01*
X135620213Y-64030109D01*
X135792179Y-64155048D01*
X135792181Y-64155049D01*
X135792184Y-64155051D01*
X135981588Y-64251557D01*
X136183757Y-64317246D01*
X136393713Y-64350500D01*
X136393714Y-64350500D01*
X136606286Y-64350500D01*
X136606287Y-64350500D01*
X136816243Y-64317246D01*
X137018412Y-64251557D01*
X137207816Y-64155051D01*
X137242677Y-64129723D01*
X137379786Y-64030109D01*
X137379788Y-64030106D01*
X137379792Y-64030104D01*
X137530104Y-63879792D01*
X137649683Y-63715204D01*
X137705011Y-63672540D01*
X137774624Y-63666561D01*
X137836420Y-63699166D01*
X137850313Y-63715199D01*
X137917603Y-63807816D01*
X137969896Y-63879792D01*
X138120213Y-64030109D01*
X138292179Y-64155048D01*
X138292181Y-64155049D01*
X138292184Y-64155051D01*
X138481588Y-64251557D01*
X138683757Y-64317246D01*
X138893713Y-64350500D01*
X138893714Y-64350500D01*
X139106286Y-64350500D01*
X139106287Y-64350500D01*
X139316243Y-64317246D01*
X139518412Y-64251557D01*
X139707816Y-64155051D01*
X139742677Y-64129723D01*
X139879786Y-64030109D01*
X139879788Y-64030106D01*
X139879792Y-64030104D01*
X140030104Y-63879792D01*
X140030106Y-63879788D01*
X140030109Y-63879786D01*
X140155048Y-63707820D01*
X140155050Y-63707817D01*
X140155051Y-63707816D01*
X140189515Y-63640175D01*
X140237489Y-63589380D01*
X140305310Y-63572585D01*
X140371445Y-63595122D01*
X140410484Y-63640175D01*
X140426975Y-63672540D01*
X140444951Y-63707820D01*
X140569890Y-63879786D01*
X140720213Y-64030109D01*
X140892179Y-64155048D01*
X140892181Y-64155049D01*
X140892184Y-64155051D01*
X141081588Y-64251557D01*
X141283757Y-64317246D01*
X141493713Y-64350500D01*
X141493714Y-64350500D01*
X141706286Y-64350500D01*
X141706287Y-64350500D01*
X141916243Y-64317246D01*
X142118412Y-64251557D01*
X142307816Y-64155051D01*
X142342677Y-64129723D01*
X142479786Y-64030109D01*
X142479788Y-64030106D01*
X142479792Y-64030104D01*
X142630104Y-63879792D01*
X142749683Y-63715204D01*
X142805011Y-63672540D01*
X142874624Y-63666561D01*
X142936420Y-63699166D01*
X142950313Y-63715199D01*
X143017603Y-63807816D01*
X143069896Y-63879792D01*
X143220213Y-64030109D01*
X143392179Y-64155048D01*
X143392181Y-64155049D01*
X143392184Y-64155051D01*
X143581588Y-64251557D01*
X143783757Y-64317246D01*
X143993713Y-64350500D01*
X143993714Y-64350500D01*
X144206286Y-64350500D01*
X144206287Y-64350500D01*
X144416243Y-64317246D01*
X144618412Y-64251557D01*
X144807816Y-64155051D01*
X144842677Y-64129723D01*
X144979786Y-64030109D01*
X144979788Y-64030106D01*
X144979792Y-64030104D01*
X145130104Y-63879792D01*
X145130106Y-63879788D01*
X145130109Y-63879786D01*
X145255048Y-63707820D01*
X145255050Y-63707817D01*
X145255051Y-63707816D01*
X145289515Y-63640175D01*
X145337489Y-63589380D01*
X145405310Y-63572585D01*
X145471445Y-63595122D01*
X145510484Y-63640175D01*
X145526975Y-63672540D01*
X145544951Y-63707820D01*
X145669890Y-63879786D01*
X145820213Y-64030109D01*
X145992179Y-64155048D01*
X145992181Y-64155049D01*
X145992184Y-64155051D01*
X146181588Y-64251557D01*
X146383757Y-64317246D01*
X146593713Y-64350500D01*
X146593714Y-64350500D01*
X146806286Y-64350500D01*
X146806287Y-64350500D01*
X147016243Y-64317246D01*
X147218412Y-64251557D01*
X147407816Y-64155051D01*
X147442677Y-64129723D01*
X147579786Y-64030109D01*
X147579788Y-64030106D01*
X147579792Y-64030104D01*
X147730104Y-63879792D01*
X147849683Y-63715204D01*
X147905011Y-63672540D01*
X147974624Y-63666561D01*
X148036420Y-63699166D01*
X148050313Y-63715199D01*
X148117603Y-63807816D01*
X148169896Y-63879792D01*
X148320213Y-64030109D01*
X148492179Y-64155048D01*
X148492181Y-64155049D01*
X148492184Y-64155051D01*
X148681588Y-64251557D01*
X148883757Y-64317246D01*
X149093713Y-64350500D01*
X149093714Y-64350500D01*
X149306286Y-64350500D01*
X149306287Y-64350500D01*
X149516243Y-64317246D01*
X149718412Y-64251557D01*
X149907816Y-64155051D01*
X149942677Y-64129723D01*
X150079786Y-64030109D01*
X150079788Y-64030106D01*
X150079792Y-64030104D01*
X150230104Y-63879792D01*
X150349683Y-63715204D01*
X150405011Y-63672540D01*
X150474624Y-63666561D01*
X150536420Y-63699166D01*
X150550313Y-63715199D01*
X150617603Y-63807816D01*
X150669896Y-63879792D01*
X150820213Y-64030109D01*
X150992179Y-64155048D01*
X150992181Y-64155049D01*
X150992184Y-64155051D01*
X151181588Y-64251557D01*
X151383757Y-64317246D01*
X151593713Y-64350500D01*
X151593714Y-64350500D01*
X151806286Y-64350500D01*
X151806287Y-64350500D01*
X152016243Y-64317246D01*
X152218412Y-64251557D01*
X152407816Y-64155051D01*
X152442677Y-64129723D01*
X152579786Y-64030109D01*
X152579788Y-64030106D01*
X152579792Y-64030104D01*
X152730104Y-63879792D01*
X152730106Y-63879788D01*
X152730109Y-63879786D01*
X152855048Y-63707820D01*
X152855050Y-63707817D01*
X152855051Y-63707816D01*
X152889515Y-63640175D01*
X152937489Y-63589380D01*
X153005310Y-63572585D01*
X153071445Y-63595122D01*
X153110484Y-63640175D01*
X153126975Y-63672540D01*
X153144951Y-63707820D01*
X153269890Y-63879786D01*
X153420213Y-64030109D01*
X153592179Y-64155048D01*
X153592181Y-64155049D01*
X153592184Y-64155051D01*
X153781588Y-64251557D01*
X153983757Y-64317246D01*
X154193713Y-64350500D01*
X154193714Y-64350500D01*
X154300902Y-64350500D01*
X154367941Y-64370185D01*
X154413696Y-64422989D01*
X154423640Y-64492147D01*
X154394615Y-64555703D01*
X154388583Y-64562181D01*
X147788584Y-71162181D01*
X147727261Y-71195666D01*
X147700903Y-71198500D01*
X104937669Y-71198500D01*
X104937653Y-71198499D01*
X104930057Y-71198499D01*
X104771943Y-71198499D01*
X104664587Y-71227265D01*
X104619210Y-71239424D01*
X104619209Y-71239425D01*
X104569096Y-71268359D01*
X104569095Y-71268360D01*
X104525689Y-71293420D01*
X104482285Y-71318479D01*
X104482282Y-71318481D01*
X104370478Y-71430286D01*
X100524202Y-75276561D01*
X100462879Y-75310046D01*
X100398203Y-75306811D01*
X100373584Y-75298812D01*
X100327952Y-75283985D01*
X100219086Y-75266742D01*
X100110222Y-75249500D01*
X99889778Y-75249500D01*
X99817201Y-75260995D01*
X99672047Y-75283985D01*
X99462396Y-75352103D01*
X99462393Y-75352104D01*
X99265974Y-75452187D01*
X99087641Y-75581752D01*
X99087636Y-75581756D01*
X98931756Y-75737636D01*
X98931752Y-75737641D01*
X98830318Y-75877254D01*
X98774988Y-75919920D01*
X98705375Y-75925899D01*
X98643580Y-75893293D01*
X98629682Y-75877254D01*
X98528247Y-75737641D01*
X98528243Y-75737636D01*
X98372363Y-75581756D01*
X98372358Y-75581752D01*
X98194025Y-75452187D01*
X98194024Y-75452186D01*
X98194022Y-75452185D01*
X98131096Y-75420122D01*
X97997606Y-75352104D01*
X97997603Y-75352103D01*
X97787952Y-75283985D01*
X97679086Y-75266742D01*
X97570222Y-75249500D01*
X97349778Y-75249500D01*
X97277201Y-75260995D01*
X97132047Y-75283985D01*
X96922396Y-75352103D01*
X96922393Y-75352104D01*
X96725974Y-75452187D01*
X96547641Y-75581752D01*
X96547636Y-75581756D01*
X96391756Y-75737636D01*
X96391752Y-75737641D01*
X96262187Y-75915974D01*
X96162104Y-76112393D01*
X96162103Y-76112396D01*
X96093985Y-76322047D01*
X96059500Y-76539778D01*
X91881500Y-76539778D01*
X91881500Y-45742534D01*
X136214500Y-45742534D01*
X136214500Y-46257465D01*
X136248124Y-46469756D01*
X136248124Y-46469759D01*
X136314540Y-46674167D01*
X136314541Y-46674170D01*
X136402684Y-46847159D01*
X136412120Y-46865678D01*
X136538455Y-47039563D01*
X136690437Y-47191545D01*
X136864322Y-47317880D01*
X136942935Y-47357935D01*
X137055829Y-47415458D01*
X137055832Y-47415459D01*
X137235177Y-47473731D01*
X137260245Y-47481876D01*
X137472533Y-47515500D01*
X137472534Y-47515500D01*
X137687466Y-47515500D01*
X137687467Y-47515500D01*
X137899755Y-47481876D01*
X137899758Y-47481875D01*
X137899759Y-47481875D01*
X138104167Y-47415459D01*
X138104170Y-47415458D01*
X138122909Y-47405910D01*
X138295678Y-47317880D01*
X138469563Y-47191545D01*
X138621545Y-47039563D01*
X138747880Y-46865678D01*
X138747879Y-46865678D01*
X138749682Y-46863198D01*
X138805012Y-46820532D01*
X138874625Y-46814553D01*
X138936420Y-46847159D01*
X138950318Y-46863198D01*
X138952120Y-46865678D01*
X139078455Y-47039563D01*
X139230437Y-47191545D01*
X139404322Y-47317880D01*
X139455198Y-47343803D01*
X139482934Y-47357935D01*
X139533730Y-47405910D01*
X139550525Y-47473731D01*
X139527987Y-47539866D01*
X139514321Y-47556101D01*
X139455643Y-47614779D01*
X139455641Y-47614782D01*
X139362043Y-47754861D01*
X139297569Y-47910517D01*
X139297567Y-47910523D01*
X139264700Y-48075757D01*
X139264700Y-48075760D01*
X139264700Y-48244240D01*
X139264700Y-48244242D01*
X139264699Y-48244242D01*
X139297567Y-48409476D01*
X139297569Y-48409482D01*
X139362043Y-48565138D01*
X139455641Y-48705217D01*
X139455647Y-48705225D01*
X139574774Y-48824352D01*
X139574782Y-48824358D01*
X139714861Y-48917956D01*
X139760451Y-48936840D01*
X139870518Y-48982431D01*
X139870522Y-48982431D01*
X139870523Y-48982432D01*
X140035757Y-49015300D01*
X140035760Y-49015300D01*
X140204242Y-49015300D01*
X140315409Y-48993186D01*
X140369482Y-48982431D01*
X140525136Y-48917957D01*
X140525136Y-48917956D01*
X140525138Y-48917956D01*
X140594709Y-48871469D01*
X140665222Y-48824355D01*
X140784355Y-48705222D01*
X140877957Y-48565136D01*
X140942431Y-48409482D01*
X140968716Y-48277340D01*
X140975300Y-48244242D01*
X140975300Y-48075757D01*
X140942432Y-47910523D01*
X140942431Y-47910522D01*
X140942431Y-47910518D01*
X140877957Y-47754864D01*
X140877956Y-47754861D01*
X140784358Y-47614782D01*
X140784352Y-47614774D01*
X140725679Y-47556101D01*
X140692194Y-47494778D01*
X140697178Y-47425086D01*
X140739050Y-47369153D01*
X140757065Y-47357935D01*
X140835678Y-47317880D01*
X141009563Y-47191545D01*
X141161545Y-47039563D01*
X141287880Y-46865678D01*
X141287881Y-46865675D01*
X141289990Y-46862773D01*
X141345320Y-46820107D01*
X141414933Y-46814128D01*
X141476728Y-46846734D01*
X141490626Y-46862772D01*
X141618838Y-47039239D01*
X141618838Y-47039240D01*
X141770759Y-47191161D01*
X141944583Y-47317452D01*
X142136024Y-47414996D01*
X142340359Y-47481388D01*
X142409999Y-47492418D01*
X142410000Y-47492418D01*
X142410000Y-46444560D01*
X142463147Y-46475245D01*
X142592857Y-46510000D01*
X142727143Y-46510000D01*
X142856853Y-46475245D01*
X142910000Y-46444560D01*
X142910000Y-47492418D01*
X142979638Y-47481388D01*
X142979641Y-47481388D01*
X143183975Y-47414996D01*
X143375416Y-47317452D01*
X143549236Y-47191164D01*
X143643896Y-47096504D01*
X143705219Y-47063019D01*
X143774911Y-47068003D01*
X143830845Y-47109874D01*
X143847760Y-47140852D01*
X143891202Y-47257328D01*
X143891206Y-47257335D01*
X143977452Y-47372544D01*
X143977455Y-47372547D01*
X144092664Y-47458793D01*
X144092671Y-47458797D01*
X144227517Y-47509091D01*
X144227516Y-47509091D01*
X144234444Y-47509835D01*
X144287127Y-47515500D01*
X146112872Y-47515499D01*
X146172483Y-47509091D01*
X146307331Y-47458796D01*
X146422546Y-47372546D01*
X146508796Y-47257331D01*
X146559091Y-47122483D01*
X146565500Y-47062873D01*
X146565499Y-44937128D01*
X146559091Y-44877517D01*
X146552239Y-44859147D01*
X146508797Y-44742671D01*
X146508793Y-44742664D01*
X146422547Y-44627455D01*
X146422544Y-44627452D01*
X146307335Y-44541206D01*
X146307328Y-44541202D01*
X146172482Y-44490908D01*
X146172483Y-44490908D01*
X146112883Y-44484501D01*
X146112881Y-44484500D01*
X146112873Y-44484500D01*
X146112864Y-44484500D01*
X144287129Y-44484500D01*
X144287123Y-44484501D01*
X144227516Y-44490908D01*
X144092671Y-44541202D01*
X144092664Y-44541206D01*
X143977455Y-44627452D01*
X143977452Y-44627455D01*
X143891206Y-44742664D01*
X143891202Y-44742671D01*
X143847760Y-44859147D01*
X143805889Y-44915081D01*
X143740425Y-44939498D01*
X143672152Y-44924646D01*
X143643897Y-44903495D01*
X143549240Y-44808838D01*
X143375416Y-44682547D01*
X143183975Y-44585003D01*
X142979635Y-44518610D01*
X142979636Y-44518610D01*
X142910000Y-44507581D01*
X142910000Y-45555439D01*
X142856853Y-45524755D01*
X142727143Y-45490000D01*
X142592857Y-45490000D01*
X142463147Y-45524755D01*
X142410000Y-45555439D01*
X142410000Y-44507581D01*
X142340364Y-44518610D01*
X142136024Y-44585003D01*
X141944583Y-44682547D01*
X141770759Y-44808838D01*
X141618838Y-44960759D01*
X141618838Y-44960760D01*
X141490626Y-45137227D01*
X141435296Y-45179892D01*
X141365682Y-45185871D01*
X141303887Y-45153265D01*
X141289990Y-45137226D01*
X141239079Y-45067153D01*
X141161545Y-44960437D01*
X141009563Y-44808455D01*
X140835678Y-44682120D01*
X140644170Y-44584541D01*
X140644167Y-44584540D01*
X140439757Y-44518124D01*
X140298229Y-44495708D01*
X140227467Y-44484500D01*
X140012533Y-44484500D01*
X139941770Y-44495708D01*
X139800243Y-44518124D01*
X139800240Y-44518124D01*
X139595832Y-44584540D01*
X139595829Y-44584541D01*
X139404321Y-44682120D01*
X139320981Y-44742671D01*
X139230437Y-44808455D01*
X139230435Y-44808457D01*
X139230434Y-44808457D01*
X139078457Y-44960434D01*
X139078457Y-44960435D01*
X139078455Y-44960437D01*
X138981023Y-45094539D01*
X138950318Y-45136802D01*
X138894988Y-45179467D01*
X138825374Y-45185446D01*
X138763579Y-45152840D01*
X138749682Y-45136802D01*
X138736836Y-45119121D01*
X138621545Y-44960437D01*
X138469563Y-44808455D01*
X138295678Y-44682120D01*
X138104170Y-44584541D01*
X138104167Y-44584540D01*
X137899757Y-44518124D01*
X137758229Y-44495708D01*
X137687467Y-44484500D01*
X137472533Y-44484500D01*
X137401770Y-44495708D01*
X137260243Y-44518124D01*
X137260240Y-44518124D01*
X137055832Y-44584540D01*
X137055829Y-44584541D01*
X136864321Y-44682120D01*
X136780981Y-44742671D01*
X136690437Y-44808455D01*
X136690435Y-44808457D01*
X136690434Y-44808457D01*
X136538457Y-44960434D01*
X136538457Y-44960435D01*
X136538455Y-44960437D01*
X136484198Y-45035114D01*
X136412120Y-45134321D01*
X136314541Y-45325829D01*
X136314540Y-45325832D01*
X136248124Y-45530240D01*
X136248124Y-45530243D01*
X136214500Y-45742534D01*
X91881500Y-45742534D01*
X91881500Y-42005500D01*
X91901185Y-41938461D01*
X91953989Y-41892706D01*
X92005500Y-41881500D01*
X186994500Y-41881500D01*
X187061539Y-41901185D01*
G37*
%TD.AperFunction*%
%TD*%
M02*
