M48
; DRILL file {KiCad 9.0.6} date 2025-12-20T14:02:03+0530
; FORMAT={-:-/ absolute / metric / decimal}
; #@! TF.CreationDate,2025-12-20T14:02:03+05:30
; #@! TF.GenerationSoftware,Kicad,Pcbnew,9.0.6
; #@! TF.FileFunction,Plated,1,2,PTH
FMAT,2
METRIC
; #@! TA.AperFunction,Plated,PTH,ViaDrill
T1C0.356
; #@! TA.AperFunction,Plated,PTH,ComponentDrill
T2C0.800
; #@! TA.AperFunction,Plated,PTH,ComponentDrill
T3C1.000
; #@! TA.AperFunction,Plated,PTH,ComponentDrill
T4C1.020
; #@! TA.AperFunction,Plated,PTH,ComponentDrill
T5C1.750
; #@! TA.AperFunction,Plated,PTH,ComponentDrill
T6C2.500
%
G90
G05
T1
X137.4Y-74.38
X144.6Y-81.1
X154.6Y-66.7
X162.4Y-53.8
T2
X112.4Y-72.9
X120.0Y-72.9
X140.36Y-87.1
X140.36Y-94.72
X142.9Y-87.1
X142.9Y-94.72
X145.44Y-87.1
X145.44Y-94.72
X147.98Y-87.1
X147.98Y-94.72
X150.52Y-87.1
X150.52Y-94.72
X153.06Y-87.1
X153.06Y-94.72
X155.6Y-87.1
X155.6Y-94.72
X158.14Y-87.1
X158.14Y-94.72
T3
X97.46Y-76.65
X100.0Y-76.65
X102.54Y-76.65
X131.4Y-63.1
X131.6Y-83.3
X134.0Y-63.0
X134.0Y-83.3
X136.5Y-63.0
X136.6Y-83.3
X139.0Y-63.0
X139.1Y-83.3
X141.5Y-83.3
X141.6Y-63.0
X144.1Y-63.0
X144.2Y-83.4
X146.7Y-63.0
X146.7Y-83.4
X149.2Y-63.0
X149.3Y-83.4
X151.7Y-63.0
X151.8Y-83.4
X153.4Y-49.5
X154.3Y-63.0
X154.3Y-83.4
X156.8Y-63.0
X156.9Y-83.4
X159.4Y-63.0
X159.4Y-83.4
X161.0Y-49.5
X161.9Y-63.0
X164.4Y-63.0
X167.0Y-63.1
X169.5Y-63.1
T4
X124.58Y-91.1
X127.12Y-91.1
X129.66Y-91.1
X132.2Y-91.1
X137.58Y-46.0
X140.12Y-46.0
X142.66Y-46.0
X145.2Y-46.0
X172.58Y-53.8
X175.12Y-53.8
X177.66Y-53.8
X180.2Y-53.8
T5
X137.427Y-102.85
X141.308Y-102.85
X153.32Y-101.3
X157.2Y-101.3
X181.05Y-87.328
X181.05Y-91.207
T6
X127.625Y-81.943
X127.675Y-64.293
X173.275Y-82.093
X173.375Y-64.293
M30
