%TF.GenerationSoftware,KiCad,Pcbnew,9.0.6*%
%TF.CreationDate,2025-12-20T14:01:59+05:30*%
%TF.ProjectId,lion_circuits_temp,6c696f6e-5f63-4697-9263-756974735f74,V 1.0*%
%TF.SameCoordinates,Original*%
%TF.FileFunction,Copper,L2,Bot*%
%TF.FilePolarity,Positive*%
%FSLAX46Y46*%
G04 Gerber Fmt 4.6, Leading zero omitted, Abs format (unit mm)*
G04 Created by KiCad (PCBNEW 9.0.6) date 2025-12-20 14:01:59*
%MOMM*%
%LPD*%
G01*
G04 APERTURE LIST*
G04 Aperture macros list*
%AMRoundRect*
0 Rectangle with rounded corners*
0 $1 Rounding radius*
0 $2 $3 $4 $5 $6 $7 $8 $9 X,Y pos of 4 corners*
0 Add a 4 corners polygon primitive as box body*
4,1,4,$2,$3,$4,$5,$6,$7,$8,$9,$2,$3,0*
0 Add four circle primitives for the rounded corners*
1,1,$1+$1,$2,$3*
1,1,$1+$1,$4,$5*
1,1,$1+$1,$6,$7*
1,1,$1+$1,$8,$9*
0 Add four rect primitives between the rounded corners*
20,1,$1+$1,$2,$3,$4,$5,0*
20,1,$1+$1,$4,$5,$6,$7,0*
20,1,$1+$1,$6,$7,$8,$9,0*
20,1,$1+$1,$8,$9,$2,$3,0*%
G04 Aperture macros list end*
%TA.AperFunction,ComponentPad*%
%ADD10C,4.000000*%
%TD*%
%TA.AperFunction,ComponentPad*%
%ADD11O,1.700000X1.700000*%
%TD*%
%TA.AperFunction,ComponentPad*%
%ADD12R,1.700000X1.700000*%
%TD*%
%TA.AperFunction,ComponentPad*%
%ADD13R,3.000000X3.000000*%
%TD*%
%TA.AperFunction,ComponentPad*%
%ADD14C,3.000000*%
%TD*%
%TA.AperFunction,ComponentPad*%
%ADD15R,2.000000X2.000000*%
%TD*%
%TA.AperFunction,ComponentPad*%
%ADD16C,2.000000*%
%TD*%
%TA.AperFunction,ComponentPad*%
%ADD17C,1.800000*%
%TD*%
%TA.AperFunction,ComponentPad*%
%ADD18C,1.600000*%
%TD*%
%TA.AperFunction,ComponentPad*%
%ADD19RoundRect,0.250000X0.550000X-0.550000X0.550000X0.550000X-0.550000X0.550000X-0.550000X-0.550000X0*%
%TD*%
%TA.AperFunction,ComponentPad*%
%ADD20R,1.730000X2.030000*%
%TD*%
%TA.AperFunction,ComponentPad*%
%ADD21O,1.730000X2.030000*%
%TD*%
%TA.AperFunction,ViaPad*%
%ADD22C,0.711000*%
%TD*%
%TA.AperFunction,Conductor*%
%ADD23C,0.200000*%
%TD*%
G04 APERTURE END LIST*
D10*
%TO.P,U2,*%
%TO.N,*%
X127625000Y-81943118D03*
X127675000Y-64293118D03*
X173275000Y-82093118D03*
X173375000Y-64293118D03*
D11*
%TO.P,U2,1,SCL*%
%TO.N,unconnected-(U2-SCL-Pad1)*%
X131600000Y-83300000D03*
%TO.P,U2,2,SDA*%
%TO.N,unconnected-(U2-SDA-Pad2)*%
X134000000Y-83300000D03*
%TO.P,U2,3,D8*%
%TO.N,/ECHO*%
X136600000Y-83300000D03*
%TO.P,U2,4,D9*%
%TO.N,/TRIG*%
X139100000Y-83300000D03*
%TO.P,U2,5,NC*%
%TO.N,unconnected-(U2-NC-Pad5)*%
X141500000Y-83300000D03*
%TO.P,U2,6,D3*%
%TO.N,/IN3*%
X144200000Y-83400000D03*
%TO.P,U2,7,D2*%
%TO.N,/IN4*%
X146700000Y-83400000D03*
%TO.P,U2,8,D1*%
%TO.N,/IN1*%
X149300000Y-83400000D03*
%TO.P,U2,9,D0*%
%TO.N,/IN2*%
X151800000Y-83400000D03*
%TO.P,U2,10,USB*%
%TO.N,/5v*%
X154300000Y-83400000D03*
%TO.P,U2,11,RST*%
%TO.N,unconnected-(U2-RST-Pad11)*%
X156900000Y-83400000D03*
D12*
%TO.P,U2,12,BAT*%
%TO.N,unconnected-(U2-BAT-Pad12)*%
X159400000Y-83400000D03*
%TO.P,U2,13,RST*%
%TO.N,unconnected-(U2-RST-Pad13)*%
X169500000Y-63100000D03*
D11*
%TO.P,U2,14,3V3*%
%TO.N,+3V3*%
X167000000Y-63100000D03*
%TO.P,U2,15,3V3*%
X164400000Y-63000000D03*
%TO.P,U2,16,GND*%
%TO.N,GND*%
X161900000Y-63000000D03*
%TO.P,U2,17,A0*%
%TO.N,/DHT*%
X159400000Y-63000000D03*
%TO.P,U2,18,A1*%
%TO.N,/LDR*%
X156800000Y-63000000D03*
%TO.P,U2,19,A2*%
%TO.N,/Buz*%
X154300000Y-63000000D03*
%TO.P,U2,20,A3*%
%TO.N,/vibration*%
X151700000Y-63000000D03*
%TO.P,U2,21,D-*%
%TO.N,/mot2_pwm*%
X149200000Y-63000000D03*
%TO.P,U2,22,D+*%
%TO.N,/mot1_pwm*%
X146700000Y-63000000D03*
%TO.P,U2,23,SCK*%
%TO.N,unconnected-(U2-SCK-Pad23)*%
X144100000Y-63000000D03*
%TO.P,U2,24,MO*%
%TO.N,unconnected-(U2-MO-Pad24)*%
X141600000Y-63000000D03*
%TO.P,U2,25,MI*%
%TO.N,unconnected-(U2-MI-Pad25)*%
X139000000Y-63000000D03*
%TO.P,U2,26,RX*%
%TO.N,unconnected-(U2-RX-Pad26)*%
X136500000Y-63000000D03*
%TO.P,U2,27,TX*%
%TO.N,unconnected-(U2-TX-Pad27)*%
X134000000Y-63000000D03*
%TO.P,U2,28,GND*%
%TO.N,GND*%
X131400000Y-63100000D03*
%TD*%
D13*
%TO.P,J6,1,Pin_1*%
%TO.N,Net-(J6-Pin_1)*%
X153320000Y-101300000D03*
D14*
%TO.P,J6,2,Pin_2*%
%TO.N,Net-(J6-Pin_2)*%
X157200000Y-101300000D03*
%TD*%
D15*
%TO.P,BZ1,1,+*%
%TO.N,/Buz*%
X153400000Y-49500000D03*
D16*
%TO.P,BZ1,2,-*%
%TO.N,GND*%
X161000000Y-49500000D03*
%TD*%
D17*
%TO.P,RV1,1,1*%
%TO.N,Net-(R1-Pad2)*%
X102540000Y-76650000D03*
%TO.P,RV1,2,2*%
%TO.N,/LDR*%
X100000000Y-76650000D03*
%TO.P,RV1,3,3*%
%TO.N,unconnected-(RV1-Pad3)*%
X97460000Y-76650000D03*
%TD*%
D13*
%TO.P,BT1,1,+*%
%TO.N,/Bat*%
X181050000Y-91207500D03*
D14*
%TO.P,BT1,2,-*%
%TO.N,GND*%
X181050000Y-87327500D03*
%TD*%
D13*
%TO.P,J2,1,Pin_1*%
%TO.N,Net-(J2-Pin_1)*%
X141307500Y-102850000D03*
D14*
%TO.P,J2,2,Pin_2*%
%TO.N,Net-(J2-Pin_2)*%
X137427500Y-102850000D03*
%TD*%
D18*
%TO.P,R1,1*%
%TO.N,+3V3*%
X120000000Y-72900000D03*
%TO.P,R1,2*%
%TO.N,Net-(R1-Pad2)*%
X112400000Y-72900000D03*
%TD*%
D19*
%TO.P,U1,1,EN1\u002C2*%
%TO.N,/mot1_pwm*%
X140360000Y-94720000D03*
D18*
%TO.P,U1,2,1A*%
%TO.N,/IN1*%
X142900000Y-94720000D03*
%TO.P,U1,3,1Y*%
%TO.N,Net-(J6-Pin_1)*%
X145440000Y-94720000D03*
%TO.P,U1,4,GND*%
%TO.N,GND*%
X147980000Y-94720000D03*
%TO.P,U1,5,GND*%
X150520000Y-94720000D03*
%TO.P,U1,6,2Y*%
%TO.N,Net-(J6-Pin_2)*%
X153060000Y-94720000D03*
%TO.P,U1,7,2A*%
%TO.N,/IN2*%
X155600000Y-94720000D03*
%TO.P,U1,8,VCC2*%
%TO.N,/Bat*%
X158140000Y-94720000D03*
%TO.P,U1,9,EN3\u002C4*%
%TO.N,/mot2_pwm*%
X158140000Y-87100000D03*
%TO.P,U1,10,3A*%
%TO.N,/IN3*%
X155600000Y-87100000D03*
%TO.P,U1,11,3Y*%
%TO.N,Net-(J2-Pin_1)*%
X153060000Y-87100000D03*
%TO.P,U1,12,GND*%
%TO.N,GND*%
X150520000Y-87100000D03*
%TO.P,U1,13,GND*%
X147980000Y-87100000D03*
%TO.P,U1,14,4Y*%
%TO.N,Net-(J2-Pin_2)*%
X145440000Y-87100000D03*
%TO.P,U1,15,4A*%
%TO.N,/IN4*%
X142900000Y-87100000D03*
%TO.P,U1,16,VCC1*%
%TO.N,/5v*%
X140360000Y-87100000D03*
%TD*%
D20*
%TO.P,J1,1,Pin_1*%
%TO.N,+3V3*%
X145200000Y-46000000D03*
D21*
%TO.P,J1,2,Pin_2*%
%TO.N,GND*%
X142660000Y-46000000D03*
%TO.P,J1,3,Pin_3*%
%TO.N,unconnected-(J1-Pin_3-Pad3)*%
X140120000Y-46000000D03*
%TO.P,J1,4,Pin_4*%
%TO.N,/vibration*%
X137580000Y-46000000D03*
%TD*%
D20*
%TO.P,J5,1,Pin_1*%
%TO.N,unconnected-(J5-Pin_1-Pad1)*%
X132200000Y-91100000D03*
D21*
%TO.P,J5,2,Pin_2*%
%TO.N,/TRIG*%
X129660000Y-91100000D03*
%TO.P,J5,3,Pin_3*%
%TO.N,/ECHO*%
X127120000Y-91100000D03*
%TO.P,J5,4,Pin_4*%
%TO.N,GND*%
X124580000Y-91100000D03*
%TD*%
D20*
%TO.P,J4,1,Pin_1*%
%TO.N,+3V3*%
X180200000Y-53800000D03*
D21*
%TO.P,J4,2,Pin_2*%
%TO.N,/DHT*%
X177660000Y-53800000D03*
%TO.P,J4,3,Pin_3*%
%TO.N,unconnected-(J4-Pin_3-Pad3)*%
X175120000Y-53800000D03*
%TO.P,J4,4,Pin_4*%
%TO.N,GND*%
X172580000Y-53800000D03*
%TD*%
D22*
%TO.N,GND*%
X137400000Y-74380000D03*
%TO.N,/5v*%
X144600000Y-81100000D03*
%TO.N,GND*%
X162400000Y-53800000D03*
%TO.N,+3V3*%
X154600000Y-66700000D03*
%TD*%
D23*
%TO.N,+3V3*%
X164400000Y-49500000D02*
X164400000Y-63000000D01*
X169800000Y-60300000D02*
X173700000Y-60300000D01*
X160700000Y-66700000D02*
X164400000Y-63000000D01*
%TO.N,GND*%
X151621000Y-88201000D02*
X180176500Y-88201000D01*
%TO.N,/ECHO*%
X128436000Y-89784000D02*
X130116000Y-89784000D01*
%TO.N,+3V3*%
X160900000Y-46000000D02*
X164400000Y-49500000D01*
%TO.N,GND*%
X137400000Y-74380000D02*
X137400000Y-69100000D01*
%TO.N,+3V3*%
X145200000Y-46000000D02*
X160900000Y-46000000D01*
X154600000Y-66700000D02*
X160700000Y-66700000D01*
%TO.N,Net-(J6-Pin_2)*%
X157200000Y-101300000D02*
X157200000Y-98860000D01*
X157200000Y-98860000D02*
X153060000Y-94720000D01*
%TO.N,/ECHO*%
X127120000Y-91100000D02*
X128436000Y-89784000D01*
%TO.N,GND*%
X124580000Y-91994206D02*
X124580000Y-91100000D01*
X142660000Y-46000000D02*
X144859000Y-48199000D01*
X159699000Y-48199000D02*
X161000000Y-49500000D01*
%TO.N,/ECHO*%
X130116000Y-89784000D02*
X136600000Y-83300000D01*
%TO.N,/vibration*%
X137580000Y-48880000D02*
X151700000Y-63000000D01*
%TO.N,+3V3*%
X164400000Y-63000000D02*
X166900000Y-63000000D01*
X166900000Y-63000000D02*
X167000000Y-63100000D01*
X167000000Y-63100000D02*
X169800000Y-60300000D01*
%TO.N,GND*%
X180176500Y-88201000D02*
X181050000Y-87327500D01*
X150520000Y-94720000D02*
X147980000Y-94720000D01*
X147980000Y-87100000D02*
X147980000Y-94720000D01*
X162400000Y-53800000D02*
X161900000Y-54300000D01*
X137400000Y-69100000D02*
X131400000Y-63100000D01*
%TO.N,Net-(J6-Pin_1)*%
X153320000Y-101300000D02*
X152020000Y-101300000D01*
%TO.N,/TRIG*%
X130976000Y-89784000D02*
X132616000Y-89784000D01*
%TO.N,/vibration*%
X137580000Y-46000000D02*
X137580000Y-48880000D01*
%TO.N,GND*%
X161900000Y-54300000D02*
X161900000Y-63000000D01*
%TO.N,Net-(J6-Pin_1)*%
X152020000Y-101300000D02*
X145440000Y-94720000D01*
%TO.N,GND*%
X150520000Y-87100000D02*
X150520000Y-94720000D01*
%TO.N,/TRIG*%
X132616000Y-89784000D02*
X139100000Y-83300000D01*
%TO.N,GND*%
X144859000Y-48199000D02*
X159699000Y-48199000D01*
X150520000Y-87100000D02*
X151621000Y-88201000D01*
%TO.N,+3V3*%
X173700000Y-60300000D02*
X180200000Y-53800000D01*
%TO.N,/TRIG*%
X129660000Y-91100000D02*
X130976000Y-89784000D01*
%TO.N,/Bat*%
X158140000Y-94720000D02*
X177537500Y-94720000D01*
X177537500Y-94720000D02*
X181050000Y-91207500D01*
%TO.N,/mot2_pwm*%
X158140000Y-71940000D02*
X149200000Y-63000000D01*
%TO.N,/IN3*%
X153051000Y-84551000D02*
X145351000Y-84551000D01*
%TO.N,/mot1_pwm*%
X141799000Y-84628760D02*
X142800000Y-83627760D01*
X140360000Y-94720000D02*
X141799000Y-93281000D01*
%TO.N,/5v*%
X152000000Y-81100000D02*
X144600000Y-81100000D01*
X154300000Y-83400000D02*
X152000000Y-81100000D01*
%TO.N,/mot2_pwm*%
X158140000Y-87100000D02*
X158140000Y-71940000D01*
%TO.N,/IN3*%
X145351000Y-84551000D02*
X144200000Y-83400000D01*
%TO.N,/mot1_pwm*%
X141799000Y-93281000D02*
X141799000Y-84628760D01*
X142800000Y-66900000D02*
X146700000Y-63000000D01*
%TO.N,/IN3*%
X155600000Y-87100000D02*
X153051000Y-84551000D01*
%TO.N,/mot1_pwm*%
X142800000Y-83627760D02*
X142800000Y-66900000D01*
%TD*%
%TA.AperFunction,Conductor*%
%TO.N,GND*%
G36*
X150120000Y-94772661D02*
G01*
X150147259Y-94874394D01*
X150199920Y-94965606D01*
X150274394Y-95040080D01*
X150365606Y-95092741D01*
X150467339Y-95120000D01*
X150473553Y-95120000D01*
X149794076Y-95799474D01*
X149838650Y-95831859D01*
X150020968Y-95924755D01*
X150215582Y-95987990D01*
X150417683Y-96020000D01*
X150622317Y-96020000D01*
X150824417Y-95987990D01*
X151019031Y-95924755D01*
X151201349Y-95831859D01*
X151245921Y-95799474D01*
X150566447Y-95120000D01*
X150572661Y-95120000D01*
X150674394Y-95092741D01*
X150765606Y-95040080D01*
X150840080Y-94965606D01*
X150892741Y-94874394D01*
X150920000Y-94772661D01*
X150920000Y-94766447D01*
X151599474Y-95445921D01*
X151631861Y-95401347D01*
X151631861Y-95401346D01*
X151679234Y-95308371D01*
X151727208Y-95257575D01*
X151795028Y-95240779D01*
X151861164Y-95263316D01*
X151900203Y-95308369D01*
X151947713Y-95401611D01*
X152068028Y-95567213D01*
X152212786Y-95711971D01*
X152333226Y-95799474D01*
X152378390Y-95832287D01*
X152494607Y-95891503D01*
X152560776Y-95925218D01*
X152560778Y-95925218D01*
X152560781Y-95925220D01*
X152651856Y-95954812D01*
X152755465Y-95988477D01*
X152856557Y-96004488D01*
X152957648Y-96020500D01*
X152957649Y-96020500D01*
X153162351Y-96020500D01*
X153162352Y-96020500D01*
X153364534Y-95988477D01*
X153378842Y-95983827D01*
X153448682Y-95981831D01*
X153504842Y-96014077D01*
X156563181Y-99072416D01*
X156577884Y-99099343D01*
X156594477Y-99125162D01*
X156595368Y-99131362D01*
X156596666Y-99133739D01*
X156599500Y-99160097D01*
X156599500Y-99300556D01*
X156579815Y-99367595D01*
X156527011Y-99413350D01*
X156522953Y-99415117D01*
X156313309Y-99501954D01*
X156313299Y-99501958D01*
X156086196Y-99633075D01*
X155878148Y-99792718D01*
X155692718Y-99978148D01*
X155542874Y-100173427D01*
X155486446Y-100214629D01*
X155416700Y-100218784D01*
X155355780Y-100184571D01*
X155323028Y-100122854D01*
X155320499Y-100097940D01*
X155320499Y-99752129D01*
X155320498Y-99752123D01*
X155314091Y-99692516D01*
X155263797Y-99557671D01*
X155263793Y-99557664D01*
X155177547Y-99442455D01*
X155177544Y-99442452D01*
X155062335Y-99356206D01*
X155062328Y-99356202D01*
X154927482Y-99305908D01*
X154927483Y-99305908D01*
X154867883Y-99299501D01*
X154867881Y-99299500D01*
X154867873Y-99299500D01*
X154867864Y-99299500D01*
X151772129Y-99299500D01*
X151772123Y-99299501D01*
X151712516Y-99305908D01*
X151577671Y-99356202D01*
X151577664Y-99356206D01*
X151462455Y-99442452D01*
X151462452Y-99442455D01*
X151376206Y-99557664D01*
X151376198Y-99557678D01*
X151375902Y-99558474D01*
X151375393Y-99559152D01*
X151371953Y-99565454D01*
X151371046Y-99564958D01*
X151334025Y-99614403D01*
X151268558Y-99638813D01*
X151200286Y-99623954D01*
X151172044Y-99602809D01*
X147800916Y-96231681D01*
X147767431Y-96170358D01*
X147772415Y-96100666D01*
X147814287Y-96044733D01*
X147879751Y-96020316D01*
X147888597Y-96020000D01*
X148082317Y-96020000D01*
X148284417Y-95987990D01*
X148479031Y-95924755D01*
X148661349Y-95831859D01*
X148705921Y-95799474D01*
X148026446Y-95120000D01*
X148032661Y-95120000D01*
X148134394Y-95092741D01*
X148225606Y-95040080D01*
X148300080Y-94965606D01*
X148352741Y-94874394D01*
X148380000Y-94772661D01*
X148380000Y-94766447D01*
X149059474Y-95445921D01*
X149091861Y-95401347D01*
X149091861Y-95401346D01*
X149139515Y-95307820D01*
X149187489Y-95257024D01*
X149255310Y-95240228D01*
X149321445Y-95262765D01*
X149360485Y-95307819D01*
X149408141Y-95401350D01*
X149408147Y-95401359D01*
X149440523Y-95445921D01*
X149440524Y-95445922D01*
X150120000Y-94766446D01*
X150120000Y-94772661D01*
G37*
%TD.AperFunction*%
%TA.AperFunction,Conductor*%
G36*
X143126882Y-84252625D02*
G01*
X143171230Y-84281126D01*
X143320213Y-84430109D01*
X143492179Y-84555048D01*
X143492181Y-84555049D01*
X143492184Y-84555051D01*
X143681588Y-84651557D01*
X143883757Y-84717246D01*
X144093713Y-84750500D01*
X144093714Y-84750500D01*
X144306286Y-84750500D01*
X144306287Y-84750500D01*
X144516243Y-84717246D01*
X144558523Y-84703507D01*
X144628362Y-84701511D01*
X144684522Y-84733757D01*
X144866139Y-84915374D01*
X144866149Y-84915385D01*
X144870479Y-84919715D01*
X144870480Y-84919716D01*
X144982284Y-85031520D01*
X145069095Y-85081639D01*
X145069097Y-85081641D01*
X145107151Y-85103611D01*
X145119215Y-85110577D01*
X145271943Y-85151501D01*
X145271946Y-85151501D01*
X145437654Y-85151501D01*
X145437670Y-85151500D01*
X152750903Y-85151500D01*
X152817942Y-85171185D01*
X152838584Y-85187819D01*
X153238584Y-85587819D01*
X153272069Y-85649142D01*
X153267085Y-85718834D01*
X153225213Y-85774767D01*
X153159749Y-85799184D01*
X153150903Y-85799500D01*
X152957648Y-85799500D01*
X152933329Y-85803351D01*
X152755465Y-85831522D01*
X152560776Y-85894781D01*
X152378386Y-85987715D01*
X152212786Y-86108028D01*
X152068028Y-86252786D01*
X151947713Y-86418388D01*
X151900203Y-86511630D01*
X151852228Y-86562426D01*
X151784407Y-86579220D01*
X151718272Y-86556682D01*
X151679234Y-86511628D01*
X151631861Y-86418652D01*
X151599474Y-86374077D01*
X151599474Y-86374076D01*
X150920000Y-87053551D01*
X150920000Y-87047339D01*
X150892741Y-86945606D01*
X150840080Y-86854394D01*
X150765606Y-86779920D01*
X150674394Y-86727259D01*
X150572661Y-86700000D01*
X150566446Y-86700000D01*
X151245922Y-86020524D01*
X151245921Y-86020523D01*
X151201359Y-85988147D01*
X151201350Y-85988141D01*
X151019031Y-85895244D01*
X150824417Y-85832009D01*
X150622317Y-85800000D01*
X150417683Y-85800000D01*
X150215582Y-85832009D01*
X150020968Y-85895244D01*
X149838644Y-85988143D01*
X149794077Y-86020523D01*
X149794077Y-86020524D01*
X150473554Y-86700000D01*
X150467339Y-86700000D01*
X150365606Y-86727259D01*
X150274394Y-86779920D01*
X150199920Y-86854394D01*
X150147259Y-86945606D01*
X150120000Y-87047339D01*
X150120000Y-87053553D01*
X149440524Y-86374077D01*
X149440523Y-86374077D01*
X149408143Y-86418644D01*
X149360485Y-86512180D01*
X149312510Y-86562976D01*
X149244689Y-86579771D01*
X149178554Y-86557233D01*
X149139515Y-86512180D01*
X149091859Y-86418650D01*
X149059474Y-86374077D01*
X149059474Y-86374076D01*
X148380000Y-87053551D01*
X148380000Y-87047339D01*
X148352741Y-86945606D01*
X148300080Y-86854394D01*
X148225606Y-86779920D01*
X148134394Y-86727259D01*
X148032661Y-86700000D01*
X148026446Y-86700000D01*
X148705922Y-86020524D01*
X148705921Y-86020523D01*
X148661359Y-85988147D01*
X148661350Y-85988141D01*
X148479031Y-85895244D01*
X148284417Y-85832009D01*
X148082317Y-85800000D01*
X147877683Y-85800000D01*
X147675582Y-85832009D01*
X147480968Y-85895244D01*
X147298644Y-85988143D01*
X147254077Y-86020523D01*
X147254077Y-86020524D01*
X147933554Y-86700000D01*
X147927339Y-86700000D01*
X147825606Y-86727259D01*
X147734394Y-86779920D01*
X147659920Y-86854394D01*
X147607259Y-86945606D01*
X147580000Y-87047339D01*
X147580000Y-87053553D01*
X146900524Y-86374077D01*
X146900523Y-86374077D01*
X146868143Y-86418644D01*
X146820765Y-86511630D01*
X146772790Y-86562426D01*
X146704969Y-86579221D01*
X146638834Y-86556683D01*
X146599795Y-86511630D01*
X146569667Y-86452500D01*
X146552287Y-86418390D01*
X146552285Y-86418387D01*
X146552284Y-86418385D01*
X146431971Y-86252786D01*
X146287213Y-86108028D01*
X146121613Y-85987715D01*
X146121612Y-85987714D01*
X146121610Y-85987713D01*
X146041565Y-85946928D01*
X145939223Y-85894781D01*
X145744534Y-85831522D01*
X145569995Y-85803878D01*
X145542352Y-85799500D01*
X145337648Y-85799500D01*
X145313329Y-85803351D01*
X145135465Y-85831522D01*
X144940776Y-85894781D01*
X144758386Y-85987715D01*
X144592786Y-86108028D01*
X144448028Y-86252786D01*
X144327715Y-86418386D01*
X144280485Y-86511080D01*
X144232510Y-86561876D01*
X144164689Y-86578671D01*
X144098554Y-86556134D01*
X144059515Y-86511080D01*
X144046800Y-86486126D01*
X144012287Y-86418390D01*
X143980092Y-86374077D01*
X143891971Y-86252786D01*
X143747213Y-86108028D01*
X143581613Y-85987715D01*
X143581612Y-85987714D01*
X143581610Y-85987713D01*
X143501565Y-85946928D01*
X143399223Y-85894781D01*
X143204534Y-85831522D01*
X143029995Y-85803878D01*
X143002352Y-85799500D01*
X142797648Y-85799500D01*
X142757102Y-85805922D01*
X142595464Y-85831523D01*
X142595457Y-85831524D01*
X142561817Y-85842455D01*
X142491976Y-85844450D01*
X142432144Y-85808369D01*
X142401316Y-85745668D01*
X142399500Y-85724524D01*
X142399500Y-84928857D01*
X142419185Y-84861818D01*
X142435819Y-84841176D01*
X142714823Y-84562172D01*
X142995870Y-84281124D01*
X143057191Y-84247641D01*
X143126882Y-84252625D01*
G37*
%TD.AperFunction*%
%TA.AperFunction,Conductor*%
G36*
X162150000Y-64349402D02*
G01*
X162130315Y-64416441D01*
X162113681Y-64437083D01*
X160487584Y-66063181D01*
X160426261Y-66096666D01*
X160399903Y-66099500D01*
X155261430Y-66099500D01*
X155194391Y-66079815D01*
X155173749Y-66063181D01*
X155145671Y-66035103D01*
X155145667Y-66035100D01*
X155005474Y-65941425D01*
X155005465Y-65941420D01*
X154849686Y-65876895D01*
X154849678Y-65876893D01*
X154684313Y-65844000D01*
X154684309Y-65844000D01*
X154515691Y-65844000D01*
X154515686Y-65844000D01*
X154350321Y-65876893D01*
X154350313Y-65876895D01*
X154194534Y-65941420D01*
X154194525Y-65941425D01*
X154054332Y-66035100D01*
X154054328Y-66035103D01*
X153935103Y-66154328D01*
X153935100Y-66154332D01*
X153841425Y-66294525D01*
X153841420Y-66294534D01*
X153776895Y-66450313D01*
X153776892Y-66450323D01*
X153776137Y-66454120D01*
X153775193Y-66455923D01*
X153775126Y-66456146D01*
X153775083Y-66456133D01*
X153743750Y-66516030D01*
X153683032Y-66550602D01*
X153613263Y-66546859D01*
X153566840Y-66517605D01*
X151611416Y-64562181D01*
X151577931Y-64500858D01*
X151582915Y-64431166D01*
X151624787Y-64375233D01*
X151690251Y-64350816D01*
X151699097Y-64350500D01*
X151806286Y-64350500D01*
X151806287Y-64350500D01*
X152016243Y-64317246D01*
X152218412Y-64251557D01*
X152407816Y-64155051D01*
X152442677Y-64129723D01*
X152579786Y-64030109D01*
X152579788Y-64030106D01*
X152579792Y-64030104D01*
X152730104Y-63879792D01*
X152730106Y-63879788D01*
X152730109Y-63879786D01*
X152855048Y-63707820D01*
X152855050Y-63707817D01*
X152855051Y-63707816D01*
X152889515Y-63640175D01*
X152937489Y-63589380D01*
X153005310Y-63572585D01*
X153071445Y-63595122D01*
X153110484Y-63640175D01*
X153126975Y-63672540D01*
X153144951Y-63707820D01*
X153269890Y-63879786D01*
X153420213Y-64030109D01*
X153592179Y-64155048D01*
X153592181Y-64155049D01*
X153592184Y-64155051D01*
X153781588Y-64251557D01*
X153983757Y-64317246D01*
X154193713Y-64350500D01*
X154193714Y-64350500D01*
X154406286Y-64350500D01*
X154406287Y-64350500D01*
X154616243Y-64317246D01*
X154818412Y-64251557D01*
X155007816Y-64155051D01*
X155042677Y-64129723D01*
X155179786Y-64030109D01*
X155179788Y-64030106D01*
X155179792Y-64030104D01*
X155330104Y-63879792D01*
X155449683Y-63715204D01*
X155505011Y-63672540D01*
X155574624Y-63666561D01*
X155636420Y-63699166D01*
X155650313Y-63715199D01*
X155717603Y-63807816D01*
X155769896Y-63879792D01*
X155920213Y-64030109D01*
X156092179Y-64155048D01*
X156092181Y-64155049D01*
X156092184Y-64155051D01*
X156281588Y-64251557D01*
X156483757Y-64317246D01*
X156693713Y-64350500D01*
X156693714Y-64350500D01*
X156906286Y-64350500D01*
X156906287Y-64350500D01*
X157116243Y-64317246D01*
X157318412Y-64251557D01*
X157507816Y-64155051D01*
X157542677Y-64129723D01*
X157679786Y-64030109D01*
X157679788Y-64030106D01*
X157679792Y-64030104D01*
X157830104Y-63879792D01*
X157830106Y-63879788D01*
X157830109Y-63879786D01*
X157955048Y-63707820D01*
X157955050Y-63707817D01*
X157955051Y-63707816D01*
X157989515Y-63640175D01*
X158037489Y-63589380D01*
X158105310Y-63572585D01*
X158171445Y-63595122D01*
X158210484Y-63640175D01*
X158226975Y-63672540D01*
X158244951Y-63707820D01*
X158369890Y-63879786D01*
X158520213Y-64030109D01*
X158692179Y-64155048D01*
X158692181Y-64155049D01*
X158692184Y-64155051D01*
X158881588Y-64251557D01*
X159083757Y-64317246D01*
X159293713Y-64350500D01*
X159293714Y-64350500D01*
X159506286Y-64350500D01*
X159506287Y-64350500D01*
X159716243Y-64317246D01*
X159918412Y-64251557D01*
X160107816Y-64155051D01*
X160142677Y-64129723D01*
X160279786Y-64030109D01*
X160279788Y-64030106D01*
X160279792Y-64030104D01*
X160430104Y-63879792D01*
X160549991Y-63714779D01*
X160605320Y-63672115D01*
X160674933Y-63666136D01*
X160736729Y-63698741D01*
X160750627Y-63714781D01*
X160870272Y-63879459D01*
X160870276Y-63879464D01*
X161020535Y-64029723D01*
X161020540Y-64029727D01*
X161192442Y-64154620D01*
X161381782Y-64251095D01*
X161583871Y-64316757D01*
X161650000Y-64327231D01*
X161650000Y-63433012D01*
X161707007Y-63465925D01*
X161834174Y-63500000D01*
X161965826Y-63500000D01*
X162092993Y-63465925D01*
X162150000Y-63433012D01*
X162150000Y-64349402D01*
G37*
%TD.AperFunction*%
%TA.AperFunction,Conductor*%
G36*
X142910000Y-47492418D02*
G01*
X142979638Y-47481388D01*
X142979641Y-47481388D01*
X143183975Y-47414996D01*
X143375416Y-47317452D01*
X143549236Y-47191164D01*
X143643896Y-47096504D01*
X143705219Y-47063019D01*
X143774911Y-47068003D01*
X143830845Y-47109874D01*
X143847760Y-47140852D01*
X143891202Y-47257328D01*
X143891206Y-47257335D01*
X143977452Y-47372544D01*
X143977455Y-47372547D01*
X144092664Y-47458793D01*
X144092671Y-47458797D01*
X144227517Y-47509091D01*
X144227516Y-47509091D01*
X144234444Y-47509835D01*
X144287127Y-47515500D01*
X146112872Y-47515499D01*
X146172483Y-47509091D01*
X146307331Y-47458796D01*
X146422546Y-47372546D01*
X146508796Y-47257331D01*
X146559091Y-47122483D01*
X146565500Y-47062873D01*
X146565500Y-46724500D01*
X146585185Y-46657461D01*
X146637989Y-46611706D01*
X146689500Y-46600500D01*
X160599903Y-46600500D01*
X160666942Y-46620185D01*
X160687584Y-46636819D01*
X163763181Y-49712416D01*
X163796666Y-49773739D01*
X163799500Y-49800097D01*
X163799500Y-61714281D01*
X163779815Y-61781320D01*
X163731795Y-61824765D01*
X163692185Y-61844947D01*
X163692184Y-61844948D01*
X163520213Y-61969890D01*
X163369894Y-62120209D01*
X163369890Y-62120214D01*
X163250008Y-62285218D01*
X163194678Y-62327884D01*
X163125065Y-62333863D01*
X163063270Y-62301257D01*
X163049372Y-62285218D01*
X162929727Y-62120540D01*
X162929723Y-62120535D01*
X162779464Y-61970276D01*
X162779459Y-61970272D01*
X162607557Y-61845379D01*
X162418215Y-61748903D01*
X162216124Y-61683241D01*
X162150000Y-61672768D01*
X162150000Y-62566988D01*
X162092993Y-62534075D01*
X161965826Y-62500000D01*
X161834174Y-62500000D01*
X161707007Y-62534075D01*
X161650000Y-62566988D01*
X161650000Y-61672768D01*
X161649999Y-61672768D01*
X161583875Y-61683241D01*
X161381784Y-61748903D01*
X161192442Y-61845379D01*
X161020540Y-61970272D01*
X161020535Y-61970276D01*
X160870276Y-62120535D01*
X160870272Y-62120540D01*
X160750627Y-62285218D01*
X160695297Y-62327884D01*
X160625684Y-62333863D01*
X160563889Y-62301257D01*
X160549991Y-62285218D01*
X160430109Y-62120214D01*
X160430105Y-62120209D01*
X160279786Y-61969890D01*
X160107820Y-61844951D01*
X159918414Y-61748444D01*
X159918413Y-61748443D01*
X159918412Y-61748443D01*
X159716243Y-61682754D01*
X159716241Y-61682753D01*
X159716240Y-61682753D01*
X159554957Y-61657208D01*
X159506287Y-61649500D01*
X159293713Y-61649500D01*
X159245042Y-61657208D01*
X159083760Y-61682753D01*
X158881585Y-61748444D01*
X158692179Y-61844951D01*
X158520213Y-61969890D01*
X158369890Y-62120213D01*
X158244951Y-62292180D01*
X158210485Y-62359823D01*
X158162510Y-62410619D01*
X158094689Y-62427414D01*
X158028554Y-62404876D01*
X157989515Y-62359823D01*
X157973024Y-62327459D01*
X157955051Y-62292184D01*
X157924835Y-62250595D01*
X157830109Y-62120213D01*
X157679786Y-61969890D01*
X157507820Y-61844951D01*
X157318414Y-61748444D01*
X157318413Y-61748443D01*
X157318412Y-61748443D01*
X157116243Y-61682754D01*
X157116241Y-61682753D01*
X157116240Y-61682753D01*
X156954957Y-61657208D01*
X156906287Y-61649500D01*
X156693713Y-61649500D01*
X156645042Y-61657208D01*
X156483760Y-61682753D01*
X156281585Y-61748444D01*
X156092179Y-61844951D01*
X155920213Y-61969890D01*
X155769894Y-62120209D01*
X155769890Y-62120214D01*
X155650318Y-62284793D01*
X155594989Y-62327459D01*
X155525375Y-62333438D01*
X155463580Y-62300833D01*
X155449682Y-62284793D01*
X155330109Y-62120214D01*
X155330105Y-62120209D01*
X155179786Y-61969890D01*
X155007820Y-61844951D01*
X154818414Y-61748444D01*
X154818413Y-61748443D01*
X154818412Y-61748443D01*
X154616243Y-61682754D01*
X154616241Y-61682753D01*
X154616240Y-61682753D01*
X154454957Y-61657208D01*
X154406287Y-61649500D01*
X154193713Y-61649500D01*
X154145042Y-61657208D01*
X153983760Y-61682753D01*
X153781585Y-61748444D01*
X153592179Y-61844951D01*
X153420213Y-61969890D01*
X153269890Y-62120213D01*
X153144951Y-62292180D01*
X153110485Y-62359823D01*
X153062510Y-62410619D01*
X152994689Y-62427414D01*
X152928554Y-62404876D01*
X152889515Y-62359823D01*
X152873024Y-62327459D01*
X152855051Y-62292184D01*
X152824835Y-62250595D01*
X152730109Y-62120213D01*
X152579786Y-61969890D01*
X152407820Y-61844951D01*
X152218414Y-61748444D01*
X152218413Y-61748443D01*
X152218412Y-61748443D01*
X152016243Y-61682754D01*
X152016241Y-61682753D01*
X152016240Y-61682753D01*
X151854957Y-61657208D01*
X151806287Y-61649500D01*
X151593713Y-61649500D01*
X151523727Y-61660584D01*
X151383755Y-61682754D01*
X151383748Y-61682755D01*
X151341475Y-61696491D01*
X151271634Y-61698486D01*
X151215477Y-61666241D01*
X138216819Y-48667583D01*
X138183334Y-48606260D01*
X138180500Y-48579902D01*
X138180500Y-47452553D01*
X138200185Y-47385514D01*
X138248206Y-47342068D01*
X138295676Y-47317881D01*
X138295675Y-47317881D01*
X138295678Y-47317880D01*
X138469563Y-47191545D01*
X138621545Y-47039563D01*
X138747880Y-46865678D01*
X138747879Y-46865678D01*
X138749682Y-46863198D01*
X138805012Y-46820532D01*
X138874625Y-46814553D01*
X138936420Y-46847159D01*
X138950318Y-46863198D01*
X138952120Y-46865678D01*
X139078455Y-47039563D01*
X139230437Y-47191545D01*
X139404322Y-47317880D01*
X139451794Y-47342068D01*
X139482934Y-47357935D01*
X139533730Y-47405910D01*
X139550525Y-47473731D01*
X139527987Y-47539866D01*
X139514321Y-47556101D01*
X139455643Y-47614779D01*
X139455641Y-47614782D01*
X139362043Y-47754861D01*
X139297569Y-47910517D01*
X139297567Y-47910523D01*
X139264700Y-48075757D01*
X139264700Y-48075760D01*
X139264700Y-48244240D01*
X139264700Y-48244242D01*
X139264699Y-48244242D01*
X139297567Y-48409476D01*
X139297569Y-48409482D01*
X139362043Y-48565138D01*
X139455641Y-48705217D01*
X139455647Y-48705225D01*
X139574774Y-48824352D01*
X139574782Y-48824358D01*
X139714861Y-48917956D01*
X139760451Y-48936840D01*
X139870518Y-48982431D01*
X139870522Y-48982431D01*
X139870523Y-48982432D01*
X140035757Y-49015300D01*
X140035760Y-49015300D01*
X140204242Y-49015300D01*
X140315409Y-48993186D01*
X140369482Y-48982431D01*
X140525136Y-48917957D01*
X140525136Y-48917956D01*
X140525138Y-48917956D01*
X140594709Y-48871469D01*
X140665222Y-48824355D01*
X140784355Y-48705222D01*
X140877957Y-48565136D01*
X140924764Y-48452135D01*
X151899500Y-48452135D01*
X151899500Y-50547870D01*
X151899501Y-50547876D01*
X151905908Y-50607483D01*
X151956202Y-50742328D01*
X151956206Y-50742335D01*
X152042452Y-50857544D01*
X152042455Y-50857547D01*
X152157664Y-50943793D01*
X152157671Y-50943797D01*
X152292517Y-50994091D01*
X152292516Y-50994091D01*
X152299444Y-50994835D01*
X152352127Y-51000500D01*
X154447872Y-51000499D01*
X154507483Y-50994091D01*
X154642331Y-50943796D01*
X154757546Y-50857546D01*
X154843796Y-50742331D01*
X154894091Y-50607483D01*
X154900500Y-50547873D01*
X154900499Y-49381947D01*
X159500000Y-49381947D01*
X159500000Y-49618052D01*
X159536934Y-49851247D01*
X159609897Y-50075802D01*
X159717087Y-50286174D01*
X159777338Y-50369104D01*
X159777340Y-50369105D01*
X160517037Y-49629408D01*
X160534075Y-49692993D01*
X160599901Y-49807007D01*
X160692993Y-49900099D01*
X160807007Y-49965925D01*
X160870590Y-49982962D01*
X160130893Y-50722658D01*
X160213828Y-50782914D01*
X160424197Y-50890102D01*
X160648752Y-50963065D01*
X160648751Y-50963065D01*
X160881948Y-51000000D01*
X161118052Y-51000000D01*
X161351247Y-50963065D01*
X161575802Y-50890102D01*
X161786163Y-50782918D01*
X161786169Y-50782914D01*
X161869104Y-50722658D01*
X161869105Y-50722658D01*
X161129408Y-49982962D01*
X161192993Y-49965925D01*
X161307007Y-49900099D01*
X161400099Y-49807007D01*
X161465925Y-49692993D01*
X161482962Y-49629409D01*
X162222658Y-50369105D01*
X162222658Y-50369104D01*
X162282914Y-50286169D01*
X162282918Y-50286163D01*
X162390102Y-50075802D01*
X162463065Y-49851247D01*
X162500000Y-49618052D01*
X162500000Y-49381947D01*
X162463065Y-49148752D01*
X162390102Y-48924197D01*
X162282914Y-48713828D01*
X162222658Y-48630894D01*
X162222658Y-48630893D01*
X161482962Y-49370590D01*
X161465925Y-49307007D01*
X161400099Y-49192993D01*
X161307007Y-49099901D01*
X161192993Y-49034075D01*
X161129409Y-49017037D01*
X161869105Y-48277340D01*
X161869104Y-48277338D01*
X161786174Y-48217087D01*
X161575802Y-48109897D01*
X161351247Y-48036934D01*
X161351248Y-48036934D01*
X161118052Y-48000000D01*
X160881948Y-48000000D01*
X160648752Y-48036934D01*
X160424197Y-48109897D01*
X160213830Y-48217084D01*
X160130894Y-48277340D01*
X160870591Y-49017037D01*
X160807007Y-49034075D01*
X160692993Y-49099901D01*
X160599901Y-49192993D01*
X160534075Y-49307007D01*
X160517037Y-49370591D01*
X159777340Y-48630894D01*
X159717084Y-48713830D01*
X159609897Y-48924197D01*
X159536934Y-49148752D01*
X159500000Y-49381947D01*
X154900499Y-49381947D01*
X154900499Y-48452128D01*
X154894091Y-48392517D01*
X154894090Y-48392514D01*
X154884922Y-48367931D01*
X154843797Y-48257671D01*
X154843793Y-48257664D01*
X154757547Y-48142455D01*
X154757544Y-48142452D01*
X154642335Y-48056206D01*
X154642328Y-48056202D01*
X154507482Y-48005908D01*
X154507483Y-48005908D01*
X154447883Y-47999501D01*
X154447881Y-47999500D01*
X154447873Y-47999500D01*
X154447864Y-47999500D01*
X152352129Y-47999500D01*
X152352123Y-47999501D01*
X152292516Y-48005908D01*
X152157671Y-48056202D01*
X152157664Y-48056206D01*
X152042455Y-48142452D01*
X152042452Y-48142455D01*
X151956206Y-48257664D01*
X151956202Y-48257671D01*
X151905908Y-48392517D01*
X151899501Y-48452116D01*
X151899501Y-48452123D01*
X151899500Y-48452135D01*
X140924764Y-48452135D01*
X140942431Y-48409482D01*
X140968716Y-48277340D01*
X140975300Y-48244242D01*
X140975300Y-48075757D01*
X140942432Y-47910523D01*
X140942431Y-47910522D01*
X140942431Y-47910518D01*
X140877957Y-47754864D01*
X140877956Y-47754861D01*
X140784358Y-47614782D01*
X140784352Y-47614774D01*
X140725679Y-47556101D01*
X140692194Y-47494778D01*
X140697178Y-47425086D01*
X140739050Y-47369153D01*
X140757065Y-47357935D01*
X140835678Y-47317880D01*
X141009563Y-47191545D01*
X141161545Y-47039563D01*
X141287880Y-46865678D01*
X141287881Y-46865675D01*
X141289990Y-46862773D01*
X141345320Y-46820107D01*
X141414933Y-46814128D01*
X141476728Y-46846734D01*
X141490626Y-46862772D01*
X141618838Y-47039239D01*
X141618838Y-47039240D01*
X141770759Y-47191161D01*
X141944583Y-47317452D01*
X142136024Y-47414996D01*
X142340359Y-47481388D01*
X142409999Y-47492418D01*
X142410000Y-47492418D01*
X142410000Y-46444560D01*
X142463147Y-46475245D01*
X142592857Y-46510000D01*
X142727143Y-46510000D01*
X142856853Y-46475245D01*
X142910000Y-46444560D01*
X142910000Y-47492418D01*
G37*
%TD.AperFunction*%
%TA.AperFunction,Conductor*%
G36*
X187061539Y-41901185D02*
G01*
X187107294Y-41953989D01*
X187118500Y-42005500D01*
X187118500Y-109994500D01*
X187098815Y-110061539D01*
X187046011Y-110107294D01*
X186994500Y-110118500D01*
X92005500Y-110118500D01*
X91938461Y-110098815D01*
X91892706Y-110046011D01*
X91881500Y-109994500D01*
X91881500Y-102718872D01*
X135427000Y-102718872D01*
X135427000Y-102981127D01*
X135450228Y-103157547D01*
X135461230Y-103241116D01*
X135477142Y-103300499D01*
X135529102Y-103494418D01*
X135529105Y-103494428D01*
X135629453Y-103736690D01*
X135629458Y-103736700D01*
X135760575Y-103963803D01*
X135920218Y-104171851D01*
X135920226Y-104171860D01*
X136105640Y-104357274D01*
X136105648Y-104357281D01*
X136313696Y-104516924D01*
X136540799Y-104648041D01*
X136540809Y-104648046D01*
X136783071Y-104748394D01*
X136783081Y-104748398D01*
X137036384Y-104816270D01*
X137284688Y-104848960D01*
X137296364Y-104850498D01*
X137296380Y-104850500D01*
X137296387Y-104850500D01*
X137558613Y-104850500D01*
X137558620Y-104850500D01*
X137818616Y-104816270D01*
X138071919Y-104748398D01*
X138314197Y-104648043D01*
X138541303Y-104516924D01*
X138749351Y-104357282D01*
X138749355Y-104357277D01*
X138749360Y-104357274D01*
X138934773Y-104171860D01*
X138934782Y-104171851D01*
X139084628Y-103976568D01*
X139141052Y-103935370D01*
X139210798Y-103931215D01*
X139271719Y-103965427D01*
X139304471Y-104027145D01*
X139307000Y-104052059D01*
X139307000Y-104397869D01*
X139307001Y-104397876D01*
X139313408Y-104457483D01*
X139363702Y-104592328D01*
X139363706Y-104592335D01*
X139449952Y-104707544D01*
X139449955Y-104707547D01*
X139565164Y-104793793D01*
X139565171Y-104793797D01*
X139700017Y-104844091D01*
X139700016Y-104844091D01*
X139706944Y-104844835D01*
X139759627Y-104850500D01*
X142855372Y-104850499D01*
X142914983Y-104844091D01*
X143049831Y-104793796D01*
X143165046Y-104707546D01*
X143251296Y-104592331D01*
X143301591Y-104457483D01*
X143308000Y-104397873D01*
X143307999Y-101302128D01*
X143301591Y-101242517D01*
X143274128Y-101168886D01*
X143251297Y-101107671D01*
X143251293Y-101107664D01*
X143165047Y-100992455D01*
X143165044Y-100992452D01*
X143049835Y-100906206D01*
X143049828Y-100906202D01*
X142914982Y-100855908D01*
X142914983Y-100855908D01*
X142855383Y-100849501D01*
X142855381Y-100849500D01*
X142855373Y-100849500D01*
X142855364Y-100849500D01*
X139759629Y-100849500D01*
X139759623Y-100849501D01*
X139700016Y-100855908D01*
X139565171Y-100906202D01*
X139565164Y-100906206D01*
X139449955Y-100992452D01*
X139449952Y-100992455D01*
X139363706Y-101107664D01*
X139363702Y-101107671D01*
X139313408Y-101242517D01*
X139307001Y-101302116D01*
X139307001Y-101302123D01*
X139307000Y-101302135D01*
X139307000Y-101647939D01*
X139287315Y-101714978D01*
X139234511Y-101760733D01*
X139165353Y-101770677D01*
X139101797Y-101741652D01*
X139084625Y-101723426D01*
X138934781Y-101528148D01*
X138934774Y-101528140D01*
X138749360Y-101342726D01*
X138749351Y-101342718D01*
X138541303Y-101183075D01*
X138314200Y-101051958D01*
X138314190Y-101051953D01*
X138071928Y-100951605D01*
X138071921Y-100951603D01*
X138071919Y-100951602D01*
X137818616Y-100883730D01*
X137760839Y-100876123D01*
X137558627Y-100849500D01*
X137558620Y-100849500D01*
X137296380Y-100849500D01*
X137296372Y-100849500D01*
X137065272Y-100879926D01*
X137036384Y-100883730D01*
X136942508Y-100908884D01*
X136783081Y-100951602D01*
X136783071Y-100951605D01*
X136540809Y-101051953D01*
X136540799Y-101051958D01*
X136313696Y-101183075D01*
X136105648Y-101342718D01*
X135920218Y-101528148D01*
X135760575Y-101736196D01*
X135629458Y-101963299D01*
X135629453Y-101963309D01*
X135529105Y-102205571D01*
X135529102Y-102205581D01*
X135473310Y-102413803D01*
X135461230Y-102458885D01*
X135427000Y-102718872D01*
X91881500Y-102718872D01*
X91881500Y-90842572D01*
X123215000Y-90842572D01*
X123215000Y-90850000D01*
X124135440Y-90850000D01*
X124104755Y-90903147D01*
X124070000Y-91032857D01*
X124070000Y-91167143D01*
X124104755Y-91296853D01*
X124135440Y-91350000D01*
X123215000Y-91350000D01*
X123215000Y-91357427D01*
X123248611Y-91569639D01*
X123248611Y-91569642D01*
X123315003Y-91773975D01*
X123412547Y-91965416D01*
X123538838Y-92139240D01*
X123690759Y-92291161D01*
X123864583Y-92417452D01*
X124056024Y-92514996D01*
X124260359Y-92581388D01*
X124329999Y-92592418D01*
X124330000Y-92592418D01*
X124330000Y-91544560D01*
X124383147Y-91575245D01*
X124512857Y-91610000D01*
X124647143Y-91610000D01*
X124776853Y-91575245D01*
X124830000Y-91544560D01*
X124830000Y-92592418D01*
X124899638Y-92581388D01*
X124899641Y-92581388D01*
X125103975Y-92514996D01*
X125295416Y-92417452D01*
X125469240Y-92291161D01*
X125621161Y-92139240D01*
X125621166Y-92139234D01*
X125749373Y-91962773D01*
X125804703Y-91920107D01*
X125874316Y-91914128D01*
X125936111Y-91946734D01*
X125950009Y-91962772D01*
X125952119Y-91965676D01*
X125952120Y-91965678D01*
X126078455Y-92139563D01*
X126230437Y-92291545D01*
X126404322Y-92417880D01*
X126455198Y-92443803D01*
X126482934Y-92457935D01*
X126533730Y-92505910D01*
X126550525Y-92573731D01*
X126527987Y-92639866D01*
X126514321Y-92656101D01*
X126455643Y-92714779D01*
X126455641Y-92714782D01*
X126362043Y-92854861D01*
X126297569Y-93010517D01*
X126297567Y-93010523D01*
X126264700Y-93175757D01*
X126264700Y-93175760D01*
X126264700Y-93344240D01*
X126264700Y-93344242D01*
X126264699Y-93344242D01*
X126297567Y-93509476D01*
X126297569Y-93509482D01*
X126362043Y-93665138D01*
X126455641Y-93805217D01*
X126455647Y-93805225D01*
X126574774Y-93924352D01*
X126574782Y-93924358D01*
X126714861Y-94017956D01*
X126760451Y-94036840D01*
X126870518Y-94082431D01*
X126870522Y-94082431D01*
X126870523Y-94082432D01*
X127035757Y-94115300D01*
X127035760Y-94115300D01*
X127204242Y-94115300D01*
X127315409Y-94093186D01*
X127369482Y-94082431D01*
X127525136Y-94017957D01*
X127525136Y-94017956D01*
X127525138Y-94017956D01*
X127594709Y-93971469D01*
X127665222Y-93924355D01*
X127784355Y-93805222D01*
X127877957Y-93665136D01*
X127942431Y-93509482D01*
X127960330Y-93419500D01*
X127975300Y-93344242D01*
X127975300Y-93175757D01*
X127942432Y-93010523D01*
X127942431Y-93010522D01*
X127942431Y-93010518D01*
X127877957Y-92854864D01*
X127877956Y-92854861D01*
X127784358Y-92714782D01*
X127784352Y-92714774D01*
X127725679Y-92656101D01*
X127692194Y-92594778D01*
X127697178Y-92525086D01*
X127739050Y-92469153D01*
X127757065Y-92457935D01*
X127835678Y-92417880D01*
X128009563Y-92291545D01*
X128161545Y-92139563D01*
X128287880Y-91965678D01*
X128287879Y-91965678D01*
X128289682Y-91963198D01*
X128345012Y-91920532D01*
X128414625Y-91914553D01*
X128476420Y-91947159D01*
X128490318Y-91963198D01*
X128492120Y-91965678D01*
X128618455Y-92139563D01*
X128770437Y-92291545D01*
X128944322Y-92417880D01*
X129022935Y-92457935D01*
X129135829Y-92515458D01*
X129135832Y-92515459D01*
X129315177Y-92573731D01*
X129340245Y-92581876D01*
X129552533Y-92615500D01*
X129552534Y-92615500D01*
X129767466Y-92615500D01*
X129767467Y-92615500D01*
X129979755Y-92581876D01*
X129979758Y-92581875D01*
X129979759Y-92581875D01*
X130184167Y-92515459D01*
X130184170Y-92515458D01*
X130202909Y-92505910D01*
X130375678Y-92417880D01*
X130549563Y-92291545D01*
X130644092Y-92197015D01*
X130705411Y-92163533D01*
X130775103Y-92168517D01*
X130831037Y-92210388D01*
X130847952Y-92241366D01*
X130891202Y-92357328D01*
X130891206Y-92357335D01*
X130977452Y-92472544D01*
X130977455Y-92472547D01*
X131092664Y-92558793D01*
X131092671Y-92558797D01*
X131227517Y-92609091D01*
X131227516Y-92609091D01*
X131234444Y-92609835D01*
X131287127Y-92615500D01*
X133112872Y-92615499D01*
X133172483Y-92609091D01*
X133307331Y-92558796D01*
X133422546Y-92472546D01*
X133508796Y-92357331D01*
X133559091Y-92222483D01*
X133565500Y-92162873D01*
X133565499Y-90037128D01*
X133559091Y-89977517D01*
X133508871Y-89842872D01*
X133503888Y-89773183D01*
X133537371Y-89711862D01*
X138615478Y-84633755D01*
X138676799Y-84600272D01*
X138741473Y-84603506D01*
X138783757Y-84617246D01*
X138993713Y-84650500D01*
X138993714Y-84650500D01*
X139206286Y-84650500D01*
X139206287Y-84650500D01*
X139416243Y-84617246D01*
X139618412Y-84551557D01*
X139807816Y-84455051D01*
X139866833Y-84412173D01*
X139979786Y-84330109D01*
X139979788Y-84330106D01*
X139979792Y-84330104D01*
X140130104Y-84179792D01*
X140199682Y-84084024D01*
X140255011Y-84041360D01*
X140324624Y-84035381D01*
X140386420Y-84067986D01*
X140400315Y-84084021D01*
X140437819Y-84135641D01*
X140469896Y-84179792D01*
X140620213Y-84330109D01*
X140792179Y-84455048D01*
X140792181Y-84455049D01*
X140792184Y-84455051D01*
X140981588Y-84551557D01*
X141112820Y-84594197D01*
X141133211Y-84608140D01*
X141155685Y-84618399D01*
X141161545Y-84627514D01*
X141170492Y-84633632D01*
X141180109Y-84656388D01*
X141193470Y-84677170D01*
X141195832Y-84693594D01*
X141197691Y-84697991D01*
X141198499Y-84712104D01*
X141198500Y-84717797D01*
X141198499Y-84717800D01*
X141198499Y-84717806D01*
X141198500Y-84717819D01*
X141198500Y-85865302D01*
X141178815Y-85932341D01*
X141126011Y-85978096D01*
X141056853Y-85988040D01*
X141018205Y-85975787D01*
X140859223Y-85894782D01*
X140859222Y-85894781D01*
X140859219Y-85894780D01*
X140768495Y-85865302D01*
X140664534Y-85831522D01*
X140489995Y-85803878D01*
X140462352Y-85799500D01*
X140257648Y-85799500D01*
X140233329Y-85803351D01*
X140055465Y-85831522D01*
X139860776Y-85894781D01*
X139678386Y-85987715D01*
X139512786Y-86108028D01*
X139368028Y-86252786D01*
X139247715Y-86418386D01*
X139154781Y-86600776D01*
X139091522Y-86795465D01*
X139059500Y-86997648D01*
X139059500Y-87202351D01*
X139091522Y-87404534D01*
X139154781Y-87599223D01*
X139215561Y-87718509D01*
X139247585Y-87781359D01*
X139247715Y-87781613D01*
X139368028Y-87947213D01*
X139512786Y-88091971D01*
X139633226Y-88179474D01*
X139678390Y-88212287D01*
X139794607Y-88271503D01*
X139860776Y-88305218D01*
X139860778Y-88305218D01*
X139860781Y-88305220D01*
X139951502Y-88334697D01*
X140055465Y-88368477D01*
X140156557Y-88384488D01*
X140257648Y-88400500D01*
X140257649Y-88400500D01*
X140462351Y-88400500D01*
X140462352Y-88400500D01*
X140664534Y-88368477D01*
X140859219Y-88305220D01*
X141018206Y-88224211D01*
X141086874Y-88211316D01*
X141151614Y-88237592D01*
X141191872Y-88294698D01*
X141198500Y-88334697D01*
X141198500Y-92980902D01*
X141178815Y-93047941D01*
X141162181Y-93068583D01*
X140847583Y-93383181D01*
X140786260Y-93416666D01*
X140759902Y-93419500D01*
X139759998Y-93419500D01*
X139759980Y-93419501D01*
X139657203Y-93430000D01*
X139657200Y-93430001D01*
X139490668Y-93485185D01*
X139490663Y-93485187D01*
X139341342Y-93577289D01*
X139217289Y-93701342D01*
X139125187Y-93850663D01*
X139125186Y-93850666D01*
X139070001Y-94017203D01*
X139070001Y-94017204D01*
X139070000Y-94017204D01*
X139059500Y-94119983D01*
X139059500Y-95320001D01*
X139059501Y-95320018D01*
X139070000Y-95422796D01*
X139070001Y-95422799D01*
X139086818Y-95473548D01*
X139125186Y-95589334D01*
X139217288Y-95738656D01*
X139341344Y-95862712D01*
X139490666Y-95954814D01*
X139657203Y-96009999D01*
X139759991Y-96020500D01*
X140960008Y-96020499D01*
X140961800Y-96020316D01*
X140977895Y-96018671D01*
X141062797Y-96009999D01*
X141229334Y-95954814D01*
X141378656Y-95862712D01*
X141502712Y-95738656D01*
X141594814Y-95589334D01*
X141621955Y-95507427D01*
X141661726Y-95449984D01*
X141726242Y-95423161D01*
X141795018Y-95435476D01*
X141839977Y-95473547D01*
X141908030Y-95567213D01*
X141908034Y-95567219D01*
X142052786Y-95711971D01*
X142173226Y-95799474D01*
X142218390Y-95832287D01*
X142334607Y-95891503D01*
X142400776Y-95925218D01*
X142400778Y-95925218D01*
X142400781Y-95925220D01*
X142491856Y-95954812D01*
X142595465Y-95988477D01*
X142696557Y-96004488D01*
X142797648Y-96020500D01*
X142797649Y-96020500D01*
X143002351Y-96020500D01*
X143002352Y-96020500D01*
X143204534Y-95988477D01*
X143399219Y-95925220D01*
X143581610Y-95832287D01*
X143710482Y-95738657D01*
X143747213Y-95711971D01*
X143747215Y-95711968D01*
X143747219Y-95711966D01*
X143891966Y-95567219D01*
X143891968Y-95567215D01*
X143891971Y-95567213D01*
X144012284Y-95401614D01*
X144012286Y-95401611D01*
X144012287Y-95401610D01*
X144059516Y-95308917D01*
X144107489Y-95258123D01*
X144175310Y-95241328D01*
X144241445Y-95263865D01*
X144280483Y-95308917D01*
X144286386Y-95320501D01*
X144327715Y-95401614D01*
X144448028Y-95567213D01*
X144592786Y-95711971D01*
X144713226Y-95799474D01*
X144758390Y-95832287D01*
X144874607Y-95891503D01*
X144940776Y-95925218D01*
X144940778Y-95925218D01*
X144940781Y-95925220D01*
X145031856Y-95954812D01*
X145135465Y-95988477D01*
X145236557Y-96004488D01*
X145337648Y-96020500D01*
X145337649Y-96020500D01*
X145542351Y-96020500D01*
X145542352Y-96020500D01*
X145744534Y-95988477D01*
X145758842Y-95983827D01*
X145828682Y-95981831D01*
X145884842Y-96014077D01*
X151283181Y-101412416D01*
X151316666Y-101473739D01*
X151319500Y-101500097D01*
X151319500Y-102847870D01*
X151319501Y-102847876D01*
X151325908Y-102907483D01*
X151376202Y-103042328D01*
X151376206Y-103042335D01*
X151462452Y-103157544D01*
X151462455Y-103157547D01*
X151577664Y-103243793D01*
X151577671Y-103243797D01*
X151712517Y-103294091D01*
X151712516Y-103294091D01*
X151719444Y-103294835D01*
X151772127Y-103300500D01*
X154867872Y-103300499D01*
X154927483Y-103294091D01*
X155062331Y-103243796D01*
X155177546Y-103157546D01*
X155263796Y-103042331D01*
X155314091Y-102907483D01*
X155320500Y-102847873D01*
X155320499Y-102502057D01*
X155340183Y-102435021D01*
X155392987Y-102389266D01*
X155462146Y-102379322D01*
X155525701Y-102408347D01*
X155542874Y-102426573D01*
X155692718Y-102621851D01*
X155692726Y-102621860D01*
X155878140Y-102807274D01*
X155878148Y-102807281D01*
X156086196Y-102966924D01*
X156313299Y-103098041D01*
X156313309Y-103098046D01*
X156555571Y-103198394D01*
X156555581Y-103198398D01*
X156808884Y-103266270D01*
X157057188Y-103298960D01*
X157068864Y-103300498D01*
X157068880Y-103300500D01*
X157068887Y-103300500D01*
X157331113Y-103300500D01*
X157331120Y-103300500D01*
X157591116Y-103266270D01*
X157844419Y-103198398D01*
X158086697Y-103098043D01*
X158313803Y-102966924D01*
X158521851Y-102807282D01*
X158521855Y-102807277D01*
X158521860Y-102807274D01*
X158707274Y-102621860D01*
X158707277Y-102621855D01*
X158707282Y-102621851D01*
X158866924Y-102413803D01*
X158998043Y-102186697D01*
X159098398Y-101944419D01*
X159166270Y-101691116D01*
X159200500Y-101431120D01*
X159200500Y-101168880D01*
X159166270Y-100908884D01*
X159098398Y-100655581D01*
X159079501Y-100609959D01*
X158998046Y-100413309D01*
X158998041Y-100413299D01*
X158866924Y-100186196D01*
X158707281Y-99978148D01*
X158707274Y-99978140D01*
X158521860Y-99792726D01*
X158521851Y-99792718D01*
X158313803Y-99633075D01*
X158086700Y-99501958D01*
X158086690Y-99501954D01*
X157877047Y-99415117D01*
X157822644Y-99371276D01*
X157800579Y-99304982D01*
X157800500Y-99300556D01*
X157800500Y-98780945D01*
X157800500Y-98780943D01*
X157759577Y-98628216D01*
X157759577Y-98628215D01*
X157759577Y-98628214D01*
X157730639Y-98578095D01*
X157730637Y-98578092D01*
X157680520Y-98491284D01*
X157568716Y-98379480D01*
X157568715Y-98379479D01*
X157564385Y-98375149D01*
X157564374Y-98375139D01*
X155421416Y-96232181D01*
X155387931Y-96170858D01*
X155392915Y-96101166D01*
X155434787Y-96045233D01*
X155500251Y-96020816D01*
X155509097Y-96020500D01*
X155702351Y-96020500D01*
X155702352Y-96020500D01*
X155904534Y-95988477D01*
X156099219Y-95925220D01*
X156281610Y-95832287D01*
X156410482Y-95738657D01*
X156447213Y-95711971D01*
X156447215Y-95711968D01*
X156447219Y-95711966D01*
X156591966Y-95567219D01*
X156591968Y-95567215D01*
X156591971Y-95567213D01*
X156712284Y-95401614D01*
X156712286Y-95401611D01*
X156712287Y-95401610D01*
X156759516Y-95308917D01*
X156807489Y-95258123D01*
X156875310Y-95241328D01*
X156941445Y-95263865D01*
X156980483Y-95308917D01*
X156986386Y-95320501D01*
X157027715Y-95401614D01*
X157148028Y-95567213D01*
X157292786Y-95711971D01*
X157413226Y-95799474D01*
X157458390Y-95832287D01*
X157574607Y-95891503D01*
X157640776Y-95925218D01*
X157640778Y-95925218D01*
X157640781Y-95925220D01*
X157731856Y-95954812D01*
X157835465Y-95988477D01*
X157936557Y-96004488D01*
X158037648Y-96020500D01*
X158037649Y-96020500D01*
X158242351Y-96020500D01*
X158242352Y-96020500D01*
X158444534Y-95988477D01*
X158639219Y-95925220D01*
X158821610Y-95832287D01*
X158950482Y-95738657D01*
X158987213Y-95711971D01*
X158987215Y-95711968D01*
X158987219Y-95711966D01*
X159131966Y-95567219D01*
X159131968Y-95567215D01*
X159131971Y-95567213D01*
X159252284Y-95401614D01*
X159252286Y-95401611D01*
X159252287Y-95401610D01*
X159259117Y-95388204D01*
X159307091Y-95337409D01*
X159369602Y-95320500D01*
X177450831Y-95320500D01*
X177450847Y-95320501D01*
X177458443Y-95320501D01*
X177616554Y-95320501D01*
X177616557Y-95320501D01*
X177769285Y-95279577D01*
X177819404Y-95250639D01*
X177906216Y-95200520D01*
X178018020Y-95088716D01*
X178018020Y-95088714D01*
X178028228Y-95078507D01*
X178028230Y-95078504D01*
X179862416Y-93244318D01*
X179923739Y-93210833D01*
X179950097Y-93207999D01*
X182597871Y-93207999D01*
X182597872Y-93207999D01*
X182657483Y-93201591D01*
X182792331Y-93151296D01*
X182907546Y-93065046D01*
X182993796Y-92949831D01*
X183044091Y-92814983D01*
X183050500Y-92755373D01*
X183050499Y-89659628D01*
X183044091Y-89600017D01*
X182993796Y-89465169D01*
X182993795Y-89465168D01*
X182993793Y-89465164D01*
X182907547Y-89349955D01*
X182907544Y-89349952D01*
X182792335Y-89263706D01*
X182792328Y-89263702D01*
X182657482Y-89213408D01*
X182657483Y-89213408D01*
X182597883Y-89207001D01*
X182597881Y-89207000D01*
X182597873Y-89207000D01*
X182597865Y-89207000D01*
X182251238Y-89207000D01*
X182184199Y-89187315D01*
X182138444Y-89134511D01*
X182128500Y-89065353D01*
X182157525Y-89001797D01*
X182175751Y-88984625D01*
X182276365Y-88907419D01*
X182276365Y-88907417D01*
X181468900Y-88099953D01*
X181607780Y-88007157D01*
X181729657Y-87885280D01*
X181822452Y-87746400D01*
X182629917Y-88553865D01*
X182629919Y-88553865D01*
X182716499Y-88441034D01*
X182716511Y-88441016D01*
X182847590Y-88213982D01*
X182847595Y-88213971D01*
X182947924Y-87971755D01*
X183015777Y-87718520D01*
X183015779Y-87718509D01*
X183049999Y-87458594D01*
X183050000Y-87458580D01*
X183050000Y-87196419D01*
X183049999Y-87196405D01*
X183015779Y-86936490D01*
X183015777Y-86936479D01*
X182947924Y-86683244D01*
X182847595Y-86441028D01*
X182847590Y-86441017D01*
X182716511Y-86213983D01*
X182716505Y-86213975D01*
X182629918Y-86101133D01*
X182629917Y-86101133D01*
X181822452Y-86908598D01*
X181729657Y-86769720D01*
X181607780Y-86647843D01*
X181468899Y-86555045D01*
X182276365Y-85747580D01*
X182163524Y-85660994D01*
X182163516Y-85660988D01*
X181936482Y-85529909D01*
X181936471Y-85529904D01*
X181694255Y-85429575D01*
X181441020Y-85361722D01*
X181441009Y-85361720D01*
X181181094Y-85327500D01*
X180918905Y-85327500D01*
X180658990Y-85361720D01*
X180658979Y-85361722D01*
X180405744Y-85429575D01*
X180163528Y-85529904D01*
X180163517Y-85529909D01*
X179936471Y-85660996D01*
X179823633Y-85747579D01*
X179823633Y-85747580D01*
X180631099Y-86555046D01*
X180492220Y-86647843D01*
X180370343Y-86769720D01*
X180277546Y-86908599D01*
X179470080Y-86101133D01*
X179470079Y-86101133D01*
X179383496Y-86213971D01*
X179252409Y-86441017D01*
X179252404Y-86441028D01*
X179152075Y-86683244D01*
X179084222Y-86936479D01*
X179084220Y-86936490D01*
X179050000Y-87196405D01*
X179050000Y-87458594D01*
X179084220Y-87718509D01*
X179084222Y-87718520D01*
X179152075Y-87971755D01*
X179252404Y-88213971D01*
X179252409Y-88213982D01*
X179383488Y-88441016D01*
X179383494Y-88441024D01*
X179470080Y-88553865D01*
X180277546Y-87746399D01*
X180370343Y-87885280D01*
X180492220Y-88007157D01*
X180631099Y-88099952D01*
X179823633Y-88907417D01*
X179823633Y-88907418D01*
X179924249Y-88984624D01*
X179965451Y-89041052D01*
X179969606Y-89110798D01*
X179935393Y-89171719D01*
X179873676Y-89204471D01*
X179848762Y-89207000D01*
X179502130Y-89207000D01*
X179502123Y-89207001D01*
X179442516Y-89213408D01*
X179307671Y-89263702D01*
X179307664Y-89263706D01*
X179192455Y-89349952D01*
X179192452Y-89349955D01*
X179106206Y-89465164D01*
X179106202Y-89465171D01*
X179055908Y-89600017D01*
X179051489Y-89641123D01*
X179049501Y-89659623D01*
X179049500Y-89659635D01*
X179049500Y-92307402D01*
X179029815Y-92374441D01*
X179013181Y-92395083D01*
X177325084Y-94083181D01*
X177263761Y-94116666D01*
X177237403Y-94119500D01*
X159369602Y-94119500D01*
X159302563Y-94099815D01*
X159259117Y-94051795D01*
X159252284Y-94038385D01*
X159131971Y-93872786D01*
X158987213Y-93728028D01*
X158821613Y-93607715D01*
X158821612Y-93607714D01*
X158821610Y-93607713D01*
X158761898Y-93577288D01*
X158639223Y-93514781D01*
X158444534Y-93451522D01*
X158269995Y-93423878D01*
X158242352Y-93419500D01*
X158037648Y-93419500D01*
X158013329Y-93423351D01*
X157835465Y-93451522D01*
X157640776Y-93514781D01*
X157458386Y-93607715D01*
X157292786Y-93728028D01*
X157148028Y-93872786D01*
X157027715Y-94038386D01*
X156980485Y-94131080D01*
X156932510Y-94181876D01*
X156864689Y-94198671D01*
X156798554Y-94176134D01*
X156759515Y-94131080D01*
X156751475Y-94115300D01*
X156712287Y-94038390D01*
X156680092Y-93994077D01*
X156591971Y-93872786D01*
X156447213Y-93728028D01*
X156281613Y-93607715D01*
X156281612Y-93607714D01*
X156281610Y-93607713D01*
X156221898Y-93577288D01*
X156099223Y-93514781D01*
X155904534Y-93451522D01*
X155729995Y-93423878D01*
X155702352Y-93419500D01*
X155497648Y-93419500D01*
X155473329Y-93423351D01*
X155295465Y-93451522D01*
X155100776Y-93514781D01*
X154918386Y-93607715D01*
X154752786Y-93728028D01*
X154608028Y-93872786D01*
X154487715Y-94038386D01*
X154440485Y-94131080D01*
X154392510Y-94181876D01*
X154324689Y-94198671D01*
X154258554Y-94176134D01*
X154219515Y-94131080D01*
X154211475Y-94115300D01*
X154172287Y-94038390D01*
X154140092Y-93994077D01*
X154051971Y-93872786D01*
X153907213Y-93728028D01*
X153741613Y-93607715D01*
X153741612Y-93607714D01*
X153741610Y-93607713D01*
X153681898Y-93577288D01*
X153559223Y-93514781D01*
X153364534Y-93451522D01*
X153189995Y-93423878D01*
X153162352Y-93419500D01*
X152957648Y-93419500D01*
X152933329Y-93423351D01*
X152755465Y-93451522D01*
X152560776Y-93514781D01*
X152378386Y-93607715D01*
X152212786Y-93728028D01*
X152068028Y-93872786D01*
X151947713Y-94038388D01*
X151900203Y-94131630D01*
X151852228Y-94182426D01*
X151784407Y-94199220D01*
X151718272Y-94176682D01*
X151679234Y-94131628D01*
X151631861Y-94038652D01*
X151599474Y-93994077D01*
X151599474Y-93994076D01*
X150920000Y-94673551D01*
X150920000Y-94667339D01*
X150892741Y-94565606D01*
X150840080Y-94474394D01*
X150765606Y-94399920D01*
X150674394Y-94347259D01*
X150572661Y-94320000D01*
X150566446Y-94320000D01*
X151245922Y-93640524D01*
X151245921Y-93640523D01*
X151201359Y-93608147D01*
X151201350Y-93608141D01*
X151019031Y-93515244D01*
X150824417Y-93452009D01*
X150622317Y-93420000D01*
X150417683Y-93420000D01*
X150215582Y-93452009D01*
X150020968Y-93515244D01*
X149838644Y-93608143D01*
X149794077Y-93640523D01*
X149794077Y-93640524D01*
X150473554Y-94320000D01*
X150467339Y-94320000D01*
X150365606Y-94347259D01*
X150274394Y-94399920D01*
X150199920Y-94474394D01*
X150147259Y-94565606D01*
X150120000Y-94667339D01*
X150120000Y-94673553D01*
X149440524Y-93994077D01*
X149440523Y-93994077D01*
X149408143Y-94038644D01*
X149360485Y-94132180D01*
X149312510Y-94182976D01*
X149244689Y-94199771D01*
X149178554Y-94177233D01*
X149139515Y-94132180D01*
X149091859Y-94038650D01*
X149059474Y-93994077D01*
X149059474Y-93994076D01*
X148380000Y-94673551D01*
X148380000Y-94667339D01*
X148352741Y-94565606D01*
X148300080Y-94474394D01*
X148225606Y-94399920D01*
X148134394Y-94347259D01*
X148032661Y-94320000D01*
X148026446Y-94320000D01*
X148705922Y-93640524D01*
X148705921Y-93640523D01*
X148661359Y-93608147D01*
X148661350Y-93608141D01*
X148479031Y-93515244D01*
X148284417Y-93452009D01*
X148082317Y-93420000D01*
X147877683Y-93420000D01*
X147675582Y-93452009D01*
X147480968Y-93515244D01*
X147298644Y-93608143D01*
X147254077Y-93640523D01*
X147254077Y-93640524D01*
X147933554Y-94320000D01*
X147927339Y-94320000D01*
X147825606Y-94347259D01*
X147734394Y-94399920D01*
X147659920Y-94474394D01*
X147607259Y-94565606D01*
X147580000Y-94667339D01*
X147580000Y-94673553D01*
X146900524Y-93994077D01*
X146900523Y-93994077D01*
X146868143Y-94038644D01*
X146820765Y-94131630D01*
X146772790Y-94182426D01*
X146704969Y-94199221D01*
X146638834Y-94176683D01*
X146599795Y-94131630D01*
X146593861Y-94119983D01*
X146552287Y-94038390D01*
X146552285Y-94038387D01*
X146552284Y-94038385D01*
X146431971Y-93872786D01*
X146287213Y-93728028D01*
X146121613Y-93607715D01*
X146121612Y-93607714D01*
X146121610Y-93607713D01*
X146061898Y-93577288D01*
X145939223Y-93514781D01*
X145744534Y-93451522D01*
X145569995Y-93423878D01*
X145542352Y-93419500D01*
X145337648Y-93419500D01*
X145313329Y-93423351D01*
X145135465Y-93451522D01*
X144940776Y-93514781D01*
X144758386Y-93607715D01*
X144592786Y-93728028D01*
X144448028Y-93872786D01*
X144327715Y-94038386D01*
X144280485Y-94131080D01*
X144232510Y-94181876D01*
X144164689Y-94198671D01*
X144098554Y-94176134D01*
X144059515Y-94131080D01*
X144051475Y-94115300D01*
X144012287Y-94038390D01*
X143980092Y-93994077D01*
X143891971Y-93872786D01*
X143747213Y-93728028D01*
X143581613Y-93607715D01*
X143581612Y-93607714D01*
X143581610Y-93607713D01*
X143521898Y-93577288D01*
X143399223Y-93514781D01*
X143204534Y-93451522D01*
X143029995Y-93423878D01*
X143002352Y-93419500D01*
X142797648Y-93419500D01*
X142741652Y-93428369D01*
X142595464Y-93451523D01*
X142595457Y-93451524D01*
X142561817Y-93462455D01*
X142491976Y-93464450D01*
X142432144Y-93428369D01*
X142401316Y-93365668D01*
X142399500Y-93344524D01*
X142399500Y-88475475D01*
X142419185Y-88408436D01*
X142471989Y-88362681D01*
X142541147Y-88352737D01*
X142561820Y-88357545D01*
X142595458Y-88368475D01*
X142595461Y-88368475D01*
X142595466Y-88368477D01*
X142797648Y-88400500D01*
X142797649Y-88400500D01*
X143002351Y-88400500D01*
X143002352Y-88400500D01*
X143204534Y-88368477D01*
X143399219Y-88305220D01*
X143581610Y-88212287D01*
X143674590Y-88144732D01*
X143747213Y-88091971D01*
X143747215Y-88091968D01*
X143747219Y-88091966D01*
X143891966Y-87947219D01*
X143891968Y-87947215D01*
X143891971Y-87947213D01*
X144012284Y-87781614D01*
X144012286Y-87781611D01*
X144012287Y-87781610D01*
X144059516Y-87688917D01*
X144107489Y-87638123D01*
X144175310Y-87621328D01*
X144241445Y-87643865D01*
X144280483Y-87688917D01*
X144324348Y-87775006D01*
X144327715Y-87781614D01*
X144448028Y-87947213D01*
X144592786Y-88091971D01*
X144713226Y-88179474D01*
X144758390Y-88212287D01*
X144874607Y-88271503D01*
X144940776Y-88305218D01*
X144940778Y-88305218D01*
X144940781Y-88305220D01*
X145031502Y-88334697D01*
X145135465Y-88368477D01*
X145236557Y-88384488D01*
X145337648Y-88400500D01*
X145337649Y-88400500D01*
X145542351Y-88400500D01*
X145542352Y-88400500D01*
X145744534Y-88368477D01*
X145939219Y-88305220D01*
X146121610Y-88212287D01*
X146214590Y-88144732D01*
X146287213Y-88091971D01*
X146287215Y-88091968D01*
X146287219Y-88091966D01*
X146431966Y-87947219D01*
X146431968Y-87947215D01*
X146431971Y-87947213D01*
X146552286Y-87781611D01*
X146552415Y-87781359D01*
X146599795Y-87688369D01*
X146647769Y-87637573D01*
X146715590Y-87620778D01*
X146781725Y-87643315D01*
X146820765Y-87688369D01*
X146868141Y-87781350D01*
X146868147Y-87781359D01*
X146900523Y-87825921D01*
X146900524Y-87825922D01*
X147580000Y-87146446D01*
X147580000Y-87152661D01*
X147607259Y-87254394D01*
X147659920Y-87345606D01*
X147734394Y-87420080D01*
X147825606Y-87472741D01*
X147927339Y-87500000D01*
X147933553Y-87500000D01*
X147254076Y-88179474D01*
X147298650Y-88211859D01*
X147480968Y-88304755D01*
X147675582Y-88367990D01*
X147877683Y-88400000D01*
X148082317Y-88400000D01*
X148284417Y-88367990D01*
X148479031Y-88304755D01*
X148661349Y-88211859D01*
X148705921Y-88179474D01*
X148026447Y-87500000D01*
X148032661Y-87500000D01*
X148134394Y-87472741D01*
X148225606Y-87420080D01*
X148300080Y-87345606D01*
X148352741Y-87254394D01*
X148380000Y-87152661D01*
X148380000Y-87146447D01*
X149059474Y-87825921D01*
X149091861Y-87781347D01*
X149091861Y-87781346D01*
X149139515Y-87687820D01*
X149187489Y-87637024D01*
X149255310Y-87620228D01*
X149321445Y-87642765D01*
X149360485Y-87687819D01*
X149408141Y-87781350D01*
X149408147Y-87781359D01*
X149440523Y-87825921D01*
X149440524Y-87825922D01*
X150120000Y-87146446D01*
X150120000Y-87152661D01*
X150147259Y-87254394D01*
X150199920Y-87345606D01*
X150274394Y-87420080D01*
X150365606Y-87472741D01*
X150467339Y-87500000D01*
X150473553Y-87500000D01*
X149794076Y-88179474D01*
X149838650Y-88211859D01*
X150020968Y-88304755D01*
X150215582Y-88367990D01*
X150417683Y-88400000D01*
X150622317Y-88400000D01*
X150824417Y-88367990D01*
X151019031Y-88304755D01*
X151201349Y-88211859D01*
X151245921Y-88179474D01*
X150566447Y-87500000D01*
X150572661Y-87500000D01*
X150674394Y-87472741D01*
X150765606Y-87420080D01*
X150840080Y-87345606D01*
X150892741Y-87254394D01*
X150920000Y-87152661D01*
X150920000Y-87146447D01*
X151599474Y-87825921D01*
X151631861Y-87781347D01*
X151631861Y-87781346D01*
X151679234Y-87688371D01*
X151727208Y-87637575D01*
X151795028Y-87620779D01*
X151861164Y-87643316D01*
X151900203Y-87688369D01*
X151947713Y-87781611D01*
X152068028Y-87947213D01*
X152212786Y-88091971D01*
X152333226Y-88179474D01*
X152378390Y-88212287D01*
X152494607Y-88271503D01*
X152560776Y-88305218D01*
X152560778Y-88305218D01*
X152560781Y-88305220D01*
X152651502Y-88334697D01*
X152755465Y-88368477D01*
X152856557Y-88384488D01*
X152957648Y-88400500D01*
X152957649Y-88400500D01*
X153162351Y-88400500D01*
X153162352Y-88400500D01*
X153364534Y-88368477D01*
X153559219Y-88305220D01*
X153741610Y-88212287D01*
X153834590Y-88144732D01*
X153907213Y-88091971D01*
X153907215Y-88091968D01*
X153907219Y-88091966D01*
X154051966Y-87947219D01*
X154051968Y-87947215D01*
X154051971Y-87947213D01*
X154172284Y-87781614D01*
X154172286Y-87781611D01*
X154172287Y-87781610D01*
X154219516Y-87688917D01*
X154267489Y-87638123D01*
X154335310Y-87621328D01*
X154401445Y-87643865D01*
X154440483Y-87688917D01*
X154484348Y-87775006D01*
X154487715Y-87781614D01*
X154608028Y-87947213D01*
X154752786Y-88091971D01*
X154873226Y-88179474D01*
X154918390Y-88212287D01*
X155034607Y-88271503D01*
X155100776Y-88305218D01*
X155100778Y-88305218D01*
X155100781Y-88305220D01*
X155191502Y-88334697D01*
X155295465Y-88368477D01*
X155396557Y-88384488D01*
X155497648Y-88400500D01*
X155497649Y-88400500D01*
X155702351Y-88400500D01*
X155702352Y-88400500D01*
X155904534Y-88368477D01*
X156099219Y-88305220D01*
X156281610Y-88212287D01*
X156374590Y-88144732D01*
X156447213Y-88091971D01*
X156447215Y-88091968D01*
X156447219Y-88091966D01*
X156591966Y-87947219D01*
X156591968Y-87947215D01*
X156591971Y-87947213D01*
X156712284Y-87781614D01*
X156712286Y-87781611D01*
X156712287Y-87781610D01*
X156759516Y-87688917D01*
X156807489Y-87638123D01*
X156875310Y-87621328D01*
X156941445Y-87643865D01*
X156980483Y-87688917D01*
X157024348Y-87775006D01*
X157027715Y-87781614D01*
X157148028Y-87947213D01*
X157292786Y-88091971D01*
X157413226Y-88179474D01*
X157458390Y-88212287D01*
X157574607Y-88271503D01*
X157640776Y-88305218D01*
X157640778Y-88305218D01*
X157640781Y-88305220D01*
X157731502Y-88334697D01*
X157835465Y-88368477D01*
X157936557Y-88384488D01*
X158037648Y-88400500D01*
X158037649Y-88400500D01*
X158242351Y-88400500D01*
X158242352Y-88400500D01*
X158444534Y-88368477D01*
X158639219Y-88305220D01*
X158821610Y-88212287D01*
X158914590Y-88144732D01*
X158987213Y-88091971D01*
X158987215Y-88091968D01*
X158987219Y-88091966D01*
X159131966Y-87947219D01*
X159131968Y-87947215D01*
X159131971Y-87947213D01*
X159184732Y-87874590D01*
X159252287Y-87781610D01*
X159345220Y-87599219D01*
X159408477Y-87404534D01*
X159440500Y-87202352D01*
X159440500Y-86997648D01*
X159427098Y-86913032D01*
X159408477Y-86795465D01*
X159345218Y-86600776D01*
X159286800Y-86486126D01*
X159252287Y-86418390D01*
X159220092Y-86374077D01*
X159131971Y-86252786D01*
X158987213Y-86108028D01*
X158821610Y-85987712D01*
X158808200Y-85980879D01*
X158797138Y-85970431D01*
X158783297Y-85964110D01*
X158772255Y-85946928D01*
X158757406Y-85932903D01*
X158753165Y-85917223D01*
X158745523Y-85905332D01*
X158740500Y-85870397D01*
X158740500Y-84874499D01*
X158760185Y-84807460D01*
X158812989Y-84761705D01*
X158864500Y-84750499D01*
X160297871Y-84750499D01*
X160297872Y-84750499D01*
X160357483Y-84744091D01*
X160492331Y-84693796D01*
X160607546Y-84607546D01*
X160693796Y-84492331D01*
X160744091Y-84357483D01*
X160750500Y-84297873D01*
X160750499Y-82502128D01*
X160744091Y-82442517D01*
X160735772Y-82420213D01*
X160693797Y-82307671D01*
X160693793Y-82307664D01*
X160607547Y-82192455D01*
X160607544Y-82192452D01*
X160492335Y-82106206D01*
X160492328Y-82106202D01*
X160382920Y-82065396D01*
X160357482Y-82055908D01*
X160357483Y-82055908D01*
X160297883Y-82049501D01*
X160297881Y-82049500D01*
X160297873Y-82049500D01*
X160297865Y-82049500D01*
X158864500Y-82049500D01*
X158797461Y-82029815D01*
X158751706Y-81977011D01*
X158746414Y-81952686D01*
X170774500Y-81952686D01*
X170774500Y-82233549D01*
X170805942Y-82512612D01*
X170805945Y-82512630D01*
X170868439Y-82786435D01*
X170868443Y-82786447D01*
X170961200Y-83051529D01*
X171083053Y-83304560D01*
X171083055Y-83304563D01*
X171232477Y-83542366D01*
X171407584Y-83761943D01*
X171606175Y-83960534D01*
X171825752Y-84135641D01*
X172063555Y-84285063D01*
X172316592Y-84406919D01*
X172515680Y-84476583D01*
X172581670Y-84499674D01*
X172581682Y-84499678D01*
X172855491Y-84562173D01*
X172855497Y-84562173D01*
X172855505Y-84562175D01*
X173041547Y-84583136D01*
X173134569Y-84593617D01*
X173134572Y-84593618D01*
X173134575Y-84593618D01*
X173415428Y-84593618D01*
X173415429Y-84593617D01*
X173558055Y-84577547D01*
X173694494Y-84562175D01*
X173694499Y-84562174D01*
X173694509Y-84562173D01*
X173968318Y-84499678D01*
X174233408Y-84406919D01*
X174486445Y-84285063D01*
X174724248Y-84135641D01*
X174943825Y-83960534D01*
X175142416Y-83761943D01*
X175317523Y-83542366D01*
X175466945Y-83304563D01*
X175588801Y-83051526D01*
X175681560Y-82786436D01*
X175744055Y-82512627D01*
X175751955Y-82442517D01*
X175760956Y-82362627D01*
X175775500Y-82233543D01*
X175775500Y-81952693D01*
X175758599Y-81802690D01*
X175744057Y-81673623D01*
X175744054Y-81673605D01*
X175681560Y-81399800D01*
X175681556Y-81399788D01*
X175658465Y-81333798D01*
X175588801Y-81134710D01*
X175466945Y-80881673D01*
X175317523Y-80643870D01*
X175142416Y-80424293D01*
X174943825Y-80225702D01*
X174724248Y-80050595D01*
X174486445Y-79901173D01*
X174486442Y-79901171D01*
X174233411Y-79779318D01*
X173968329Y-79686561D01*
X173968317Y-79686557D01*
X173694512Y-79624063D01*
X173694494Y-79624060D01*
X173415431Y-79592618D01*
X173415425Y-79592618D01*
X173134575Y-79592618D01*
X173134568Y-79592618D01*
X172855505Y-79624060D01*
X172855487Y-79624063D01*
X172581682Y-79686557D01*
X172581670Y-79686561D01*
X172316588Y-79779318D01*
X172063557Y-79901171D01*
X171825753Y-80050594D01*
X171606175Y-80225701D01*
X171407583Y-80424293D01*
X171232476Y-80643871D01*
X171083053Y-80881675D01*
X170961200Y-81134706D01*
X170868443Y-81399788D01*
X170868439Y-81399800D01*
X170805945Y-81673605D01*
X170805942Y-81673623D01*
X170774500Y-81952686D01*
X158746414Y-81952686D01*
X158740500Y-81925500D01*
X158740500Y-71860945D01*
X158740500Y-71860943D01*
X158699577Y-71708216D01*
X158699577Y-71708215D01*
X158699577Y-71708214D01*
X158670639Y-71658095D01*
X158670637Y-71658092D01*
X158636810Y-71599500D01*
X158620520Y-71571284D01*
X158508716Y-71459480D01*
X158508715Y-71459479D01*
X158504385Y-71455149D01*
X158504374Y-71455139D01*
X154782394Y-67733159D01*
X154748909Y-67671836D01*
X154753893Y-67602144D01*
X154795765Y-67546211D01*
X154845891Y-67523859D01*
X154849686Y-67523105D01*
X155005468Y-67458578D01*
X155145668Y-67364899D01*
X155145671Y-67364896D01*
X155173749Y-67336819D01*
X155235072Y-67303334D01*
X155261430Y-67300500D01*
X160613331Y-67300500D01*
X160613347Y-67300501D01*
X160620943Y-67300501D01*
X160779054Y-67300501D01*
X160779057Y-67300501D01*
X160931785Y-67259577D01*
X160988166Y-67227025D01*
X161068716Y-67180520D01*
X161180520Y-67068716D01*
X161180520Y-67068714D01*
X161190724Y-67058511D01*
X161190728Y-67058506D01*
X163915478Y-64333755D01*
X163976799Y-64300272D01*
X164041473Y-64303506D01*
X164083757Y-64317246D01*
X164293713Y-64350500D01*
X164293714Y-64350500D01*
X164506286Y-64350500D01*
X164506287Y-64350500D01*
X164716243Y-64317246D01*
X164918412Y-64251557D01*
X165107816Y-64155051D01*
X165142677Y-64129723D01*
X165279786Y-64030109D01*
X165279788Y-64030106D01*
X165279792Y-64030104D01*
X165430104Y-63879792D01*
X165430106Y-63879788D01*
X165430109Y-63879786D01*
X165555048Y-63707820D01*
X165555050Y-63707817D01*
X165555051Y-63707816D01*
X165564038Y-63690177D01*
X165612009Y-63639382D01*
X165679830Y-63622585D01*
X165745965Y-63645120D01*
X165785008Y-63690176D01*
X165844951Y-63807819D01*
X165969890Y-63979786D01*
X166120213Y-64130109D01*
X166292179Y-64255048D01*
X166292181Y-64255049D01*
X166292184Y-64255051D01*
X166481588Y-64351557D01*
X166683757Y-64417246D01*
X166893713Y-64450500D01*
X166893714Y-64450500D01*
X167106286Y-64450500D01*
X167106287Y-64450500D01*
X167316243Y-64417246D01*
X167518412Y-64351557D01*
X167707816Y-64255051D01*
X167845459Y-64155048D01*
X167879784Y-64130110D01*
X167879784Y-64130109D01*
X167879792Y-64130104D01*
X167964195Y-64045700D01*
X168025514Y-64012218D01*
X168095206Y-64017202D01*
X168151140Y-64059073D01*
X168168055Y-64090050D01*
X168206203Y-64192330D01*
X168206206Y-64192335D01*
X168292452Y-64307544D01*
X168292455Y-64307547D01*
X168407664Y-64393793D01*
X168407671Y-64393797D01*
X168542517Y-64444091D01*
X168542516Y-64444091D01*
X168549444Y-64444835D01*
X168602127Y-64450500D01*
X170397872Y-64450499D01*
X170457483Y-64444091D01*
X170592331Y-64393796D01*
X170676189Y-64331019D01*
X170741652Y-64306602D01*
X170809926Y-64321453D01*
X170859331Y-64370858D01*
X170874500Y-64430286D01*
X170874500Y-64433549D01*
X170905942Y-64712612D01*
X170905945Y-64712630D01*
X170968439Y-64986435D01*
X170968443Y-64986447D01*
X171061200Y-65251529D01*
X171183053Y-65504560D01*
X171183055Y-65504563D01*
X171332477Y-65742366D01*
X171507584Y-65961943D01*
X171706175Y-66160534D01*
X171925752Y-66335641D01*
X172163555Y-66485063D01*
X172416592Y-66606919D01*
X172591766Y-66668215D01*
X172681670Y-66699674D01*
X172681682Y-66699678D01*
X172955491Y-66762173D01*
X172955497Y-66762173D01*
X172955505Y-66762175D01*
X173141547Y-66783136D01*
X173234569Y-66793617D01*
X173234572Y-66793618D01*
X173234575Y-66793618D01*
X173515428Y-66793618D01*
X173515429Y-66793617D01*
X173658055Y-66777547D01*
X173794494Y-66762175D01*
X173794499Y-66762174D01*
X173794509Y-66762173D01*
X174068318Y-66699678D01*
X174333408Y-66606919D01*
X174586445Y-66485063D01*
X174824248Y-66335641D01*
X175043825Y-66160534D01*
X175242416Y-65961943D01*
X175417523Y-65742366D01*
X175566945Y-65504563D01*
X175688801Y-65251526D01*
X175781560Y-64986436D01*
X175844055Y-64712627D01*
X175875500Y-64433543D01*
X175875500Y-64152693D01*
X175875499Y-64152688D01*
X175875499Y-64152686D01*
X175872955Y-64130110D01*
X175855982Y-63979464D01*
X175844057Y-63873623D01*
X175844054Y-63873605D01*
X175781560Y-63599800D01*
X175781556Y-63599788D01*
X175722421Y-63430791D01*
X175688801Y-63334710D01*
X175566945Y-63081673D01*
X175417523Y-62843870D01*
X175242416Y-62624293D01*
X175043825Y-62425702D01*
X174824248Y-62250595D01*
X174617259Y-62120535D01*
X174586442Y-62101171D01*
X174333411Y-61979318D01*
X174068329Y-61886561D01*
X174068317Y-61886557D01*
X173794512Y-61824063D01*
X173794494Y-61824060D01*
X173515431Y-61792618D01*
X173515425Y-61792618D01*
X173234575Y-61792618D01*
X173234568Y-61792618D01*
X172955505Y-61824060D01*
X172955487Y-61824063D01*
X172681682Y-61886557D01*
X172681670Y-61886561D01*
X172416588Y-61979318D01*
X172163557Y-62101171D01*
X171925753Y-62250594D01*
X171706175Y-62425701D01*
X171507583Y-62624293D01*
X171332476Y-62843871D01*
X171183053Y-63081675D01*
X171086219Y-63282753D01*
X171039396Y-63334612D01*
X170971969Y-63352925D01*
X170905345Y-63331877D01*
X170860677Y-63278151D01*
X170850499Y-63228953D01*
X170850499Y-62202128D01*
X170844091Y-62142517D01*
X170835892Y-62120535D01*
X170793797Y-62007671D01*
X170793793Y-62007664D01*
X170707547Y-61892455D01*
X170707544Y-61892452D01*
X170592335Y-61806206D01*
X170592328Y-61806202D01*
X170457482Y-61755908D01*
X170457483Y-61755908D01*
X170397883Y-61749501D01*
X170397881Y-61749500D01*
X170397873Y-61749500D01*
X170397865Y-61749500D01*
X169499096Y-61749500D01*
X169432057Y-61729815D01*
X169386302Y-61677011D01*
X169376358Y-61607853D01*
X169405383Y-61544297D01*
X169411415Y-61537819D01*
X170012416Y-60936819D01*
X170073739Y-60903334D01*
X170100097Y-60900500D01*
X173613331Y-60900500D01*
X173613347Y-60900501D01*
X173620943Y-60900501D01*
X173779054Y-60900501D01*
X173779057Y-60900501D01*
X173931785Y-60859577D01*
X173981904Y-60830639D01*
X174068716Y-60780520D01*
X174180520Y-60668716D01*
X174180520Y-60668714D01*
X174190728Y-60658507D01*
X174190730Y-60658504D01*
X179497416Y-55351818D01*
X179558739Y-55318333D01*
X179585097Y-55315499D01*
X181112871Y-55315499D01*
X181112872Y-55315499D01*
X181172483Y-55309091D01*
X181307331Y-55258796D01*
X181422546Y-55172546D01*
X181508796Y-55057331D01*
X181559091Y-54922483D01*
X181565500Y-54862873D01*
X181565499Y-52737128D01*
X181559091Y-52677517D01*
X181533475Y-52608838D01*
X181508797Y-52542671D01*
X181508793Y-52542664D01*
X181422547Y-52427455D01*
X181422544Y-52427452D01*
X181307335Y-52341206D01*
X181307328Y-52341202D01*
X181172482Y-52290908D01*
X181172483Y-52290908D01*
X181112883Y-52284501D01*
X181112881Y-52284500D01*
X181112873Y-52284500D01*
X181112864Y-52284500D01*
X179287129Y-52284500D01*
X179287123Y-52284501D01*
X179227516Y-52290908D01*
X179092671Y-52341202D01*
X179092664Y-52341206D01*
X178977455Y-52427452D01*
X178977452Y-52427455D01*
X178891206Y-52542664D01*
X178891202Y-52542671D01*
X178847952Y-52658633D01*
X178806081Y-52714567D01*
X178740617Y-52738984D01*
X178672344Y-52724133D01*
X178644089Y-52702981D01*
X178549565Y-52608457D01*
X178549563Y-52608455D01*
X178375678Y-52482120D01*
X178184170Y-52384541D01*
X178184167Y-52384540D01*
X177979757Y-52318124D01*
X177838229Y-52295708D01*
X177767467Y-52284500D01*
X177552533Y-52284500D01*
X177481770Y-52295708D01*
X177340243Y-52318124D01*
X177340240Y-52318124D01*
X177135832Y-52384540D01*
X177135829Y-52384541D01*
X176944321Y-52482120D01*
X176860981Y-52542671D01*
X176770437Y-52608455D01*
X176770435Y-52608457D01*
X176770434Y-52608457D01*
X176618457Y-52760434D01*
X176618457Y-52760435D01*
X176618455Y-52760437D01*
X176521023Y-52894539D01*
X176490318Y-52936802D01*
X176434988Y-52979467D01*
X176365374Y-52985446D01*
X176303579Y-52952840D01*
X176289682Y-52936802D01*
X176276836Y-52919121D01*
X176161545Y-52760437D01*
X176009563Y-52608455D01*
X175835678Y-52482120D01*
X175644170Y-52384541D01*
X175644167Y-52384540D01*
X175439757Y-52318124D01*
X175298229Y-52295708D01*
X175227467Y-52284500D01*
X175012533Y-52284500D01*
X174941770Y-52295708D01*
X174800243Y-52318124D01*
X174800240Y-52318124D01*
X174595832Y-52384540D01*
X174595829Y-52384541D01*
X174404321Y-52482120D01*
X174320981Y-52542671D01*
X174230437Y-52608455D01*
X174230435Y-52608457D01*
X174230434Y-52608457D01*
X174078457Y-52760434D01*
X174078457Y-52760435D01*
X174078455Y-52760437D01*
X174003589Y-52863480D01*
X173950009Y-52937227D01*
X173894679Y-52979892D01*
X173825065Y-52985871D01*
X173763270Y-52953265D01*
X173749373Y-52937227D01*
X173621161Y-52760759D01*
X173469240Y-52608838D01*
X173295416Y-52482547D01*
X173103975Y-52385003D01*
X172899635Y-52318610D01*
X172899636Y-52318610D01*
X172830000Y-52307581D01*
X172830000Y-53355439D01*
X172776853Y-53324755D01*
X172647143Y-53290000D01*
X172512857Y-53290000D01*
X172383147Y-53324755D01*
X172330000Y-53355439D01*
X172330000Y-52307581D01*
X172260364Y-52318610D01*
X172056024Y-52385003D01*
X171864583Y-52482547D01*
X171690759Y-52608838D01*
X171538838Y-52760759D01*
X171412547Y-52934583D01*
X171315003Y-53126024D01*
X171248611Y-53330357D01*
X171248611Y-53330360D01*
X171215000Y-53542572D01*
X171215000Y-53550000D01*
X172135440Y-53550000D01*
X172104755Y-53603147D01*
X172070000Y-53732857D01*
X172070000Y-53867143D01*
X172104755Y-53996853D01*
X172135440Y-54050000D01*
X171215000Y-54050000D01*
X171215000Y-54057427D01*
X171248611Y-54269639D01*
X171248611Y-54269642D01*
X171315003Y-54473975D01*
X171412547Y-54665416D01*
X171538838Y-54839240D01*
X171690759Y-54991161D01*
X171864583Y-55117452D01*
X172056024Y-55214996D01*
X172260359Y-55281388D01*
X172329999Y-55292418D01*
X172330000Y-55292418D01*
X172330000Y-54244560D01*
X172383147Y-54275245D01*
X172512857Y-54310000D01*
X172647143Y-54310000D01*
X172776853Y-54275245D01*
X172830000Y-54244560D01*
X172830000Y-55292418D01*
X172899638Y-55281388D01*
X172899641Y-55281388D01*
X173103975Y-55214996D01*
X173295416Y-55117452D01*
X173469240Y-54991161D01*
X173621161Y-54839240D01*
X173621166Y-54839234D01*
X173749373Y-54662773D01*
X173804703Y-54620107D01*
X173874316Y-54614128D01*
X173936111Y-54646734D01*
X173950009Y-54662772D01*
X173952119Y-54665676D01*
X173952120Y-54665678D01*
X174078455Y-54839563D01*
X174230437Y-54991545D01*
X174404322Y-55117880D01*
X174455198Y-55143803D01*
X174482934Y-55157935D01*
X174533730Y-55205910D01*
X174550525Y-55273731D01*
X174527987Y-55339866D01*
X174514321Y-55356101D01*
X174455643Y-55414779D01*
X174455641Y-55414782D01*
X174362043Y-55554861D01*
X174297569Y-55710517D01*
X174297567Y-55710523D01*
X174264700Y-55875757D01*
X174264700Y-55875760D01*
X174264700Y-56044240D01*
X174264700Y-56044242D01*
X174264699Y-56044242D01*
X174297567Y-56209476D01*
X174297569Y-56209482D01*
X174362043Y-56365138D01*
X174455641Y-56505217D01*
X174455647Y-56505225D01*
X174574774Y-56624352D01*
X174574782Y-56624358D01*
X174714861Y-56717956D01*
X174760451Y-56736840D01*
X174870518Y-56782431D01*
X174870522Y-56782431D01*
X174870523Y-56782432D01*
X175035757Y-56815300D01*
X175035760Y-56815300D01*
X175204242Y-56815300D01*
X175315409Y-56793186D01*
X175369482Y-56782431D01*
X175525136Y-56717957D01*
X175525136Y-56717956D01*
X175525138Y-56717956D01*
X175594709Y-56671469D01*
X175665222Y-56624355D01*
X175784355Y-56505222D01*
X175877957Y-56365136D01*
X175942431Y-56209482D01*
X175975300Y-56044240D01*
X175975300Y-55875760D01*
X175975300Y-55875757D01*
X175942432Y-55710523D01*
X175942431Y-55710522D01*
X175942431Y-55710518D01*
X175877957Y-55554864D01*
X175877956Y-55554861D01*
X175784358Y-55414782D01*
X175784352Y-55414774D01*
X175725679Y-55356101D01*
X175692194Y-55294778D01*
X175697178Y-55225086D01*
X175739050Y-55169153D01*
X175757065Y-55157935D01*
X175835678Y-55117880D01*
X176009563Y-54991545D01*
X176161545Y-54839563D01*
X176287880Y-54665678D01*
X176287879Y-54665678D01*
X176289682Y-54663198D01*
X176345012Y-54620532D01*
X176414625Y-54614553D01*
X176476420Y-54647159D01*
X176490318Y-54663198D01*
X176492120Y-54665678D01*
X176618455Y-54839563D01*
X176770437Y-54991545D01*
X176944322Y-55117880D01*
X177022935Y-55157935D01*
X177135829Y-55215458D01*
X177135832Y-55215459D01*
X177340241Y-55281875D01*
X177340242Y-55281875D01*
X177340245Y-55281876D01*
X177552533Y-55315500D01*
X177552540Y-55315500D01*
X177556240Y-55316086D01*
X177619374Y-55346015D01*
X177656306Y-55405326D01*
X177655308Y-55475189D01*
X177624523Y-55526240D01*
X173487584Y-59663181D01*
X173426261Y-59696666D01*
X173399903Y-59699500D01*
X169886669Y-59699500D01*
X169886653Y-59699499D01*
X169879057Y-59699499D01*
X169720943Y-59699499D01*
X169613587Y-59728265D01*
X169568210Y-59740424D01*
X169568209Y-59740425D01*
X169518096Y-59769359D01*
X169518095Y-59769360D01*
X169474689Y-59794420D01*
X169431285Y-59819479D01*
X169431282Y-59819481D01*
X169319478Y-59931286D01*
X167484522Y-61766241D01*
X167423199Y-61799726D01*
X167358523Y-61796491D01*
X167316245Y-61782754D01*
X167176272Y-61760584D01*
X167106287Y-61749500D01*
X166893713Y-61749500D01*
X166845042Y-61757208D01*
X166683760Y-61782753D01*
X166582672Y-61815598D01*
X166492345Y-61844948D01*
X166481585Y-61848444D01*
X166292179Y-61944951D01*
X166120213Y-62069890D01*
X165969892Y-62220211D01*
X165917602Y-62292185D01*
X165876770Y-62348385D01*
X165872439Y-62351725D01*
X165870166Y-62356703D01*
X165845066Y-62372833D01*
X165821442Y-62391051D01*
X165814768Y-62392304D01*
X165811388Y-62394477D01*
X165776453Y-62399500D01*
X165685719Y-62399500D01*
X165618680Y-62379815D01*
X165575235Y-62331795D01*
X165555052Y-62292185D01*
X165555051Y-62292184D01*
X165430109Y-62120213D01*
X165279786Y-61969890D01*
X165107815Y-61844948D01*
X165107814Y-61844947D01*
X165068205Y-61824765D01*
X165017409Y-61776791D01*
X165000500Y-61714281D01*
X165000500Y-49420945D01*
X165000500Y-49420943D01*
X164959577Y-49268216D01*
X164948315Y-49248709D01*
X164880524Y-49131290D01*
X164880522Y-49131287D01*
X164880520Y-49131284D01*
X164768716Y-49019480D01*
X164768715Y-49019479D01*
X164764385Y-49015149D01*
X164764374Y-49015139D01*
X161387590Y-45638355D01*
X161387588Y-45638352D01*
X161268717Y-45519481D01*
X161268716Y-45519480D01*
X161181904Y-45469360D01*
X161181904Y-45469359D01*
X161181900Y-45469358D01*
X161131785Y-45440423D01*
X160979057Y-45399499D01*
X160820943Y-45399499D01*
X160813347Y-45399499D01*
X160813331Y-45399500D01*
X146689499Y-45399500D01*
X146622460Y-45379815D01*
X146576705Y-45327011D01*
X146565499Y-45275500D01*
X146565499Y-44937129D01*
X146565498Y-44937123D01*
X146561883Y-44903495D01*
X146559091Y-44877517D01*
X146552239Y-44859147D01*
X146508797Y-44742671D01*
X146508793Y-44742664D01*
X146422547Y-44627455D01*
X146422544Y-44627452D01*
X146307335Y-44541206D01*
X146307328Y-44541202D01*
X146172482Y-44490908D01*
X146172483Y-44490908D01*
X146112883Y-44484501D01*
X146112881Y-44484500D01*
X146112873Y-44484500D01*
X146112864Y-44484500D01*
X144287129Y-44484500D01*
X144287123Y-44484501D01*
X144227516Y-44490908D01*
X144092671Y-44541202D01*
X144092664Y-44541206D01*
X143977455Y-44627452D01*
X143977452Y-44627455D01*
X143891206Y-44742664D01*
X143891202Y-44742671D01*
X143847760Y-44859147D01*
X143805889Y-44915081D01*
X143740425Y-44939498D01*
X143672152Y-44924646D01*
X143643897Y-44903495D01*
X143549240Y-44808838D01*
X143375416Y-44682547D01*
X143183975Y-44585003D01*
X142979635Y-44518610D01*
X142979636Y-44518610D01*
X142910000Y-44507581D01*
X142910000Y-45555439D01*
X142856853Y-45524755D01*
X142727143Y-45490000D01*
X142592857Y-45490000D01*
X142463147Y-45524755D01*
X142410000Y-45555439D01*
X142410000Y-44507581D01*
X142340364Y-44518610D01*
X142136024Y-44585003D01*
X141944583Y-44682547D01*
X141770759Y-44808838D01*
X141618838Y-44960759D01*
X141618838Y-44960760D01*
X141490626Y-45137227D01*
X141435296Y-45179892D01*
X141365682Y-45185871D01*
X141303887Y-45153265D01*
X141289990Y-45137226D01*
X141239079Y-45067153D01*
X141161545Y-44960437D01*
X141009563Y-44808455D01*
X140835678Y-44682120D01*
X140644170Y-44584541D01*
X140644167Y-44584540D01*
X140439757Y-44518124D01*
X140298229Y-44495708D01*
X140227467Y-44484500D01*
X140012533Y-44484500D01*
X139941770Y-44495708D01*
X139800243Y-44518124D01*
X139800240Y-44518124D01*
X139595832Y-44584540D01*
X139595829Y-44584541D01*
X139404321Y-44682120D01*
X139320981Y-44742671D01*
X139230437Y-44808455D01*
X139230435Y-44808457D01*
X139230434Y-44808457D01*
X139078457Y-44960434D01*
X139078457Y-44960435D01*
X139078455Y-44960437D01*
X138981023Y-45094539D01*
X138950318Y-45136802D01*
X138894988Y-45179467D01*
X138825374Y-45185446D01*
X138763579Y-45152840D01*
X138749682Y-45136802D01*
X138736836Y-45119121D01*
X138621545Y-44960437D01*
X138469563Y-44808455D01*
X138295678Y-44682120D01*
X138104170Y-44584541D01*
X138104167Y-44584540D01*
X137899757Y-44518124D01*
X137758229Y-44495708D01*
X137687467Y-44484500D01*
X137472533Y-44484500D01*
X137401770Y-44495708D01*
X137260243Y-44518124D01*
X137260240Y-44518124D01*
X137055832Y-44584540D01*
X137055829Y-44584541D01*
X136864321Y-44682120D01*
X136780981Y-44742671D01*
X136690437Y-44808455D01*
X136690435Y-44808457D01*
X136690434Y-44808457D01*
X136538457Y-44960434D01*
X136538457Y-44960435D01*
X136538455Y-44960437D01*
X136484198Y-45035114D01*
X136412120Y-45134321D01*
X136314541Y-45325829D01*
X136314540Y-45325832D01*
X136248124Y-45530240D01*
X136248124Y-45530243D01*
X136214500Y-45742534D01*
X136214500Y-46257465D01*
X136248124Y-46469756D01*
X136248124Y-46469759D01*
X136314540Y-46674167D01*
X136314541Y-46674170D01*
X136402684Y-46847159D01*
X136412120Y-46865678D01*
X136538455Y-47039563D01*
X136690437Y-47191545D01*
X136780984Y-47257331D01*
X136864323Y-47317881D01*
X136911794Y-47342068D01*
X136962590Y-47390042D01*
X136979500Y-47452553D01*
X136979500Y-48793330D01*
X136979499Y-48793348D01*
X136979499Y-48959054D01*
X136979498Y-48959054D01*
X136995689Y-49019478D01*
X137020423Y-49111785D01*
X137020424Y-49111786D01*
X137031680Y-49131284D01*
X137031681Y-49131285D01*
X137099475Y-49248709D01*
X137099481Y-49248717D01*
X137218349Y-49367585D01*
X137218355Y-49367590D01*
X149288583Y-61437819D01*
X149322068Y-61499142D01*
X149317084Y-61568834D01*
X149275212Y-61624767D01*
X149209748Y-61649184D01*
X149200902Y-61649500D01*
X149093713Y-61649500D01*
X149045042Y-61657208D01*
X148883760Y-61682753D01*
X148681585Y-61748444D01*
X148492179Y-61844951D01*
X148320213Y-61969890D01*
X148169894Y-62120209D01*
X148169890Y-62120214D01*
X148050318Y-62284793D01*
X147994989Y-62327459D01*
X147925375Y-62333438D01*
X147863580Y-62300833D01*
X147849682Y-62284793D01*
X147730109Y-62120214D01*
X147730105Y-62120209D01*
X147579786Y-61969890D01*
X147407820Y-61844951D01*
X147218414Y-61748444D01*
X147218413Y-61748443D01*
X147218412Y-61748443D01*
X147016243Y-61682754D01*
X147016241Y-61682753D01*
X147016240Y-61682753D01*
X146854957Y-61657208D01*
X146806287Y-61649500D01*
X146593713Y-61649500D01*
X146545042Y-61657208D01*
X146383760Y-61682753D01*
X146181585Y-61748444D01*
X145992179Y-61844951D01*
X145820213Y-61969890D01*
X145669890Y-62120213D01*
X145544951Y-62292180D01*
X145510485Y-62359823D01*
X145462510Y-62410619D01*
X145394689Y-62427414D01*
X145328554Y-62404876D01*
X145289515Y-62359823D01*
X145273024Y-62327459D01*
X145255051Y-62292184D01*
X145224835Y-62250595D01*
X145130109Y-62120213D01*
X144979786Y-61969890D01*
X144807820Y-61844951D01*
X144618414Y-61748444D01*
X144618413Y-61748443D01*
X144618412Y-61748443D01*
X144416243Y-61682754D01*
X144416241Y-61682753D01*
X144416240Y-61682753D01*
X144254957Y-61657208D01*
X144206287Y-61649500D01*
X143993713Y-61649500D01*
X143945042Y-61657208D01*
X143783760Y-61682753D01*
X143581585Y-61748444D01*
X143392179Y-61844951D01*
X143220213Y-61969890D01*
X143069894Y-62120209D01*
X143069890Y-62120214D01*
X142950318Y-62284793D01*
X142894989Y-62327459D01*
X142825375Y-62333438D01*
X142763580Y-62300833D01*
X142749682Y-62284793D01*
X142630109Y-62120214D01*
X142630105Y-62120209D01*
X142479786Y-61969890D01*
X142307820Y-61844951D01*
X142118414Y-61748444D01*
X142118413Y-61748443D01*
X142118412Y-61748443D01*
X141916243Y-61682754D01*
X141916241Y-61682753D01*
X141916240Y-61682753D01*
X141754957Y-61657208D01*
X141706287Y-61649500D01*
X141493713Y-61649500D01*
X141445042Y-61657208D01*
X141283760Y-61682753D01*
X141081585Y-61748444D01*
X140892179Y-61844951D01*
X140720213Y-61969890D01*
X140569890Y-62120213D01*
X140444951Y-62292180D01*
X140410485Y-62359823D01*
X140362510Y-62410619D01*
X140294689Y-62427414D01*
X140228554Y-62404876D01*
X140189515Y-62359823D01*
X140173024Y-62327459D01*
X140155051Y-62292184D01*
X140124835Y-62250595D01*
X140030109Y-62120213D01*
X139879786Y-61969890D01*
X139707820Y-61844951D01*
X139518414Y-61748444D01*
X139518413Y-61748443D01*
X139518412Y-61748443D01*
X139316243Y-61682754D01*
X139316241Y-61682753D01*
X139316240Y-61682753D01*
X139154957Y-61657208D01*
X139106287Y-61649500D01*
X138893713Y-61649500D01*
X138845042Y-61657208D01*
X138683760Y-61682753D01*
X138481585Y-61748444D01*
X138292179Y-61844951D01*
X138120213Y-61969890D01*
X137969894Y-62120209D01*
X137969890Y-62120214D01*
X137850318Y-62284793D01*
X137794989Y-62327459D01*
X137725375Y-62333438D01*
X137663580Y-62300833D01*
X137649682Y-62284793D01*
X137530109Y-62120214D01*
X137530105Y-62120209D01*
X137379786Y-61969890D01*
X137207820Y-61844951D01*
X137018414Y-61748444D01*
X137018413Y-61748443D01*
X137018412Y-61748443D01*
X136816243Y-61682754D01*
X136816241Y-61682753D01*
X136816240Y-61682753D01*
X136654957Y-61657208D01*
X136606287Y-61649500D01*
X136393713Y-61649500D01*
X136345042Y-61657208D01*
X136183760Y-61682753D01*
X135981585Y-61748444D01*
X135792179Y-61844951D01*
X135620213Y-61969890D01*
X135469894Y-62120209D01*
X135469890Y-62120214D01*
X135350318Y-62284793D01*
X135294989Y-62327459D01*
X135225375Y-62333438D01*
X135163580Y-62300833D01*
X135149682Y-62284793D01*
X135030109Y-62120214D01*
X135030105Y-62120209D01*
X134879786Y-61969890D01*
X134707820Y-61844951D01*
X134518414Y-61748444D01*
X134518413Y-61748443D01*
X134518412Y-61748443D01*
X134316243Y-61682754D01*
X134316241Y-61682753D01*
X134316240Y-61682753D01*
X134154957Y-61657208D01*
X134106287Y-61649500D01*
X133893713Y-61649500D01*
X133845042Y-61657208D01*
X133683760Y-61682753D01*
X133481585Y-61748444D01*
X133292179Y-61844951D01*
X133120213Y-61969890D01*
X132969890Y-62120213D01*
X132844949Y-62292182D01*
X132784726Y-62410375D01*
X132736752Y-62461170D01*
X132668930Y-62477965D01*
X132602796Y-62455427D01*
X132563756Y-62410371D01*
X132554622Y-62392443D01*
X132429727Y-62220540D01*
X132429723Y-62220535D01*
X132279464Y-62070276D01*
X132279459Y-62070272D01*
X132107557Y-61945379D01*
X131918215Y-61848903D01*
X131716124Y-61783241D01*
X131650000Y-61772768D01*
X131650000Y-62666988D01*
X131592993Y-62634075D01*
X131465826Y-62600000D01*
X131334174Y-62600000D01*
X131207007Y-62634075D01*
X131150000Y-62666988D01*
X131150000Y-61772768D01*
X131149999Y-61772768D01*
X131083875Y-61783241D01*
X130881784Y-61848903D01*
X130692442Y-61945379D01*
X130520540Y-62070272D01*
X130520535Y-62070276D01*
X130370276Y-62220535D01*
X130370272Y-62220540D01*
X130245379Y-62392442D01*
X130148904Y-62581782D01*
X130083242Y-62783869D01*
X130083242Y-62783870D01*
X130053710Y-62970324D01*
X130023780Y-63033458D01*
X129964469Y-63070389D01*
X129894606Y-63069391D01*
X129836374Y-63030781D01*
X129826243Y-63016897D01*
X129717523Y-62843870D01*
X129542416Y-62624293D01*
X129343825Y-62425702D01*
X129124248Y-62250595D01*
X128917259Y-62120535D01*
X128886442Y-62101171D01*
X128633411Y-61979318D01*
X128368329Y-61886561D01*
X128368317Y-61886557D01*
X128094512Y-61824063D01*
X128094494Y-61824060D01*
X127815431Y-61792618D01*
X127815425Y-61792618D01*
X127534575Y-61792618D01*
X127534568Y-61792618D01*
X127255505Y-61824060D01*
X127255487Y-61824063D01*
X126981682Y-61886557D01*
X126981670Y-61886561D01*
X126716588Y-61979318D01*
X126463557Y-62101171D01*
X126225753Y-62250594D01*
X126006175Y-62425701D01*
X125807583Y-62624293D01*
X125632476Y-62843871D01*
X125483053Y-63081675D01*
X125361200Y-63334706D01*
X125268443Y-63599788D01*
X125268439Y-63599800D01*
X125205945Y-63873605D01*
X125205942Y-63873623D01*
X125174500Y-64152686D01*
X125174500Y-64433549D01*
X125205942Y-64712612D01*
X125205945Y-64712630D01*
X125268439Y-64986435D01*
X125268443Y-64986447D01*
X125361200Y-65251529D01*
X125483053Y-65504560D01*
X125483055Y-65504563D01*
X125632477Y-65742366D01*
X125807584Y-65961943D01*
X126006175Y-66160534D01*
X126225752Y-66335641D01*
X126463555Y-66485063D01*
X126716592Y-66606919D01*
X126891766Y-66668215D01*
X126981670Y-66699674D01*
X126981682Y-66699678D01*
X127255491Y-66762173D01*
X127255497Y-66762173D01*
X127255505Y-66762175D01*
X127441547Y-66783136D01*
X127534569Y-66793617D01*
X127534572Y-66793618D01*
X127534575Y-66793618D01*
X127815428Y-66793618D01*
X127815429Y-66793617D01*
X127958055Y-66777547D01*
X128094494Y-66762175D01*
X128094499Y-66762174D01*
X128094509Y-66762173D01*
X128368318Y-66699678D01*
X128633408Y-66606919D01*
X128886445Y-66485063D01*
X129124248Y-66335641D01*
X129343825Y-66160534D01*
X129542416Y-65961943D01*
X129717523Y-65742366D01*
X129866945Y-65504563D01*
X129988801Y-65251526D01*
X130081560Y-64986436D01*
X130144055Y-64712627D01*
X130175500Y-64433543D01*
X130175500Y-64152693D01*
X130168448Y-64090102D01*
X130180502Y-64021280D01*
X130227851Y-63969900D01*
X130295462Y-63952276D01*
X130361868Y-63974002D01*
X130379349Y-63988537D01*
X130520535Y-64129723D01*
X130520540Y-64129727D01*
X130692442Y-64254620D01*
X130881782Y-64351095D01*
X131083871Y-64416757D01*
X131150000Y-64427231D01*
X131150000Y-63533012D01*
X131207007Y-63565925D01*
X131334174Y-63600000D01*
X131465826Y-63600000D01*
X131592993Y-63565925D01*
X131650000Y-63533012D01*
X131650000Y-64427230D01*
X131716126Y-64416757D01*
X131716129Y-64416757D01*
X131918217Y-64351095D01*
X132107557Y-64254620D01*
X132279459Y-64129727D01*
X132279464Y-64129723D01*
X132429723Y-63979464D01*
X132429727Y-63979459D01*
X132554622Y-63807555D01*
X132614710Y-63689626D01*
X132662684Y-63638829D01*
X132730505Y-63622034D01*
X132796640Y-63644571D01*
X132835679Y-63689624D01*
X132844949Y-63707817D01*
X132969890Y-63879786D01*
X133120213Y-64030109D01*
X133292179Y-64155048D01*
X133292181Y-64155049D01*
X133292184Y-64155051D01*
X133481588Y-64251557D01*
X133683757Y-64317246D01*
X133893713Y-64350500D01*
X133893714Y-64350500D01*
X134106286Y-64350500D01*
X134106287Y-64350500D01*
X134316243Y-64317246D01*
X134518412Y-64251557D01*
X134707816Y-64155051D01*
X134742677Y-64129723D01*
X134879786Y-64030109D01*
X134879788Y-64030106D01*
X134879792Y-64030104D01*
X135030104Y-63879792D01*
X135149683Y-63715204D01*
X135205011Y-63672540D01*
X135274624Y-63666561D01*
X135336420Y-63699166D01*
X135350313Y-63715199D01*
X135417603Y-63807816D01*
X135469896Y-63879792D01*
X135620213Y-64030109D01*
X135792179Y-64155048D01*
X135792181Y-64155049D01*
X135792184Y-64155051D01*
X135981588Y-64251557D01*
X136183757Y-64317246D01*
X136393713Y-64350500D01*
X136393714Y-64350500D01*
X136606286Y-64350500D01*
X136606287Y-64350500D01*
X136816243Y-64317246D01*
X137018412Y-64251557D01*
X137207816Y-64155051D01*
X137242677Y-64129723D01*
X137379786Y-64030109D01*
X137379788Y-64030106D01*
X137379792Y-64030104D01*
X137530104Y-63879792D01*
X137649683Y-63715204D01*
X137705011Y-63672540D01*
X137774624Y-63666561D01*
X137836420Y-63699166D01*
X137850313Y-63715199D01*
X137917603Y-63807816D01*
X137969896Y-63879792D01*
X138120213Y-64030109D01*
X138292179Y-64155048D01*
X138292181Y-64155049D01*
X138292184Y-64155051D01*
X138481588Y-64251557D01*
X138683757Y-64317246D01*
X138893713Y-64350500D01*
X138893714Y-64350500D01*
X139106286Y-64350500D01*
X139106287Y-64350500D01*
X139316243Y-64317246D01*
X139518412Y-64251557D01*
X139707816Y-64155051D01*
X139742677Y-64129723D01*
X139879786Y-64030109D01*
X139879788Y-64030106D01*
X139879792Y-64030104D01*
X140030104Y-63879792D01*
X140030106Y-63879788D01*
X140030109Y-63879786D01*
X140155048Y-63707820D01*
X140155050Y-63707817D01*
X140155051Y-63707816D01*
X140189515Y-63640175D01*
X140237489Y-63589380D01*
X140305310Y-63572585D01*
X140371445Y-63595122D01*
X140410484Y-63640175D01*
X140426975Y-63672540D01*
X140444951Y-63707820D01*
X140569890Y-63879786D01*
X140720213Y-64030109D01*
X140892179Y-64155048D01*
X140892181Y-64155049D01*
X140892184Y-64155051D01*
X141081588Y-64251557D01*
X141283757Y-64317246D01*
X141493713Y-64350500D01*
X141493714Y-64350500D01*
X141706286Y-64350500D01*
X141706287Y-64350500D01*
X141916243Y-64317246D01*
X142118412Y-64251557D01*
X142307816Y-64155051D01*
X142342677Y-64129723D01*
X142479786Y-64030109D01*
X142479788Y-64030106D01*
X142479792Y-64030104D01*
X142630104Y-63879792D01*
X142749683Y-63715204D01*
X142805011Y-63672540D01*
X142874624Y-63666561D01*
X142936420Y-63699166D01*
X142950313Y-63715199D01*
X143017603Y-63807816D01*
X143069896Y-63879792D01*
X143220213Y-64030109D01*
X143392179Y-64155048D01*
X143392181Y-64155049D01*
X143392184Y-64155051D01*
X143581588Y-64251557D01*
X143783757Y-64317246D01*
X143993713Y-64350500D01*
X143993714Y-64350500D01*
X144200902Y-64350500D01*
X144267941Y-64370185D01*
X144313696Y-64422989D01*
X144323640Y-64492147D01*
X144294615Y-64555703D01*
X144288583Y-64562181D01*
X142319481Y-66531282D01*
X142319479Y-66531285D01*
X142275814Y-66606917D01*
X142275813Y-66606918D01*
X142270748Y-66615691D01*
X142240423Y-66668215D01*
X142199499Y-66820943D01*
X142199499Y-66820945D01*
X142199499Y-66989046D01*
X142199500Y-66989059D01*
X142199500Y-81938361D01*
X142179815Y-82005400D01*
X142127011Y-82051155D01*
X142057853Y-82061099D01*
X142023024Y-82050059D01*
X142022921Y-82050310D01*
X142020006Y-82049102D01*
X142019221Y-82048854D01*
X142018419Y-82048445D01*
X141885940Y-82005400D01*
X141816243Y-81982754D01*
X141816241Y-81982753D01*
X141816240Y-81982753D01*
X141647326Y-81956000D01*
X141606287Y-81949500D01*
X141393713Y-81949500D01*
X141352674Y-81956000D01*
X141183760Y-81982753D01*
X140981585Y-82048444D01*
X140792179Y-82144951D01*
X140620213Y-82269890D01*
X140469894Y-82420209D01*
X140469890Y-82420214D01*
X140400318Y-82515973D01*
X140344988Y-82558639D01*
X140275375Y-82564618D01*
X140213580Y-82532013D01*
X140199682Y-82515973D01*
X140130109Y-82420214D01*
X140130105Y-82420209D01*
X139979786Y-82269890D01*
X139807820Y-82144951D01*
X139618414Y-82048444D01*
X139618413Y-82048443D01*
X139618412Y-82048443D01*
X139416243Y-81982754D01*
X139416241Y-81982753D01*
X139416240Y-81982753D01*
X139247326Y-81956000D01*
X139206287Y-81949500D01*
X138993713Y-81949500D01*
X138952674Y-81956000D01*
X138783760Y-81982753D01*
X138581585Y-82048444D01*
X138392179Y-82144951D01*
X138220213Y-82269890D01*
X138069894Y-82420209D01*
X138069890Y-82420214D01*
X137950318Y-82584793D01*
X137894989Y-82627459D01*
X137825375Y-82633438D01*
X137763580Y-82600833D01*
X137749682Y-82584793D01*
X137630109Y-82420214D01*
X137630105Y-82420209D01*
X137479786Y-82269890D01*
X137307820Y-82144951D01*
X137118414Y-82048444D01*
X137118413Y-82048443D01*
X137118412Y-82048443D01*
X136916243Y-81982754D01*
X136916241Y-81982753D01*
X136916240Y-81982753D01*
X136747326Y-81956000D01*
X136706287Y-81949500D01*
X136493713Y-81949500D01*
X136452674Y-81956000D01*
X136283760Y-81982753D01*
X136081585Y-82048444D01*
X135892179Y-82144951D01*
X135720213Y-82269890D01*
X135569890Y-82420213D01*
X135444951Y-82592180D01*
X135410485Y-82659823D01*
X135362510Y-82710619D01*
X135294689Y-82727414D01*
X135228554Y-82704876D01*
X135189515Y-82659823D01*
X135173024Y-82627459D01*
X135155051Y-82592184D01*
X135111335Y-82532013D01*
X135030109Y-82420213D01*
X134879786Y-82269890D01*
X134707820Y-82144951D01*
X134518414Y-82048444D01*
X134518413Y-82048443D01*
X134518412Y-82048443D01*
X134316243Y-81982754D01*
X134316241Y-81982753D01*
X134316240Y-81982753D01*
X134147326Y-81956000D01*
X134106287Y-81949500D01*
X133893713Y-81949500D01*
X133852674Y-81956000D01*
X133683760Y-81982753D01*
X133481585Y-82048444D01*
X133292179Y-82144951D01*
X133120213Y-82269890D01*
X132969894Y-82420209D01*
X132969890Y-82420214D01*
X132900318Y-82515973D01*
X132844988Y-82558639D01*
X132775375Y-82564618D01*
X132713580Y-82532013D01*
X132699682Y-82515973D01*
X132630109Y-82420214D01*
X132630105Y-82420209D01*
X132479786Y-82269890D01*
X132307820Y-82144951D01*
X132118414Y-82048444D01*
X132118413Y-82048443D01*
X132118412Y-82048443D01*
X131916243Y-81982754D01*
X131916241Y-81982753D01*
X131916240Y-81982753D01*
X131747326Y-81956000D01*
X131706287Y-81949500D01*
X131493713Y-81949500D01*
X131452674Y-81956000D01*
X131283760Y-81982753D01*
X131081585Y-82048444D01*
X130892179Y-82144951D01*
X130720213Y-82269890D01*
X130569890Y-82420213D01*
X130444951Y-82592179D01*
X130348444Y-82781585D01*
X130282753Y-82983760D01*
X130249500Y-83193713D01*
X130249500Y-83406286D01*
X130282072Y-83611942D01*
X130282754Y-83616243D01*
X130345883Y-83810534D01*
X130348444Y-83818414D01*
X130444951Y-84007820D01*
X130569890Y-84179786D01*
X130720213Y-84330109D01*
X130892179Y-84455048D01*
X130892181Y-84455049D01*
X130892184Y-84455051D01*
X131081588Y-84551557D01*
X131283757Y-84617246D01*
X131493713Y-84650500D01*
X131493714Y-84650500D01*
X131706286Y-84650500D01*
X131706287Y-84650500D01*
X131916243Y-84617246D01*
X132118412Y-84551557D01*
X132307816Y-84455051D01*
X132366833Y-84412173D01*
X132479786Y-84330109D01*
X132479788Y-84330106D01*
X132479792Y-84330104D01*
X132630104Y-84179792D01*
X132699682Y-84084024D01*
X132755011Y-84041360D01*
X132824624Y-84035381D01*
X132886420Y-84067986D01*
X132900315Y-84084021D01*
X132937819Y-84135641D01*
X132969896Y-84179792D01*
X133120213Y-84330109D01*
X133292179Y-84455048D01*
X133292181Y-84455049D01*
X133292184Y-84455051D01*
X133481588Y-84551557D01*
X133683757Y-84617246D01*
X133893713Y-84650500D01*
X133893714Y-84650500D01*
X134100901Y-84650500D01*
X134167940Y-84670185D01*
X134213695Y-84722989D01*
X134223639Y-84792147D01*
X134194614Y-84855703D01*
X134188582Y-84862181D01*
X129903584Y-89147181D01*
X129842261Y-89180666D01*
X129815903Y-89183500D01*
X128522669Y-89183500D01*
X128522653Y-89183499D01*
X128515057Y-89183499D01*
X128356943Y-89183499D01*
X128269234Y-89207001D01*
X128204210Y-89224424D01*
X128204209Y-89224425D01*
X128154096Y-89253359D01*
X128154095Y-89253360D01*
X128110689Y-89278420D01*
X128067285Y-89303479D01*
X128067282Y-89303481D01*
X127955478Y-89415286D01*
X127729640Y-89641123D01*
X127668317Y-89674608D01*
X127603641Y-89671373D01*
X127439757Y-89618124D01*
X127298229Y-89595708D01*
X127227467Y-89584500D01*
X127012533Y-89584500D01*
X126941770Y-89595708D01*
X126800243Y-89618124D01*
X126800240Y-89618124D01*
X126595832Y-89684540D01*
X126595829Y-89684541D01*
X126404321Y-89782120D01*
X126320700Y-89842875D01*
X126230437Y-89908455D01*
X126230435Y-89908457D01*
X126230434Y-89908457D01*
X126078457Y-90060434D01*
X126078457Y-90060435D01*
X126078455Y-90060437D01*
X126003589Y-90163480D01*
X125950009Y-90237227D01*
X125894679Y-90279892D01*
X125825065Y-90285871D01*
X125763270Y-90253265D01*
X125749373Y-90237227D01*
X125621161Y-90060759D01*
X125469240Y-89908838D01*
X125295416Y-89782547D01*
X125103975Y-89685003D01*
X124899635Y-89618610D01*
X124899636Y-89618610D01*
X124830000Y-89607581D01*
X124830000Y-90655439D01*
X124776853Y-90624755D01*
X124647143Y-90590000D01*
X124512857Y-90590000D01*
X124383147Y-90624755D01*
X124330000Y-90655439D01*
X124330000Y-89607581D01*
X124260364Y-89618610D01*
X124056024Y-89685003D01*
X123864583Y-89782547D01*
X123690759Y-89908838D01*
X123538838Y-90060759D01*
X123412547Y-90234583D01*
X123315003Y-90426024D01*
X123248611Y-90630357D01*
X123248611Y-90630360D01*
X123215000Y-90842572D01*
X91881500Y-90842572D01*
X91881500Y-81802686D01*
X125124500Y-81802686D01*
X125124500Y-82083549D01*
X125155942Y-82362612D01*
X125155945Y-82362630D01*
X125218439Y-82636435D01*
X125218443Y-82636447D01*
X125311200Y-82901529D01*
X125433053Y-83154560D01*
X125433055Y-83154563D01*
X125582477Y-83392366D01*
X125757584Y-83611943D01*
X125956175Y-83810534D01*
X126175752Y-83985641D01*
X126413555Y-84135063D01*
X126666592Y-84256919D01*
X126865680Y-84326583D01*
X126931670Y-84349674D01*
X126931682Y-84349678D01*
X127205491Y-84412173D01*
X127205497Y-84412173D01*
X127205505Y-84412175D01*
X127364634Y-84430104D01*
X127484569Y-84443617D01*
X127484572Y-84443618D01*
X127484575Y-84443618D01*
X127765428Y-84443618D01*
X127765429Y-84443617D01*
X127908055Y-84427547D01*
X128044494Y-84412175D01*
X128044499Y-84412174D01*
X128044509Y-84412173D01*
X128318318Y-84349678D01*
X128583408Y-84256919D01*
X128836445Y-84135063D01*
X129074248Y-83985641D01*
X129293825Y-83810534D01*
X129492416Y-83611943D01*
X129667523Y-83392366D01*
X129816945Y-83154563D01*
X129938801Y-82901526D01*
X130031560Y-82636436D01*
X130094055Y-82362627D01*
X130108599Y-82233549D01*
X130118187Y-82148444D01*
X130125500Y-82083543D01*
X130125500Y-81802693D01*
X130094055Y-81523609D01*
X130031560Y-81249800D01*
X129938801Y-80984710D01*
X129816945Y-80731673D01*
X129667523Y-80493870D01*
X129492416Y-80274293D01*
X129293825Y-80075702D01*
X129074248Y-79900595D01*
X128836445Y-79751173D01*
X128836442Y-79751171D01*
X128583411Y-79629318D01*
X128318329Y-79536561D01*
X128318317Y-79536557D01*
X128044512Y-79474063D01*
X128044494Y-79474060D01*
X127765431Y-79442618D01*
X127765425Y-79442618D01*
X127484575Y-79442618D01*
X127484568Y-79442618D01*
X127205505Y-79474060D01*
X127205487Y-79474063D01*
X126931682Y-79536557D01*
X126931670Y-79536561D01*
X126666588Y-79629318D01*
X126413557Y-79751171D01*
X126175753Y-79900594D01*
X125956175Y-80075701D01*
X125757583Y-80274293D01*
X125582476Y-80493871D01*
X125433053Y-80731675D01*
X125311200Y-80984706D01*
X125218443Y-81249788D01*
X125218439Y-81249800D01*
X125155945Y-81523605D01*
X125155942Y-81523623D01*
X125124500Y-81802686D01*
X91881500Y-81802686D01*
X91881500Y-76539778D01*
X96059500Y-76539778D01*
X96059500Y-76760221D01*
X96093985Y-76977952D01*
X96162103Y-77187603D01*
X96162104Y-77187606D01*
X96230122Y-77321096D01*
X96257129Y-77374100D01*
X96262187Y-77384025D01*
X96391752Y-77562358D01*
X96391756Y-77562363D01*
X96547636Y-77718243D01*
X96547641Y-77718247D01*
X96703192Y-77831260D01*
X96725978Y-77847815D01*
X96854375Y-77913237D01*
X96922393Y-77947895D01*
X96922396Y-77947896D01*
X97027221Y-77981955D01*
X97132049Y-78016015D01*
X97349778Y-78050500D01*
X97349779Y-78050500D01*
X97570221Y-78050500D01*
X97570222Y-78050500D01*
X97787951Y-78016015D01*
X97997606Y-77947895D01*
X98194022Y-77847815D01*
X98372365Y-77718242D01*
X98528242Y-77562365D01*
X98538804Y-77547826D01*
X98629682Y-77422745D01*
X98685011Y-77380079D01*
X98754625Y-77374100D01*
X98816420Y-77406705D01*
X98830318Y-77422745D01*
X98931752Y-77562358D01*
X98931756Y-77562363D01*
X99087636Y-77718243D01*
X99087641Y-77718247D01*
X99243192Y-77831260D01*
X99265978Y-77847815D01*
X99394375Y-77913237D01*
X99462393Y-77947895D01*
X99462396Y-77947896D01*
X99567221Y-77981955D01*
X99672049Y-78016015D01*
X99889778Y-78050500D01*
X99889779Y-78050500D01*
X100110221Y-78050500D01*
X100110222Y-78050500D01*
X100327951Y-78016015D01*
X100537606Y-77947895D01*
X100734022Y-77847815D01*
X100912365Y-77718242D01*
X101068242Y-77562365D01*
X101078804Y-77547826D01*
X101169682Y-77422745D01*
X101225011Y-77380079D01*
X101294625Y-77374100D01*
X101356420Y-77406705D01*
X101370318Y-77422745D01*
X101471752Y-77562358D01*
X101471756Y-77562363D01*
X101627636Y-77718243D01*
X101627641Y-77718247D01*
X101783192Y-77831260D01*
X101805978Y-77847815D01*
X101934375Y-77913237D01*
X102002393Y-77947895D01*
X102002396Y-77947896D01*
X102107221Y-77981955D01*
X102212049Y-78016015D01*
X102429778Y-78050500D01*
X102429779Y-78050500D01*
X102650221Y-78050500D01*
X102650222Y-78050500D01*
X102867951Y-78016015D01*
X103077606Y-77947895D01*
X103274022Y-77847815D01*
X103452365Y-77718242D01*
X103608242Y-77562365D01*
X103737815Y-77384022D01*
X103837895Y-77187606D01*
X103906015Y-76977951D01*
X103940500Y-76760222D01*
X103940500Y-76539778D01*
X103906015Y-76322049D01*
X103837895Y-76112394D01*
X103837895Y-76112393D01*
X103803237Y-76044375D01*
X103737815Y-75915978D01*
X103709681Y-75877254D01*
X103608247Y-75737641D01*
X103608243Y-75737636D01*
X103452363Y-75581756D01*
X103452358Y-75581752D01*
X103274025Y-75452187D01*
X103274024Y-75452186D01*
X103274022Y-75452185D01*
X103211096Y-75420122D01*
X103077606Y-75352104D01*
X103077603Y-75352103D01*
X102867952Y-75283985D01*
X102759086Y-75266742D01*
X102650222Y-75249500D01*
X102429778Y-75249500D01*
X102357201Y-75260995D01*
X102212047Y-75283985D01*
X102002396Y-75352103D01*
X102002393Y-75352104D01*
X101805974Y-75452187D01*
X101627641Y-75581752D01*
X101627636Y-75581756D01*
X101471756Y-75737636D01*
X101471752Y-75737641D01*
X101370318Y-75877254D01*
X101314988Y-75919920D01*
X101245375Y-75925899D01*
X101183580Y-75893293D01*
X101169682Y-75877254D01*
X101068247Y-75737641D01*
X101068243Y-75737636D01*
X100912363Y-75581756D01*
X100912358Y-75581752D01*
X100734025Y-75452187D01*
X100734024Y-75452186D01*
X100734022Y-75452185D01*
X100671096Y-75420122D01*
X100537606Y-75352104D01*
X100537603Y-75352103D01*
X100327952Y-75283985D01*
X100219086Y-75266742D01*
X100110222Y-75249500D01*
X99889778Y-75249500D01*
X99817201Y-75260995D01*
X99672047Y-75283985D01*
X99462396Y-75352103D01*
X99462393Y-75352104D01*
X99265974Y-75452187D01*
X99087641Y-75581752D01*
X99087636Y-75581756D01*
X98931756Y-75737636D01*
X98931752Y-75737641D01*
X98830318Y-75877254D01*
X98774988Y-75919920D01*
X98705375Y-75925899D01*
X98643580Y-75893293D01*
X98629682Y-75877254D01*
X98528247Y-75737641D01*
X98528243Y-75737636D01*
X98372363Y-75581756D01*
X98372358Y-75581752D01*
X98194025Y-75452187D01*
X98194024Y-75452186D01*
X98194022Y-75452185D01*
X98131096Y-75420122D01*
X97997606Y-75352104D01*
X97997603Y-75352103D01*
X97787952Y-75283985D01*
X97679086Y-75266742D01*
X97570222Y-75249500D01*
X97349778Y-75249500D01*
X97277201Y-75260995D01*
X97132047Y-75283985D01*
X96922396Y-75352103D01*
X96922393Y-75352104D01*
X96725974Y-75452187D01*
X96547641Y-75581752D01*
X96547636Y-75581756D01*
X96391756Y-75737636D01*
X96391752Y-75737641D01*
X96262187Y-75915974D01*
X96162104Y-76112393D01*
X96162103Y-76112396D01*
X96093985Y-76322047D01*
X96059500Y-76539778D01*
X91881500Y-76539778D01*
X91881500Y-72797648D01*
X111099500Y-72797648D01*
X111099500Y-73002351D01*
X111131522Y-73204534D01*
X111194781Y-73399223D01*
X111287715Y-73581613D01*
X111408028Y-73747213D01*
X111552786Y-73891971D01*
X111707749Y-74004556D01*
X111718390Y-74012287D01*
X111834607Y-74071503D01*
X111900776Y-74105218D01*
X111900778Y-74105218D01*
X111900781Y-74105220D01*
X112005137Y-74139127D01*
X112095465Y-74168477D01*
X112196557Y-74184488D01*
X112297648Y-74200500D01*
X112297649Y-74200500D01*
X112502351Y-74200500D01*
X112502352Y-74200500D01*
X112704534Y-74168477D01*
X112899219Y-74105220D01*
X113081610Y-74012287D01*
X113174590Y-73944732D01*
X113247213Y-73891971D01*
X113247215Y-73891968D01*
X113247219Y-73891966D01*
X113391966Y-73747219D01*
X113391968Y-73747215D01*
X113391971Y-73747213D01*
X113444732Y-73674590D01*
X113512287Y-73581610D01*
X113605220Y-73399219D01*
X113668477Y-73204534D01*
X113700500Y-73002352D01*
X113700500Y-72797648D01*
X118699500Y-72797648D01*
X118699500Y-73002351D01*
X118731522Y-73204534D01*
X118794781Y-73399223D01*
X118887715Y-73581613D01*
X119008028Y-73747213D01*
X119152786Y-73891971D01*
X119307749Y-74004556D01*
X119318390Y-74012287D01*
X119434607Y-74071503D01*
X119500776Y-74105218D01*
X119500778Y-74105218D01*
X119500781Y-74105220D01*
X119605137Y-74139127D01*
X119695465Y-74168477D01*
X119796557Y-74184488D01*
X119897648Y-74200500D01*
X119897649Y-74200500D01*
X120102351Y-74200500D01*
X120102352Y-74200500D01*
X120304534Y-74168477D01*
X120499219Y-74105220D01*
X120681610Y-74012287D01*
X120774590Y-73944732D01*
X120847213Y-73891971D01*
X120847215Y-73891968D01*
X120847219Y-73891966D01*
X120991966Y-73747219D01*
X120991968Y-73747215D01*
X120991971Y-73747213D01*
X121044732Y-73674590D01*
X121112287Y-73581610D01*
X121205220Y-73399219D01*
X121268477Y-73204534D01*
X121300500Y-73002352D01*
X121300500Y-72797648D01*
X121268477Y-72595466D01*
X121205220Y-72400781D01*
X121205218Y-72400778D01*
X121205218Y-72400776D01*
X121123347Y-72240097D01*
X121112287Y-72218390D01*
X121090742Y-72188735D01*
X120991971Y-72052786D01*
X120847213Y-71908028D01*
X120681613Y-71787715D01*
X120681612Y-71787714D01*
X120681610Y-71787713D01*
X120624653Y-71758691D01*
X120499223Y-71694781D01*
X120304534Y-71631522D01*
X120129995Y-71603878D01*
X120102352Y-71599500D01*
X119897648Y-71599500D01*
X119873329Y-71603351D01*
X119695465Y-71631522D01*
X119500776Y-71694781D01*
X119318386Y-71787715D01*
X119152786Y-71908028D01*
X119008028Y-72052786D01*
X118887715Y-72218386D01*
X118794781Y-72400776D01*
X118731522Y-72595465D01*
X118699500Y-72797648D01*
X113700500Y-72797648D01*
X113668477Y-72595466D01*
X113605220Y-72400781D01*
X113605218Y-72400778D01*
X113605218Y-72400776D01*
X113523347Y-72240097D01*
X113512287Y-72218390D01*
X113490742Y-72188735D01*
X113391971Y-72052786D01*
X113247213Y-71908028D01*
X113081613Y-71787715D01*
X113081612Y-71787714D01*
X113081610Y-71787713D01*
X113024653Y-71758691D01*
X112899223Y-71694781D01*
X112704534Y-71631522D01*
X112529995Y-71603878D01*
X112502352Y-71599500D01*
X112297648Y-71599500D01*
X112273329Y-71603351D01*
X112095465Y-71631522D01*
X111900776Y-71694781D01*
X111718386Y-71787715D01*
X111552786Y-71908028D01*
X111408028Y-72052786D01*
X111287715Y-72218386D01*
X111194781Y-72400776D01*
X111131522Y-72595465D01*
X111099500Y-72797648D01*
X91881500Y-72797648D01*
X91881500Y-42005500D01*
X91901185Y-41938461D01*
X91953989Y-41892706D01*
X92005500Y-41881500D01*
X186994500Y-41881500D01*
X187061539Y-41901185D01*
G37*
%TD.AperFunction*%
%TD*%
M02*
